{
.appVersion = "1342";
classes = (
{
automatic = 1;

glyphs = (
{
glyphname = A;
layers = (
{
anchors = (
{
name = bottom;
position = "{506, 0}";
},
{
name = ogonek;
position = "{989, 10}";
},
{
name = top;
position = "{757, 1420}";
}
);
layerId = "7062B15D-7097-4448-A185-D08BD1167FB1";
paths = (
{
closed = 1;
nodes = (
"174 0 LINE",
"717 1249 LINE",
"735 1249 LINE",
"788 935 OFFCURVE",
"854 308 OFFCURVE",
"850 0 CURVE",
"1062 0 LINE",
"1059 369 OFFCURVE",
"989 1043 OFFCURVE",
"903 1421 CURVE",
"582 1421 LINE",
"-48 0 LINE"
);
},
{
closed = 1;
nodes = (
"935 346 LINE",
"976 536 LINE",
"256 536 LINE",
"215 346 LINE"
);
}
);
width = 1200;
},
{
anchors = (
{
name = bottom;
position = "{506, 0}";
},
{
name = ogonek;
position = "{989, 10}";
},
{
name = top;
position = "{756, 1420}";
}
);
layerId = "84EC96F5-B4D5-4389-883B-FBB110B3398F";
paths = (
{
closed = 1;
nodes = (
"205 0 LINE",
"691 1113 LINE",
"723 1113 LINE",
"758 742 OFFCURVE",
"793 371 OFFCURVE",
"809 0 CURVE",
"1079 0 LINE",
"1047 474 OFFCURVE",
"995 947 OFFCURVE",
"923 1421 CURVE",
"594 1421 LINE",
"-65 0 LINE"
);
},
{
closed = 1;
nodes = (
"913 269 LINE",
"947 513 LINE",
"227 513 LINE",
"193 269 LINE"
);
}
);
width = 1200;
},
{
anchors = (
{
name = bottom;
position = "{506, 0}";
},
{
name = ogonek;
position = "{989, 10}";
},
{
name = top;
position = "{757, 1420}";
}
);
layerId = "A4690C19-62E3-4552-AAB4-AF5F97C4421F";
paths = (
{
closed = 1;
nodes = (
"86 0 LINE",
"732 1333 LINE",
"750 1333 LINE",
"822 1045 OFFCURVE",
"879 626 OFFCURVE",
"932 0 CURVE",
"1038 0 LINE",
"976 655 OFFCURVE",
"910 1102 OFFCURVE",
"829 1421 CURVE",
"681 1421 LINE",
"-24 0 LINE"
);
},
{
closed = 1;
nodes = (
"940 396 LINE",
"957 486 LINE",
"237 486 LINE",
"220 396 LINE"
);
}
);
width = 1200;
}
);
unicode = 0041;
},
{
glyphname = "Alpha-latin";
layers = (
{
anchors = (
{
name = bottom;
position = "{506, 0}";
},
{
name = top;
position = "{757, 1420}";
}
);
layerId = "7062B15D-7097-4448-A185-D08BD1167FB1";
paths = (
{
closed = 1;
nodes = (
"523 1430 OFFCURVE",
"49 945 OFFCURVE",
"49 318 CURVE SMOOTH",
"49 106 OFFCURVE",
"169 -20 OFFCURVE",
"373 -20 CURVE SMOOTH",
"567 -20 OFFCURVE",
"705 110 OFFCURVE",
"775 359 CURVE",
"722 291 LINE",
"838 291 LINE",
"781 376 LINE",
"751 -10 LINE",
"1053 0 LINE",
"1082 163 LINE",
"825 163 LINE",
"913 80 LINE",
"1151 1430 LINE",
"1133 1430 LINE SMOOTH"
);
},
{
closed = 1;
nodes = (
"324 164 OFFCURVE",
"263 235 OFFCURVE",
"263 353 CURVE SMOOTH",
"263 823 OFFCURVE",
"599 1213 OFFCURVE",
"1000 1230 CURVE",
"923 1317 LINE",
"808 667 LINE SMOOTH",
"747 321 OFFCURVE",
"621 164 OFFCURVE",
"428 164 CURVE SMOOTH"
);
}
);
width = 1200;
},
{
anchors = (
{
name = bottom;
position = "{506, 0}";
},
{
name = top;
position = "{756, 1420}";
}
);
layerId = "84EC96F5-B4D5-4389-883B-FBB110B3398F";
paths = (
{
closed = 1;
nodes = (
"524 1430 OFFCURVE",
"28 949 OFFCURVE",
"28 328 CURVE SMOOTH",
"28 110 OFFCURVE",
"148 -20 OFFCURVE",
"352 -20 CURVE SMOOTH",
"568 -20 OFFCURVE",
"702 115 OFFCURVE",
"779 410 CURVE",
"701 224 LINE",
"817 224 LINE",
"750 376 LINE",
"720 -10 LINE",
"1082 0 LINE",
"1121 219 LINE",
"834 219 LINE",
"942 80 LINE",
"1180 1430 LINE",
"1162 1430 LINE SMOOTH"
);
},
{
closed = 1;
nodes = (
"351 232 OFFCURVE",
"306 288 OFFCURVE",
"306 383 CURVE SMOOTH",
"306 793 OFFCURVE",
"622 1133 OFFCURVE",
"999 1148 CURVE",
"894 1317 LINE",
"779 667 LINE SMOOTH",
"726 368 OFFCURVE",
"606 232 OFFCURVE",
"427 232 CURVE SMOOTH"
);
}
);
width = 1200;
},
{
anchors = (
{
name = bottom;
position = "{506, 0}";
},
{
name = top;
position = "{757, 1420}";
}
);
layerId = "A4690C19-62E3-4552-AAB4-AF5F97C4421F";
paths = (
{
closed = 1;
nodes = (
"530 1430 OFFCURVE",
"78 945 OFFCURVE",
"78 318 CURVE SMOOTH",
"78 106 OFFCURVE",
"194 -20 OFFCURVE",
"392 -20 CURVE SMOOTH",
"629 -20 OFFCURVE",
"776 99 OFFCURVE",
"861 359 CURVE",
"821 284 LINE",
"907 284 LINE",
"850 329 LINE",
"800 -10 LINE",
"1060 0 LINE",
"1074 82 LINE",
"874 82 LINE",
"892 80 LINE",
"1130 1430 LINE",
"1112 1430 LINE SMOOTH"
);
},
{
closed = 1;
nodes = (
"264 70 OFFCURVE",
"174 171 OFFCURVE",
"174 343 CURVE SMOOTH",
"174 877 OFFCURVE",
"568 1321 OFFCURVE",
"1039 1340 CURVE",
"1029 1399 LINE",
"900 667 LINE SMOOTH",
"827 255 OFFCURVE",
"665 70 OFFCURVE",
"417 70 CURVE SMOOTH"
);
}
);
width = 1200;
}
);
unicode = 2C6D;
},
{
glyphname = Aogonek;
layers = (
{
anchors = (
{
name = bottom;
position = "{438, -388}";
}
);
components = (
{
name = A;
}
);
layerId = "7062B15D-7097-4448-A185-D08BD1167FB1";
paths = (
{
closed = 1;
nodes = (
"891 -424 OFFCURVE",
"942 -413 OFFCURVE",
"990 -391 CURVE",
"958 -232 LINE",
"927 -248 OFFCURVE",
"895 -256 OFFCURVE",
"866 -256 CURVE SMOOTH",
"810 -256 OFFCURVE",
"780 -234 OFFCURVE",
"780 -193 CURVE SMOOTH",
"780 -104 OFFCURVE",
"914 -45 OFFCURVE",
"1062 0 CURVE",
"1023 30 LINE",
"852 50 LINE",
"852 0 LINE",
"712 -45 OFFCURVE",
"630 -135 OFFCURVE",
"630 -242 CURVE SMOOTH",
"630 -364 OFFCURVE",
"702 -424 OFFCURVE",
"840 -424 CURVE SMOOTH"
);
}
);
width = 1200;
},
{
anchors = (
{
name = bottom;
position = "{438, -388}";
}
);
components = (
{
name = A;
}
);
layerId = "84EC96F5-B4D5-4389-883B-FBB110B3398F";
paths = (
{
closed = 1;
nodes = (
"900 -424 OFFCURVE",
"964 -408 OFFCURVE",
"1010 -386 CURVE",
"968 -172 LINE",
"945 -180 OFFCURVE",
"921 -185 OFFCURVE",
"900 -185 CURVE SMOOTH",
"862 -185 OFFCURVE",
"841 -170 OFFCURVE",
"841 -142 CURVE SMOOTH",
"841 -77 OFFCURVE",
"954 -33 OFFCURVE",
"1079 0 CURVE",
"1040 30 LINE",
"847 30 LINE",
"847 -20 LINE",
"706 -64 OFFCURVE",
"624 -151 OFFCURVE",
"624 -255 CURVE SMOOTH",
"624 -368 OFFCURVE",
"699 -424 OFFCURVE",
"843 -424 CURVE SMOOTH"
);
}
);
width = 1200;
},
{
anchors = (
{
name = bottom;
position = "{438, -388}";
}
);
components = (
{
name = A;
}
);
layerId = "A4690C19-62E3-4552-AAB4-AF5F97C4421F";
paths = (
{
closed = 1;
nodes = (
"889 -423 OFFCURVE",
"931 -417 OFFCURVE",
"960 -405 CURVE",
"947 -322 LINE",
"927 -329 OFFCURVE",
"896 -336 OFFCURVE",
"862 -336 CURVE SMOOTH",
"817 -336 OFFCURVE",
"793 -311 OFFCURVE",
"793 -264 CURVE SMOOTH",
"793 -189 OFFCURVE",
"870 -106 OFFCURVE",
"1038 0 CURVE",
"1013 34 LINE",
"948 58 LINE",
"948 0 LINE",
"777 -97 OFFCURVE",
"699 -186 OFFCURVE",
"699 -284 CURVE SMOOTH",
"699 -374 OFFCURVE",
"750 -423 OFFCURVE",
"846 -423 CURVE SMOOTH"
);
}
);
width = 1200;
}
);
unicode = 0104;
},
{
glyphname = Astroke;
layers = (
{
anchors = (
{
name = bottom;
position = "{438, -388}";
},
{
name = top;
position = "{871, 1500}";
}
);
components = (
{
name = A;
}
);
layerId = "7062B15D-7097-4448-A185-D08BD1167FB1";
paths = (
{
closed = 1;
nodes = (
"640 428 LINE",
"649 479 LINE",
"835 994 LINE",
"886 1107 LINE",
"1095 1684 LINE",
"967 1716 LINE",
"815 1296 LINE",
"796 1231 LINE",
"526 484 LINE",
"498 420 LINE",
"235 -306 LINE",
"364 -338 LINE"
);
}
);
width = 1200;
},
{
anchors = (
{
name = bottom;
position = "{438, -388}";
},
{
name = top;
position = "{770, 1500}";
}
);
components = (
{
name = A;
}
);
layerId = "84EC96F5-B4D5-4389-883B-FBB110B3398F";
paths = (
{
closed = 1;
nodes = (
"629 324 LINE",
"609 419 LINE",
"788 913 LINE",
"897 1066 LINE",
"1112 1662 LINE",
"930 1711 LINE",
"781 1299 LINE",
"782 1190 LINE",
"511 441 LINE",
"445 369 LINE",
"210 -279 LINE",
"393 -328 LINE"
);
}
);
width = 1200;
},
{
anchors = (
{
name = bottom;
position = "{438, -388}";
},
{
name = top;
position = "{770, 1500}";
}
);
components = (
{
name = A;
}
);
layerId = "A4690C19-62E3-4552-AAB4-AF5F97C4421F";
paths = (
{
closed = 1;
nodes = (
"597 425 LINE",
"613 469 LINE",
"831 1062 LINE",
"855 1129 LINE",
"1065 1699 LINE",
"968 1723 LINE",
"803 1266 LINE",
"789 1226 LINE",
"513 465 LINE",
"498 423 LINE",
"229 -320 LINE",
"316 -340 LINE"
);
}
);
width = 1200;
}
);
unicode = 023A;
},
{
glyphname = AE;
layers = (
{
anchors = (
{
name = bottom;
position = "{506, 0}";
},
{
name = ogonek;
position = "{990, 10}";
},
{
name = top;
position = "{857, 1420}";
}
);
layerId = "7062B15D-7097-4448-A185-D08BD1167FB1";
paths = (
{
closed = 1;
nodes = (
"689 0 LINE",
"939 1420 LINE",
"741 1420 LINE",
"491 0 LINE"
);
},
{
closed = 1;
nodes = (
"1005 0 LINE",
"1038 190 LINE",
"535 190 LINE",
"501 0 LINE"
);
},
{
closed = 1;
nodes = (
"1054 616 LINE",
"1087 806 LINE",
"643 806 LINE",
"610 616 LINE"
);
},
{
closed = 1;
nodes = (
"1222 1230 LINE",
"1257 1420 LINE",
"751 1420 LINE",
"718 1230 LINE"
);
},
{
closed = 1;
nodes = (
"159 0 LINE",
"688 1248 LINE",
"726 1248 LINE",
"867 1420 LINE",
"577 1420 LINE",
"-51 0 LINE"
);
},
{
closed = 1;
nodes = (
"648 237 LINE",
"682 417 LINE",
"222 417 LINE",
"188 237 LINE"
);
}
);
width = 1200;
},
{
anchors = (
{
name = bottom;
position = "{506, 0}";
},
{
name = ogonek;
position = "{990, 10}";
},
{
name = top;
position = "{857, 1420}";
}
);
layerId = "84EC96F5-B4D5-4389-883B-FBB110B3398F";
paths = (
{
closed = 1;
nodes = (
"719 0 LINE",
"969 1420 LINE",
"731 1420 LINE",
"481 0 LINE"
);
},
{
closed = 1;
nodes = (
"1021 0 LINE",
"1065 242 LINE",
"558 242 LINE",
"513 0 LINE"
);
},
{
closed = 1;
nodes = (
"1067 590 LINE",
"1110 832 LINE",
"666 832 LINE",
"623 590 LINE"
);
},
{
closed = 1;
nodes = (
"1231 1179 LINE",
"1273 1420 LINE",
"773 1420 LINE",
"733 1179 LINE"
);
},
{
closed = 1;
nodes = (
"204 0 LINE",
"659 1179 LINE",
"724 1179 LINE",
"889 1420 LINE",
"505 1420 LINE",
"-66 0 LINE"
);
},
{
closed = 1;
nodes = (
"660 164 LINE",
"694 403 LINE",
"234 403 LINE",
"200 164 LINE"
);
}
);
width = 1200;
},
{
anchors = (
{
name = bottom;
position = "{506, 0}";
},
{
name = ogonek;
position = "{990, 10}";
},
{
name = top;
position = "{867, 1420}";
}
);
layerId = "A4690C19-62E3-4552-AAB4-AF5F97C4421F";
paths = (
{
closed = 1;
nodes = (
"638 0 LINE",
"888 1420 LINE",
"794 1420 LINE",
"544 0 LINE"
);
},
{
closed = 1;
nodes = (
"980 0 LINE",
"996 90 LINE",
"571 90 LINE",
"554 0 LINE"
);
},
{
closed = 1;
nodes = (
"1037 666 LINE",
"1053 756 LINE",
"715 756 LINE",
"699 666 LINE"
);
},
{
closed = 1;
nodes = (
"1215 1330 LINE",
"1230 1420 LINE",
"804 1420 LINE",
"789 1330 LINE"
);
},
{
closed = 1;
nodes = (
"70 0 LINE",
"761 1331 LINE",
"799 1331 LINE",
"867 1420 LINE",
"708 1420 LINE",
"-31 0 LINE"
);
},
{
closed = 1;
nodes = (
"658 283 LINE",
"670 373 LINE",
"210 373 LINE",
"198 283 LINE"
);
}
);
width = 1200;
}
);
unicode = 00C6;
},
{
glyphname = B;
layers = (
{
anchors = (
{
name = bottom;
position = "{506, 0}";
},
{
name = top;
position = "{757, 1420}";
}
);
layerId = "7062B15D-7097-4448-A185-D08BD1167FB1";
paths = (
{
closed = 1;
nodes = (
"275 0 LINE",
"525 1420 LINE",
"317 1420 LINE",
"67 0 LINE"
);
},
{
closed = 1;
nodes = (
"627 765 LINE SMOOTH",
"954 765 OFFCURVE",
"1125 880 OFFCURVE",
"1125 1101 CURVE SMOOTH",
"1125 1324 OFFCURVE",
"936 1440 OFFCURVE",
"575 1440 CURVE SMOOTH",
"472 1440 OFFCURVE",
"383 1433 OFFCURVE",
"317 1420 CURVE",
"284 1230 LINE",
"356 1243 OFFCURVE",
"455 1250 OFFCURVE",
"572 1250 CURVE SMOOTH",
"792 1250 OFFCURVE",
"907 1184 OFFCURVE",
"907 1058 CURVE SMOOTH",
"907 919 OFFCURVE",
"801 846 OFFCURVE",
"600 846 CURVE SMOOTH",
"318 846 LINE",
"285 765 LINE"
);
},
{
closed = 1;
nodes = (
"471 0 LINE SMOOTH",
"906 0 OFFCURVE",
"1106 133 OFFCURVE",
"1106 422 CURVE SMOOTH",
"1106 619 OFFCURVE",
"956 736 OFFCURVE",
"701 736 CURVE SMOOTH",
"365 736 LINE",
"376 656 LINE",
"588 656 LINE SMOOTH",
"779 656 OFFCURVE",
"892 579 OFFCURVE",
"892 448 CURVE SMOOTH",
"892 271 OFFCURVE",
"753 190 OFFCURVE",
"451 190 CURVE SMOOTH",
"289 190 LINE",
"255 0 LINE"
);
},
{
closed = 1;
nodes = (
"729 698 LINE",
"746 796 LINE",
"325 796 LINE",
"308 698 LINE"
);
}
);
width = 1200;
},
{
anchors = (
{
name = bottom;
position = "{506, 0}";
},
{
name = top;
position = "{757, 1420}";
}
);
layerId = "84EC96F5-B4D5-4389-883B-FBB110B3398F";
paths = (
{
closed = 1;
nodes = (
"316 0 LINE",
"566 1420 LINE",
"300 1420 LINE",
"50 0 LINE"
);
},
{
closed = 1;
nodes = (
"606 765 LINE SMOOTH",
"960 765 OFFCURVE",
"1144 877 OFFCURVE",
"1144 1091 CURVE SMOOTH",
"1144 1320 OFFCURVE",
"955 1440 OFFCURVE",
"594 1440 CURVE SMOOTH",
"478 1440 OFFCURVE",
"376 1433 OFFCURVE",
"300 1420 CURVE",
"267 1177 LINE",
"357 1190 OFFCURVE",
"479 1197 OFFCURVE",
"621 1197 CURVE SMOOTH",
"782 1197 OFFCURVE",
"867 1146 OFFCURVE",
"867 1048 CURVE SMOOTH",
"867 933 OFFCURVE",
"768 873 OFFCURVE",
"579 873 CURVE SMOOTH",
"301 873 LINE",
"268 765 LINE"
);
},
{
closed = 1;
nodes = (
"450 0 LINE SMOOTH",
"894 0 OFFCURVE",
"1125 145 OFFCURVE",
"1125 422 CURVE SMOOTH",
"1125 628 OFFCURVE",
"972 736 OFFCURVE",
"680 736 CURVE SMOOTH",
"348 736 LINE",
"359 629 LINE",
"567 629 LINE SMOOTH",
"752 629 OFFCURVE",
"848 571 OFFCURVE",
"848 458 CURVE SMOOTH",
"848 317 OFFCURVE",
"705 243 OFFCURVE",
"430 243 CURVE SMOOTH",
"269 243 LINE",
"235 0 LINE"
);
},
{
closed = 1;
nodes = (
"708 698 LINE",
"725 796 LINE",
"308 796 LINE",
"291 698 LINE"
);
}
);
width = 1200;
},
{
anchors = (
{
name = bottom;
position = "{506, 0}";
},
{
name = top;
position = "{757, 1420}";
}
);
layerId = "A4690C19-62E3-4552-AAB4-AF5F97C4421F";
paths = (
{
closed = 1;
nodes = (
"187 0 LINE",
"437 1420 LINE",
"341 1420 LINE",
"91 0 LINE"
);
},
{
closed = 1;
nodes = (
"697 755 LINE SMOOTH",
"964 755 OFFCURVE",
"1103 873 OFFCURVE",
"1103 1101 CURVE SMOOTH",
"1103 1324 OFFCURVE",
"942 1440 OFFCURVE",
"635 1440 CURVE SMOOTH",
"518 1440 OFFCURVE",
"416 1433 OFFCURVE",
"341 1420 CURVE",
"348 1330 LINE",
"419 1343 OFFCURVE",
"517 1350 OFFCURVE",
"632 1350 CURVE SMOOTH",
"878 1350 OFFCURVE",
"1007 1263 OFFCURVE",
"1007 1098 CURVE SMOOTH",
"1007 899 OFFCURVE",
"887 795 OFFCURVE",
"660 795 CURVE SMOOTH",
"298 795 LINE",
"265 755 LINE"
);
},
{
closed = 1;
nodes = (
"521 0 LINE SMOOTH",
"891 0 OFFCURVE",
"1084 145 OFFCURVE",
"1084 422 CURVE SMOOTH",
"1084 626 OFFCURVE",
"940 747 OFFCURVE",
"695 747 CURVE SMOOTH",
"255 747 LINE",
"256 705 LINE",
"648 705 LINE SMOOTH",
"862 705 OFFCURVE",
"988 599 OFFCURVE",
"988 418 CURVE SMOOTH",
"988 202 OFFCURVE",
"835 90 OFFCURVE",
"541 90 CURVE SMOOTH",
"201 90 LINE",
"167 0 LINE"
);
},
{
closed = 1;
nodes = (
"734 708 LINE",
"746 786 LINE",
"305 786 LINE",
"293 708 LINE"
);
}
);
width = 1200;
}
);
unicode = 0042;
},
{
glyphname = C;
layers = (
{
anchors = (
{
name = bottom;
position = "{586, 0}";
},
{
name = top;
position = "{857, 1420}";
}
);
layerId = "7062B15D-7097-4448-A185-D08BD1167FB1";
paths = (
{
closed = 1;
nodes = (
"795 -20 OFFCURVE",
"924 2 OFFCURVE",
"1054 48 CURVE",
"1040 224 LINE",
"922 184 OFFCURVE",
"807 164 OFFCURVE",
"693 164 CURVE SMOOTH",
"445 164 OFFCURVE",
"319 286 OFFCURVE",
"319 530 CURVE SMOOTH",
"319 948 OFFCURVE",
"557 1256 OFFCURVE",
"880 1256 CURVE SMOOTH",
"971 1256 OFFCURVE",
"1043 1218 OFFCURVE",
"1110 1134 CURVE",
"1253 1281 LINE",
"1168 1391 OFFCURVE",
"1061 1440 OFFCURVE",
"909 1440 CURVE SMOOTH",
"434 1440 OFFCURVE",
"105 1063 OFFCURVE",
"105 523 CURVE SMOOTH",
"105 161 OFFCURVE",
"293 -20 OFFCURVE",
"666 -20 CURVE SMOOTH"
);
}
);
width = 1200;
},
{
anchors = (
{
name = bottom;
position = "{586, 0}";
},
{
name = top;
position = "{857, 1420}";
}
);
layerId = "84EC96F5-B4D5-4389-883B-FBB110B3398F";
paths = (
{
closed = 1;
nodes = (
"767 -20 OFFCURVE",
"911 2 OFFCURVE",
"1054 48 CURVE",
"1040 292 LINE",
"922 252 OFFCURVE",
"806 232 OFFCURVE",
"692 232 CURVE SMOOTH",
"475 232 OFFCURVE",
"365 331 OFFCURVE",
"365 530 CURVE SMOOTH",
"365 909 OFFCURVE",
"583 1188 OFFCURVE",
"879 1188 CURVE SMOOTH",
"974 1188 OFFCURVE",
"1050 1153 OFFCURVE",
"1120 1076 CURVE",
"1273 1301 LINE",
"1183 1397 OFFCURVE",
"1069 1440 OFFCURVE",
"908 1440 CURVE SMOOTH",
"423 1440 OFFCURVE",
"87 1063 OFFCURVE",
"87 523 CURVE SMOOTH",
"87 161 OFFCURVE",
"267 -20 OFFCURVE",
"625 -20 CURVE SMOOTH"
);
}
);
width = 1200;
},
{
anchors = (
{
name = bottom;
position = "{586, 0}";
},
{
name = top;
position = "{857, 1420}";
}
);
layerId = "A4690C19-62E3-4552-AAB4-AF5F97C4421F";
paths = (
{
closed = 1;
nodes = (
"794 -20 OFFCURVE",
"923 0 OFFCURVE",
"1052 42 CURVE",
"1040 130 LINE",
"922 90 OFFCURVE",
"807 70 OFFCURVE",
"693 70 CURVE SMOOTH",
"409 70 OFFCURVE",
"219 254 OFFCURVE",
"219 530 CURVE SMOOTH",
"219 1022 OFFCURVE",
"483 1350 OFFCURVE",
"880 1350 CURVE SMOOTH",
"999 1350 OFFCURVE",
"1093 1306 OFFCURVE",
"1180 1210 CURVE",
"1253 1281 LINE",
"1153 1391 OFFCURVE",
"1040 1440 OFFCURVE",
"889 1440 CURVE SMOOTH",
"431 1440 OFFCURVE",
"125 1073 OFFCURVE",
"125 523 CURVE SMOOTH",
"125 197 OFFCURVE",
"341 -20 OFFCURVE",
"666 -20 CURVE SMOOTH"
);
}
);
width = 1200;
}
);
unicode = 0043;
},
{
glyphname = Cstroke;
layers = (
{
anchors = (
{
name = bottom;
position = "{438, -388}";
},
{
name = top;
position = "{871, 1500}";
}
);
components = (
{
name = C;
}
);
layerId = "7062B15D-7097-4448-A185-D08BD1167FB1";
paths = (
{
closed = 1;
nodes = (
"1125 1684 LINE",
"997 1716 LINE",
"265 -306 LINE",
"394 -338 LINE"
);
}
);
width = 1200;
},
{
anchors = (
{
name = bottom;
position = "{438, -388}";
},
{
name = top;
position = "{871, 1500}";
}
);
components = (
{
name = C;
}
);
layerId = "84EC96F5-B4D5-4389-883B-FBB110B3398F";
paths = (
{
closed = 1;
nodes = (
"1145 1662 LINE",
"963 1711 LINE",
"243 -279 LINE",
"426 -328 LINE"
);
}
);
width = 1200;
},
{
anchors = (
{
name = bottom;
position = "{438, -388}";
},
{
name = top;
position = "{871, 1500}";
}
);
components = (
{
name = C;
}
);
layerId = "A4690C19-62E3-4552-AAB4-AF5F97C4421F";
paths = (
{
closed = 1;
nodes = (
"1115 1699 LINE",
"1018 1723 LINE",
"279 -320 LINE",
"366 -340 LINE"
);
}
);
width = 1200;
}
);
unicode = 023B;
},
{
glyphname = D;
layers = (
{
anchors = (
{
name = bottom;
position = "{506, 0}";
},
{
name = center;
position = "{631, 710}";
},
{
name = top;
position = "{717, 1420}";
}
);
layerId = "7062B15D-7097-4448-A185-D08BD1167FB1";
paths = (
{
closed = 1;
nodes = (
"299 0 LINE SMOOTH",
"848 0 OFFCURVE",
"1172 316 OFFCURVE",
"1172 853 CURVE SMOOTH",
"1172 1222 OFFCURVE",
"933 1440 OFFCURVE",
"529 1440 CURVE SMOOTH",
"447 1440 OFFCURVE",
"368 1433 OFFCURVE",
"297 1420 CURVE",
"297 1230 LINE",
"363 1243 OFFCURVE",
"434 1250 OFFCURVE",
"504 1250 CURVE SMOOTH",
"789 1250 OFFCURVE",
"958 1096 OFFCURVE",
"958 835 CURVE SMOOTH",
"958 429 OFFCURVE",
"728 190 OFFCURVE",
"341 190 CURVE SMOOTH",
"262 190 LINE",
"228 0 LINE"
);
},
{
closed = 1;
nodes = (
"255 0 LINE",
"505 1420 LINE",
"297 1420 LINE",
"47 0 LINE"
);
}
);
width = 1200;
},
{
anchors = (
{
name = bottom;
position = "{506, 0}";
},
{
name = center;
position = "{631, 710}";
},
{
name = top;
position = "{717, 1420}";
}
);
layerId = "84EC96F5-B4D5-4389-883B-FBB110B3398F";
paths = (
{
closed = 1;
nodes = (
"311 0 LINE SMOOTH",
"864 0 OFFCURVE",
"1189 316 OFFCURVE",
"1189 853 CURVE SMOOTH",
"1189 1222 OFFCURVE",
"941 1440 OFFCURVE",
"521 1440 CURVE SMOOTH",
"436 1440 OFFCURVE",
"354 1433 OFFCURVE",
"280 1420 CURVE",
"297 1168 LINE",
"361 1181 OFFCURVE",
"429 1188 OFFCURVE",
"496 1188 CURVE SMOOTH",
"758 1188 OFFCURVE",
"912 1057 OFFCURVE",
"912 835 CURVE SMOOTH",
"912 468 OFFCURVE",
"704 252 OFFCURVE",
"353 252 CURVE SMOOTH",
"304 252 LINE",
"270 0 LINE"
);
},
{
closed = 1;
nodes = (
"296 0 LINE",
"544 1420 LINE",
"280 1420 LINE",
"30 0 LINE"
);
}
);
width = 1200;
},
{
anchors = (
{
name = bottom;
position = "{506, 0}";
},
{
name = center;
position = "{631, 710}";
},
{
name = top;
position = "{717, 1420}";
}
);
layerId = "A4690C19-62E3-4552-AAB4-AF5F97C4421F";
paths = (
{
closed = 1;
nodes = (
"299 0 LINE SMOOTH",
"835 0 OFFCURVE",
"1151 316 OFFCURVE",
"1151 853 CURVE SMOOTH",
"1151 1222 OFFCURVE",
"924 1440 OFFCURVE",
"539 1440 CURVE SMOOTH",
"458 1440 OFFCURVE",
"381 1433 OFFCURVE",
"311 1420 CURVE",
"297 1330 LINE",
"366 1343 OFFCURVE",
"441 1350 OFFCURVE",
"514 1350 CURVE SMOOTH",
"854 1350 OFFCURVE",
"1055 1174 OFFCURVE",
"1055 875 CURVE SMOOTH",
"1055 381 OFFCURVE",
"777 90 OFFCURVE",
"309 90 CURVE SMOOTH",
"131 90 LINE",
"129 0 LINE"
);
},
{
closed = 1;
nodes = (
"156 0 LINE",
"406 1420 LINE",
"311 1420 LINE",
"61 0 LINE"
);
}
);
width = 1200;
}
);
unicode = 0044;
},
{
glyphname = Eth;
layers = (
{
components = (
{
name = D;
}
);
layerId = "7062B15D-7097-4448-A185-D08BD1167FB1";
paths = (
{
closed = 1;
nodes = (
"665 612 LINE",
"699 802 LINE",
"60 802 LINE",
"26 612 LINE"
);
}
);
width = 1200;
},
{
components = (
{
name = D;
}
);
layerId = "84EC96F5-B4D5-4389-883B-FBB110B3398F";
paths = (
{
closed = 1;
nodes = (
"661 585 LINE",
"705 829 LINE",
"66 829 LINE",
"22 585 LINE"
);
}
);
width = 1200;
},
{
components = (
{
name = D;
}
);
layerId = "A4690C19-62E3-4552-AAB4-AF5F97C4421F";
paths = (
{
closed = 1;
nodes = (
"674 662 LINE",
"690 752 LINE",
"51 752 LINE",
"35 662 LINE"
);
}
);
width = 1200;
}
);
unicode = 00D0;
},
{
glyphname = E;
layers = (
{
anchors = (
{
name = bottom;
position = "{546, 0}";
},
{
name = ogonek;
position = "{942, 10}";
},
{
name = top;
position = "{797, 1420}";
},
{
name = topleft;
position = "{182, 1420}";
}
);
layerId = "7062B15D-7097-4448-A185-D08BD1167FB1";
paths = (
{
closed = 1;
nodes = (
"276 0 LINE",
"526 1420 LINE",
"317 1420 LINE",
"67 0 LINE"
);
},
{
closed = 1;
nodes = (
"1006 0 LINE",
"1039 190 LINE",
"101 190 LINE",
"67 0 LINE"
);
},
{
closed = 1;
nodes = (
"935 616 LINE",
"968 806 LINE",
"209 806 LINE",
"176 616 LINE"
);
},
{
closed = 1;
nodes = (
"1223 1230 LINE",
"1256 1420 LINE",
"317 1420 LINE",
"284 1230 LINE"
);
}
);
width = 1200;
},
{
anchors = (
{
name = bottom;
position = "{546, 0}";
},
{
name = ogonek;
position = "{942, 10}";
},
{
name = top;
position = "{797, 1420}";
},
{
name = topleft;
position = "{182, 1420}";
}
);
layerId = "84EC96F5-B4D5-4389-883B-FBB110B3398F";
paths = (
{
closed = 1;
nodes = (
"316 0 LINE",
"566 1420 LINE",
"300 1420 LINE",
"50 0 LINE"
);
},
{
closed = 1;
nodes = (
"1024 0 LINE",
"1067 244 LINE",
"94 244 LINE",
"50 0 LINE"
);
},
{
closed = 1;
nodes = (
"948 589 LINE",
"991 833 LINE",
"197 833 LINE",
"154 589 LINE"
);
},
{
closed = 1;
nodes = (
"1231 1176 LINE",
"1274 1420 LINE",
"300 1420 LINE",
"257 1176 LINE"
);
}
);
width = 1200;
},
{
anchors = (
{
name = bottom;
position = "{526, 0}";
},
{
name = ogonek;
position = "{942, 10}";
},
{
name = top;
position = "{777, 1420}";
},
{
name = topleft;
position = "{182, 1420}";
}
);
guideLines = (
{
angle = 80;
position = "{897, -480}";
},
{
angle = 80;
position = "{718, -480}";
}
);
layerId = "A4690C19-62E3-4552-AAB4-AF5F97C4421F";
paths = (
{
closed = 1;
nodes = (
"187 0 LINE",
"437 1420 LINE",
"341 1420 LINE",
"91 0 LINE"
);
},
{
closed = 1;
nodes = (
"982 0 LINE",
"997 90 LINE",
"107 90 LINE",
"91 0 LINE"
);
},
{
closed = 1;
nodes = (
"920 666 LINE",
"936 756 LINE",
"233 756 LINE",
"216 666 LINE"
);
},
{
closed = 1;
nodes = (
"1216 1330 LINE",
"1232 1420 LINE",
"341 1420 LINE",
"325 1330 LINE"
);
}
);
width = 1200;
}
);
unicode = 0045;
},
{
glyphname = Eogonek;
layers = (
{
anchors = (
{
name = bottom;
position = "{438, -388}";
}
);
components = (
{
name = E;
}
);
layerId = "7062B15D-7097-4448-A185-D08BD1167FB1";
paths = (
{
closed = 1;
nodes = (
"836 -424 OFFCURVE",
"887 -413 OFFCURVE",
"935 -391 CURVE",
"903 -232 LINE",
"872 -248 OFFCURVE",
"840 -256 OFFCURVE",
"811 -256 CURVE SMOOTH",
"755 -256 OFFCURVE",
"725 -227 OFFCURVE",
"725 -173 CURVE SMOOTH",
"725 -63 OFFCURVE",
"878 0 OFFCURVE",
"1006 0 CURVE",
"968 30 LINE",
"738 27 LINE",
"738 -23 LINE",
"635 -64 OFFCURVE",
"575 -145 OFFCURVE",
"575 -242 CURVE SMOOTH",
"575 -364 OFFCURVE",
"647 -424 OFFCURVE",
"785 -424 CURVE SMOOTH"
);
}
);
width = 1200;
},
{
anchors = (
{
name = bottom;
position = "{438, -388}";
}
);
components = (
{
name = E;
}
);
layerId = "84EC96F5-B4D5-4389-883B-FBB110B3398F";
paths = (
{
closed = 1;
nodes = (
"839 -424 OFFCURVE",
"904 -408 OFFCURVE",
"950 -386 CURVE",
"908 -172 LINE",
"885 -180 OFFCURVE",
"861 -185 OFFCURVE",
"840 -185 CURVE SMOOTH",
"801 -185 OFFCURVE",
"781 -170 OFFCURVE",
"781 -142 CURVE SMOOTH",
"781 -77 OFFCURVE",
"897 -33 OFFCURVE",
"1024 0 CURVE",
"985 30 LINE",
"775 17 LINE",
"775 -33 LINE",
"642 -75 OFFCURVE",
"564 -157 OFFCURVE",
"564 -255 CURVE SMOOTH",
"564 -368 OFFCURVE",
"639 -424 OFFCURVE",
"783 -424 CURVE SMOOTH"
);
}
);
width = 1200;
},
{
anchors = (
{
name = bottom;
position = "{438, -388}";
}
);
components = (
{
name = E;
}
);
layerId = "A4690C19-62E3-4552-AAB4-AF5F97C4421F";
paths = (
{
closed = 1;
nodes = (
"839 -423 OFFCURVE",
"881 -417 OFFCURVE",
"910 -405 CURVE",
"897 -322 LINE",
"877 -329 OFFCURVE",
"846 -336 OFFCURVE",
"812 -336 CURVE SMOOTH",
"735 -336 OFFCURVE",
"693 -301 OFFCURVE",
"693 -234 CURVE SMOOTH",
"693 -94 OFFCURVE",
"846 0 OFFCURVE",
"981 0 CURVE",
"896 34 LINE",
"776 52 LINE",
"776 -6 LINE",
"666 -63 OFFCURVE",
"599 -155 OFFCURVE",
"599 -254 CURVE SMOOTH",
"599 -364 OFFCURVE",
"667 -423 OFFCURVE",
"796 -423 CURVE SMOOTH"
);
}
);
width = 1200;
}
);
unicode = 0118;
},
{
glyphname = Eopen;
production = uni0190;
layers = (
{
anchors = (
{
name = bottom;
position = "{506, 0}";
},
{
name = top;
position = "{757, 1420}";
}
);
layerId = "7062B15D-7097-4448-A185-D08BD1167FB1";
paths = (
{
closed = 1;
nodes = (
"526 1440 OFFCURVE",
"278 1311 OFFCURVE",
"278 1029 CURVE SMOOTH",
"278 892 OFFCURVE",
"369 794 OFFCURVE",
"587 763 CURVE",
"580 819 LINE",
"560 702 LINE",
"586 756 LINE",
"279 750 OFFCURVE",
"97 593 OFFCURVE",
"97 332 CURVE SMOOTH",
"97 116 OFFCURVE",
"274 -20 OFFCURVE",
"577 -20 CURVE SMOOTH",
"775 -20 OFFCURVE",
"878 -4 OFFCURVE",
"1015 48 CURVE",
"1000 222 LINE",
"847 176 OFFCURVE",
"768 164 OFFCURVE",
"605 164 CURVE SMOOTH",
"419 164 OFFCURVE",
"312 240 OFFCURVE",
"312 368 CURVE SMOOTH",
"312 553 OFFCURVE",
"480 652 OFFCURVE",
"688 652 CURVE SMOOTH",
"859 652 LINE",
"893 840 LINE",
"600 849 OFFCURVE",
"478 905 OFFCURVE",
"478 1023 CURVE SMOOTH",
"478 1180 OFFCURVE",
"627 1256 OFFCURVE",
"819 1256 CURVE SMOOTH",
"943 1256 OFFCURVE",
"1023 1217 OFFCURVE",
"1105 1129 CURVE",
"1254 1281 LINE",
"1146 1390 OFFCURVE",
"1019 1440 OFFCURVE",
"851 1440 CURVE SMOOTH"
);
}
);
width = 1200;
},
{
anchors = (
{
name = bottom;
position = "{506, 0}";
},
{
name = top;
position = "{757, 1420}";
}
);
layerId = "84EC96F5-B4D5-4389-883B-FBB110B3398F";
paths = (
{
closed = 1;
nodes = (
"518 1440 OFFCURVE",
"260 1314 OFFCURVE",
"260 1029 CURVE SMOOTH",
"260 892 OFFCURVE",
"351 794 OFFCURVE",
"569 763 CURVE",
"562 819 LINE",
"542 702 LINE",
"568 756 LINE",
"305 751 OFFCURVE",
"80 587 OFFCURVE",
"80 344 CURVE SMOOTH",
"80 121 OFFCURVE",
"263 -20 OFFCURVE",
"576 -20 CURVE SMOOTH",
"782 -20 OFFCURVE",
"889 -4 OFFCURVE",
"1031 48 CURVE",
"1006 280 LINE",
"855 242 OFFCURVE",
"777 232 OFFCURVE",
"616 232 CURVE SMOOTH",
"457 232 OFFCURVE",
"364 289 OFFCURVE",
"364 386 CURVE SMOOTH",
"364 534 OFFCURVE",
"511 620 OFFCURVE",
"681 620 CURVE SMOOTH",
"835 620 LINE",
"878 872 LINE",
"632 879 OFFCURVE",
"529 927 OFFCURVE",
"529 1028 CURVE SMOOTH",
"529 1149 OFFCURVE",
"656 1189 OFFCURVE",
"806 1189 CURVE SMOOTH",
"921 1189 OFFCURVE",
"1006 1158 OFFCURVE",
"1077 1089 CURVE",
"1276 1278 LINE",
"1157 1389 OFFCURVE",
"1023 1440 OFFCURVE",
"850 1440 CURVE SMOOTH"
);
}
);
width = 1200;
},
{
anchors = (
{
name = bottom;
position = "{506, 0}";
},
{
name = top;
position = "{757, 1420}";
}
);
layerId = "A4690C19-62E3-4552-AAB4-AF5F97C4421F";
paths = (
{
closed = 1;
nodes = (
"539 1440 OFFCURVE",
"301 1304 OFFCURVE",
"301 1041 CURVE SMOOTH",
"301 894 OFFCURVE",
"384 783 OFFCURVE",
"586 758 CURVE",
"580 819 LINE",
"560 702 LINE",
"585 751 LINE",
"303 745 OFFCURVE",
"115 576 OFFCURVE",
"115 327 CURVE SMOOTH",
"115 108 OFFCURVE",
"281 -20 OFFCURVE",
"577 -20 CURVE SMOOTH",
"764 -20 OFFCURVE",
"861 -4 OFFCURVE",
"991 48 CURVE",
"983 137 LINE",
"830 84 OFFCURVE",
"750 70 OFFCURVE",
"588 70 CURVE SMOOTH",
"349 70 OFFCURVE",
"214 171 OFFCURVE",
"214 344 CURVE SMOOTH",
"214 559 OFFCURVE",
"407 702 OFFCURVE",
"697 702 CURVE SMOOTH",
"887 702 LINE",
"904 790 LINE",
"546 803 OFFCURVE",
"396 880 OFFCURVE",
"396 1045 CURVE SMOOTH",
"396 1245 OFFCURVE",
"585 1350 OFFCURVE",
"826 1350 CURVE SMOOTH",
"974 1350 OFFCURVE",
"1096 1310 OFFCURVE",
"1166 1214 CURVE",
"1240 1286 LINE",
"1176 1374 OFFCURVE",
"1033 1440 OFFCURVE",
"841 1440 CURVE SMOOTH"
);
}
);
width = 1200;
}
);
unicode = 0190;
},
{
glyphname = Ereversed;
layers = (
{
anchors = (
{
name = bottom;
position = "{506, 0}";
},
{
name = top;
position = "{757, 1420}";
},
{
name = topright;
position = "{1364, 1420}";
}
);
layerId = "7062B15D-7097-4448-A185-D08BD1167FB1";
paths = (
{
closed = 1;
nodes = (
"947 0 LINE",
"1197 1420 LINE",
"988 1420 LINE",
"738 0 LINE"
);
},
{
closed = 1;
nodes = (
"947 0 LINE",
"980 190 LINE",
"40 190 LINE",
"7 0 LINE"
);
},
{
closed = 1;
nodes = (
"1055 614 LINE",
"1088 804 LINE",
"328 804 LINE",
"295 614 LINE"
);
},
{
closed = 1;
nodes = (
"1163 1230 LINE",
"1197 1420 LINE",
"257 1420 LINE",
"224 1230 LINE"
);
}
);
width = 1200;
},
{
anchors = (
{
name = bottom;
position = "{506, 0}";
},
{
name = top;
position = "{757, 1420}";
},
{
name = topright;
position = "{1364, 1420}";
}
);
layerId = "84EC96F5-B4D5-4389-883B-FBB110B3398F";
paths = (
{
closed = 1;
nodes = (
"964 0 LINE",
"1214 1420 LINE",
"948 1420 LINE",
"698 0 LINE"
);
},
{
closed = 1;
nodes = (
"964 0 LINE",
"1007 244 LINE",
"33 244 LINE",
"-10 0 LINE"
);
},
{
closed = 1;
nodes = (
"1067 587 LINE",
"1110 831 LINE",
"316 831 LINE",
"273 587 LINE"
);
},
{
closed = 1;
nodes = (
"1170 1176 LINE",
"1214 1420 LINE",
"240 1420 LINE",
"197 1176 LINE"
);
}
);
width = 1200;
},
{
anchors = (
{
name = bottom;
position = "{506, 0}";
},
{
name = top;
position = "{757, 1420}";
},
{
name = topright;
position = "{1364, 1420}";
}
);
layerId = "A4690C19-62E3-4552-AAB4-AF5F97C4421F";
paths = (
{
closed = 1;
nodes = (
"922 0 LINE",
"1172 1420 LINE",
"1076 1420 LINE",
"826 0 LINE"
);
},
{
closed = 1;
nodes = (
"922 0 LINE",
"938 90 LINE",
"47 90 LINE",
"31 0 LINE"
);
},
{
closed = 1;
nodes = (
"1030 664 LINE",
"1047 754 LINE",
"343 754 LINE",
"327 664 LINE"
);
},
{
closed = 1;
nodes = (
"1156 1330 LINE",
"1172 1420 LINE",
"281 1420 LINE",
"266 1330 LINE"
);
}
);
width = 1200;
}
);
unicode = 018E;
},
{
glyphname = Ezh;
production = uni01B7;
layers = (
{
anchors = (
{
name = bottom;
position = "{506, 0}";
},
{
name = top;
position = "{757, 1420}";
}
);
layerId = "7062B15D-7097-4448-A185-D08BD1167FB1";
paths = (
{
closed = 1;
nodes = (
"842 -20 OFFCURVE",
"1069 159 OFFCURVE",
"1069 461 CURVE SMOOTH",
"1069 689 OFFCURVE",
"904 821 OFFCURVE",
"606 826 CURVE",
"619 783 LINE",
"1138 1219 LINE",
"1103 1420 LINE",
"320 1420 LINE",
"287 1234 LINE",
"964 1234 LINE",
"956 1295 LINE",
"366 796 LINE",
"384 672 LINE",
"499 672 LINE SMOOTH",
"729 672 OFFCURVE",
"856 593 OFFCURVE",
"856 452 CURVE SMOOTH",
"856 269 OFFCURVE",
"700 164 OFFCURVE",
"496 164 CURVE SMOOTH",
"364 164 OFFCURVE",
"257 212 OFFCURVE",
"154 294 CURVE",
"17 141 LINE",
"124 40 OFFCURVE",
"269 -20 OFFCURVE",
"459 -20 CURVE SMOOTH"
);
}
);
width = 1200;
},
{
anchors = (
{
name = bottom;
position = "{506, 0}";
},
{
name = top;
position = "{757, 1420}";
}
);
layerId = "84EC96F5-B4D5-4389-883B-FBB110B3398F";
paths = (
{
closed = 1;
nodes = (
"854 -20 OFFCURVE",
"1087 163 OFFCURVE",
"1087 472 CURVE SMOOTH",
"1087 717 OFFCURVE",
"919 859 OFFCURVE",
"613 864 CURVE",
"723 821 LINE",
"1144 1162 LINE",
"1090 1420 LINE",
"303 1420 LINE",
"260 1177 LINE",
"954 1177 LINE",
"873 1238 LINE",
"373 834 LINE",
"406 626 LINE",
"491 626 LINE SMOOTH",
"694 626 OFFCURVE",
"806 564 OFFCURVE",
"806 454 CURVE SMOOTH",
"806 314 OFFCURVE",
"695 232 OFFCURVE",
"508 232 CURVE SMOOTH",
"377 232 OFFCURVE",
"269 272 OFFCURVE",
"163 359 CURVE",
"-10 151 LINE",
"104 34 OFFCURVE",
"252 -20 OFFCURVE",
"459 -20 CURVE SMOOTH"
);
}
);
width = 1200;
},
{
anchors = (
{
name = bottom;
position = "{506, 0}";
},
{
name = top;
position = "{757, 1420}";
}
);
layerId = "A4690C19-62E3-4552-AAB4-AF5F97C4421F";
paths = (
{
closed = 1;
nodes = (
"795 -20 OFFCURVE",
"1039 147 OFFCURVE",
"1039 437 CURVE SMOOTH",
"1039 669 OFFCURVE",
"854 787 OFFCURVE",
"480 793 CURVE",
"483 752 LINE",
"1131 1317 LINE",
"1115 1420 LINE",
"344 1420 LINE",
"328 1330 LINE",
"1061 1330 LINE",
"1083 1391 LINE",
"364 765 LINE",
"373 703 LINE",
"465 703 LINE SMOOTH",
"783 703 OFFCURVE",
"942 614 OFFCURVE",
"942 434 CURVE SMOOTH",
"942 204 OFFCURVE",
"749 70 OFFCURVE",
"490 70 CURVE SMOOTH",
"334 70 OFFCURVE",
"204 121 OFFCURVE",
"110 218 CURVE",
"44 148 LINE",
"156 38 OFFCURVE",
"302 -20 OFFCURVE",
"469 -20 CURVE SMOOTH"
);
}
);
width = 1200;
}
);
unicode = 01B7;
},
{
glyphname = F;
layers = (
{
anchors = (
{
name = bottom;
position = "{506, 0}";
},
{
name = top;
position = "{757, 1420}";
}
);
layerId = "7062B15D-7097-4448-A185-D08BD1167FB1";
paths = (
{
closed = 1;
nodes = (
"295 0 LINE",
"545 1420 LINE",
"337 1420 LINE",
"87 0 LINE"
);
},
{
closed = 1;
nodes = (
"944 556 LINE",
"977 746 LINE",
"279 746 LINE",
"245 556 LINE"
);
},
{
closed = 1;
nodes = (
"1243 1230 LINE",
"1276 1420 LINE",
"337 1420 LINE",
"304 1230 LINE"
);
}
);
width = 1200;
},
{
anchors = (
{
name = bottom;
position = "{506, 0}";
},
{
name = top;
position = "{757, 1420}";
}
);
layerId = "84EC96F5-B4D5-4389-883B-FBB110B3398F";
paths = (
{
closed = 1;
nodes = (
"336 0 LINE",
"586 1420 LINE",
"320 1420 LINE",
"70 0 LINE"
);
},
{
closed = 1;
nodes = (
"957 529 LINE",
"1000 774 LINE",
"267 774 LINE",
"223 529 LINE"
);
},
{
closed = 1;
nodes = (
"1251 1176 LINE",
"1294 1420 LINE",
"320 1420 LINE",
"277 1176 LINE"
);
}
);
width = 1200;
},
{
anchors = (
{
name = bottom;
position = "{506, 0}";
},
{
name = top;
position = "{757, 1420}";
}
);
guideLines = (
{
angle = 80;
position = "{941, -480}";
},
{
angle = 80;
position = "{761, -480}";
}
);
layerId = "A4690C19-62E3-4552-AAB4-AF5F97C4421F";
paths = (
{
closed = 1;
nodes = (
"207 0 LINE",
"457 1420 LINE",
"361 1420 LINE",
"111 0 LINE"
);
},
{
closed = 1;
nodes = (
"952 606 LINE",
"968 696 LINE",
"270 696 LINE",
"253 606 LINE"
);
},
{
closed = 1;
nodes = (
"1260 1330 LINE",
"1276 1420 LINE",
"361 1420 LINE",
"345 1330 LINE"
);
}
);
width = 1200;
}
);
unicode = 0046;
},
{
glyphname = Fhook;
layers = (
{
anchors = (
{
name = bottom;
position = "{438, -388}";
}
);
components = (
{
name = F;
}
);
layerId = "A4690C19-62E3-4552-AAB4-AF5F97C4421F";
paths = (
{
closed = 1;
nodes = (
"105 -33 LINE SMOOTH",
"68 -238 OFFCURVE",
"1 -342 OFFCURVE",
"-182 -376 CURVE SMOOTH",
"-225 -384 LINE",
"-219 -476 LINE",
"-188 -472 LINE SMOOTH",
"61 -440 OFFCURVE",
"154 -308 OFFCURVE",
"206 -6 CURVE SMOOTH",
"233 151 LINE",
"138 151 LINE"
);
}
);
width = 1200;
},
{
anchors = (
{
name = bottom;
position = "{438, -388}";
}
);
components = (
{
name = F;
}
);
layerId = "7062B15D-7097-4448-A185-D08BD1167FB1";
paths = (
{
closed = 1;
nodes = (
"81 -33 LINE SMOOTH",
"56 -174 OFFCURVE",
"-19 -234 OFFCURVE",
"-192 -266 CURVE SMOOTH",
"-235 -274 LINE",
"-219 -476 LINE",
"-188 -472 LINE SMOOTH",
"116 -433 OFFCURVE",
"242 -310 OFFCURVE",
"294 -6 CURVE SMOOTH",
"321 151 LINE",
"114 151 LINE"
);
}
);
width = 1200;
},
{
anchors = (
{
name = bottom;
position = "{438, -388}";
}
);
components = (
{
name = F;
}
);
layerId = "84EC96F5-B4D5-4389-883B-FBB110B3398F";
paths = (
{
closed = 1;
nodes = (
"64 -33 LINE SMOOTH",
"41 -162 OFFCURVE",
"-30 -216 OFFCURVE",
"-191 -246 CURVE SMOOTH",
"-234 -254 LINE",
"-218 -476 LINE",
"-187 -472 LINE SMOOTH",
"142 -430 OFFCURVE",
"283 -311 OFFCURVE",
"335 -6 CURVE SMOOTH",
"362 151 LINE",
"97 151 LINE"
);
}
);
width = 1200;
}
);
unicode = 0191;
},
{
glyphname = G;
layers = (
{
anchors = (
{
name = bottom;
position = "{586, 0}";
},
{
name = top;
position = "{857, 1420}";
}
);
layerId = "7062B15D-7097-4448-A185-D08BD1167FB1";
paths = (
{
closed = 1;
nodes = (
"777 -20 OFFCURVE",
"942 22 OFFCURVE",
"1003 40 CURVE",
"956 214 LINE",
"885 196 OFFCURVE",
"773 164 OFFCURVE",
"637 164 CURVE SMOOTH",
"412 164 OFFCURVE",
"297 289 OFFCURVE",
"297 539 CURVE SMOOTH",
"297 959 OFFCURVE",
"532 1256 OFFCURVE",
"840 1256 CURVE SMOOTH",
"951 1256 OFFCURVE",
"1034 1198 OFFCURVE",
"1094 1124 CURVE",
"1249 1262 LINE",
"1177 1365 OFFCURVE",
"1069 1440 OFFCURVE",
"880 1440 CURVE SMOOTH",
"390 1440 OFFCURVE",
"83 1046 OFFCURVE",
"83 513 CURVE SMOOTH",
"83 178 OFFCURVE",
"272 -20 OFFCURVE",
"591 -20 CURVE SMOOTH"
);
},
{
closed = 1;
nodes = (
"1003 40 LINE",
"1121 710 LINE",
"913 710 LINE",
"795 40 LINE"
);
},
{
closed = 1;
nodes = (
"1082 520 LINE",
"1115 710 LINE",
"644 710 LINE",
"611 520 LINE"
);
}
);
width = 1200;
},
{
anchors = (
{
name = bottom;
position = "{586, 0}";
},
{
name = top;
position = "{857, 1420}";
}
);
layerId = "84EC96F5-B4D5-4389-883B-FBB110B3398F";
paths = (
{
closed = 1;
nodes = (
"796 -20 OFFCURVE",
"974 22 OFFCURVE",
"1040 40 CURVE",
"980 282 LINE",
"905 264 OFFCURVE",
"785 232 OFFCURVE",
"640 232 CURVE SMOOTH",
"443 232 OFFCURVE",
"343 334 OFFCURVE",
"343 539 CURVE SMOOTH",
"343 919 OFFCURVE",
"564 1188 OFFCURVE",
"853 1188 CURVE SMOOTH",
"970 1188 OFFCURVE",
"1055 1139 OFFCURVE",
"1118 1076 CURVE",
"1273 1299 LINE",
"1197 1381 OFFCURVE",
"1083 1440 OFFCURVE",
"883 1440 CURVE SMOOTH",
"381 1440 OFFCURVE",
"66 1046 OFFCURVE",
"66 513 CURVE SMOOTH",
"66 178 OFFCURVE",
"262 -20 OFFCURVE",
"594 -20 CURVE SMOOTH"
);
},
{
closed = 1;
nodes = (
"1040 40 LINE",
"1163 735 LINE",
"897 735 LINE",
"774 40 LINE"
);
},
{
closed = 1;
nodes = (
"1114 492 LINE",
"1157 735 LINE",
"667 735 LINE",
"624 492 LINE"
);
}
);
width = 1200;
},
{
anchors = (
{
name = bottom;
position = "{586, 0}";
},
{
name = top;
position = "{857, 1420}";
}
);
guideLines = (
{
angle = 80;
position = "{427, -460}";
}
);
layerId = "A4690C19-62E3-4552-AAB4-AF5F97C4421F";
paths = (
{
closed = 1;
nodes = (
"788 -20 OFFCURVE",
"945 22 OFFCURVE",
"1003 40 CURVE",
"976 130 LINE",
"905 108 OFFCURVE",
"793 70 OFFCURVE",
"657 70 CURVE SMOOTH",
"351 70 OFFCURVE",
"195 226 OFFCURVE",
"195 539 CURVE SMOOTH",
"195 1014 OFFCURVE",
"474 1350 OFFCURVE",
"840 1350 CURVE SMOOTH",
"983 1350 OFFCURVE",
"1076 1309 OFFCURVE",
"1164 1207 CURVE",
"1239 1272 LINE",
"1158 1373 OFFCURVE",
"1019 1440 OFFCURVE",
"860 1440 CURVE SMOOTH",
"393 1440 OFFCURVE",
"99 1050 OFFCURVE",
"99 523 CURVE SMOOTH",
"99 182 OFFCURVE",
"289 -20 OFFCURVE",
"611 -20 CURVE SMOOTH"
);
},
{
closed = 1;
nodes = (
"1003 40 LINE",
"1112 660 LINE",
"1016 660 LINE",
"907 40 LINE"
);
},
{
closed = 1;
nodes = (
"1073 570 LINE",
"1106 660 LINE",
"635 660 LINE",
"620 570 LINE"
);
}
);
width = 1200;
}
);
unicode = 0047;
},
{
glyphname = Gstroke;
layers = (
{
anchors = (
{
name = bottom;
position = "{586, 0}";
},
{
name = top;
position = "{857, 1420}";
}
);
layerId = "7062B15D-7097-4448-A185-D08BD1167FB1";
paths = (
{
closed = 1;
nodes = (
"777 -20 OFFCURVE",
"942 22 OFFCURVE",
"1003 40 CURVE",
"956 214 LINE",
"885 196 OFFCURVE",
"773 164 OFFCURVE",
"637 164 CURVE SMOOTH",
"412 164 OFFCURVE",
"297 289 OFFCURVE",
"297 539 CURVE SMOOTH",
"297 959 OFFCURVE",
"532 1256 OFFCURVE",
"840 1256 CURVE SMOOTH",
"951 1256 OFFCURVE",
"1034 1198 OFFCURVE",
"1094 1124 CURVE",
"1249 1262 LINE",
"1177 1365 OFFCURVE",
"1069 1440 OFFCURVE",
"880 1440 CURVE SMOOTH",
"390 1440 OFFCURVE",
"83 1046 OFFCURVE",
"83 513 CURVE SMOOTH",
"83 178 OFFCURVE",
"272 -20 OFFCURVE",
"591 -20 CURVE SMOOTH"
);
},
{
closed = 1;
nodes = (
"1003 40 LINE",
"1121 710 LINE",
"913 710 LINE",
"795 40 LINE"
);
},
{
closed = 1;
nodes = (
"1172 370 LINE",
"1205 560 LINE",
"644 560 LINE",
"611 370 LINE"
);
}
);
width = 1200;
},
{
anchors = (
{
name = bottom;
position = "{586, 0}";
},
{
name = top;
position = "{857, 1420}";
}
);
layerId = "84EC96F5-B4D5-4389-883B-FBB110B3398F";
paths = (
{
closed = 1;
nodes = (
"796 -20 OFFCURVE",
"974 22 OFFCURVE",
"1040 40 CURVE",
"980 282 LINE",
"905 264 OFFCURVE",
"785 232 OFFCURVE",
"640 232 CURVE SMOOTH",
"443 232 OFFCURVE",
"343 334 OFFCURVE",
"343 539 CURVE SMOOTH",
"343 919 OFFCURVE",
"564 1188 OFFCURVE",
"853 1188 CURVE SMOOTH",
"970 1188 OFFCURVE",
"1055 1139 OFFCURVE",
"1118 1076 CURVE",
"1273 1299 LINE",
"1197 1381 OFFCURVE",
"1083 1440 OFFCURVE",
"883 1440 CURVE SMOOTH",
"381 1440 OFFCURVE",
"66 1046 OFFCURVE",
"66 513 CURVE SMOOTH",
"66 178 OFFCURVE",
"262 -20 OFFCURVE",
"594 -20 CURVE SMOOTH"
);
},
{
closed = 1;
nodes = (
"1040 40 LINE",
"1163 735 LINE",
"897 735 LINE",
"774 40 LINE"
);
},
{
closed = 1;
nodes = (
"1195 387 LINE",
"1238 630 LINE",
"658 630 LINE",
"615 387 LINE"
);
}
);
width = 1200;
},
{
anchors = (
{
name = bottom;
position = "{586, 0}";
},
{
name = top;
position = "{857, 1420}";
}
);
layerId = "A4690C19-62E3-4552-AAB4-AF5F97C4421F";
paths = (
{
closed = 1;
nodes = (
"788 -20 OFFCURVE",
"945 22 OFFCURVE",
"1003 40 CURVE",
"976 130 LINE",
"905 108 OFFCURVE",
"793 70 OFFCURVE",
"657 70 CURVE SMOOTH",
"351 70 OFFCURVE",
"195 226 OFFCURVE",
"195 539 CURVE SMOOTH",
"195 1014 OFFCURVE",
"474 1350 OFFCURVE",
"840 1350 CURVE SMOOTH",
"983 1350 OFFCURVE",
"1076 1309 OFFCURVE",
"1164 1207 CURVE",
"1239 1272 LINE",
"1158 1373 OFFCURVE",
"1019 1440 OFFCURVE",
"860 1440 CURVE SMOOTH",
"393 1440 OFFCURVE",
"99 1050 OFFCURVE",
"99 523 CURVE SMOOTH",
"99 182 OFFCURVE",
"289 -20 OFFCURVE",
"611 -20 CURVE SMOOTH"
);
},
{
closed = 1;
nodes = (
"1003 40 LINE",
"1112 660 LINE",
"1016 660 LINE",
"907 40 LINE"
);
},
{
closed = 1;
nodes = (
"1182 424 LINE",
"1197 512 LINE",
"627 512 LINE",
"612 424 LINE"
);
}
);
width = 1200;
}
);
unicode = 01E4;
},
{
glyphname = H;
layers = (
{
anchors = (
{
name = bottom;
position = "{506, 0}";
},
{
name = center;
position = "{634, 710}";
},
{
name = top;
position = "{757, 1420}";
},
{
name = topleft;
position = "{177, 1420}";
}
);
layerId = "7062B15D-7097-4448-A185-D08BD1167FB1";
paths = (
{
closed = 1;
nodes = (
"967 0 LINE",
"1217 1420 LINE",
"1009 1420 LINE",
"759 0 LINE"
);
},
{
closed = 1;
nodes = (
"255 0 LINE",
"505 1420 LINE",
"297 1420 LINE",
"47 0 LINE"
);
},
{
closed = 1;
nodes = (
"1038 612 LINE",
"1071 802 LINE",
"230 802 LINE",
"197 612 LINE"
);
}
);
width = 1200;
},
{
anchors = (
{
name = bottom;
position = "{506, 0}";
},
{
name = center;
position = "{634, 710}";
},
{
name = top;
position = "{757, 1420}";
},
{
name = topleft;
position = "{177, 1420}";
}
);
layerId = "84EC96F5-B4D5-4389-883B-FBB110B3398F";
paths = (
{
closed = 1;
nodes = (
"984 0 LINE",
"1234 1420 LINE",
"968 1420 LINE",
"718 0 LINE"
);
},
{
closed = 1;
nodes = (
"296 0 LINE",
"546 1420 LINE",
"280 1420 LINE",
"30 0 LINE"
);
},
{
closed = 1;
nodes = (
"1023 585 LINE",
"1056 829 LINE",
"245 829 LINE",
"212 585 LINE"
);
}
);
width = 1200;
},
{
anchors = (
{
name = bottom;
position = "{506, 0}";
},
{
name = center;
position = "{634, 710}";
},
{
name = top;
position = "{757, 1420}";
},
{
name = topleft;
position = "{177, 1420}";
}
);
layerId = "A4690C19-62E3-4552-AAB4-AF5F97C4421F";
paths = (
{
closed = 1;
nodes = (
"943 0 LINE",
"1193 1420 LINE",
"1097 1420 LINE",
"847 0 LINE"
);
},
{
closed = 1;
nodes = (
"167 0 LINE",
"417 1420 LINE",
"321 1420 LINE",
"71 0 LINE"
);
},
{
closed = 1;
nodes = (
"1013 662 LINE",
"1033 752 LINE",
"250 752 LINE",
"230 662 LINE"
);
}
);
width = 1200;
}
);
unicode = 0048;
},
{
glyphname = Hbar;
layers = (
{
components = (
{
name = H;
}
);
layerId = "7062B15D-7097-4448-A185-D08BD1167FB1";
paths = (
{
closed = 1;
nodes = (
"1241 1002 LINE",
"1275 1192 LINE",
"159 1192 LINE",
"125 1002 LINE"
);
}
);
width = 1200;
},
{
components = (
{
name = H;
}
);
layerId = "84EC96F5-B4D5-4389-883B-FBB110B3398F";
paths = (
{
closed = 1;
nodes = (
"1241 1002 LINE",
"1275 1192 LINE",
"159 1192 LINE",
"125 1002 LINE"
);
}
);
width = 1200;
},
{
components = (
{
name = H;
}
);
layerId = "A4690C19-62E3-4552-AAB4-AF5F97C4421F";
paths = (
{
closed = 1;
nodes = (
"1250 1052 LINE",
"1266 1142 LINE",
"150 1142 LINE",
"134 1052 LINE"
);
}
);
width = 1200;
}
);
unicode = 0126;
},
{
glyphname = I;
layers = (
{
anchors = (
{
name = bottom;
position = "{506, 0}";
},
{
name = ogonek;
position = "{508, 10}";
},
{
name = top;
position = "{757, 1420}";
},
{
name = topleft;
position = "{182, 1420}";
}
);
layerId = "7062B15D-7097-4448-A185-D08BD1167FB1";
paths = (
{
closed = 1;
nodes = (
"611 0 LINE",
"861 1420 LINE",
"653 1420 LINE",
"403 0 LINE"
);
},
{
closed = 1;
nodes = (
"938 0 LINE",
"971 190 LINE",
"108 190 LINE",
"75 0 LINE"
);
},
{
closed = 1;
nodes = (
"1155 1230 LINE",
"1188 1420 LINE",
"325 1420 LINE",
"292 1230 LINE"
);
}
);
width = 1200;
},
{
anchors = (
{
name = bottom;
position = "{506, 0}";
},
{
name = ogonek;
position = "{508, 10}";
},
{
name = top;
position = "{757, 1420}";
},
{
name = topleft;
position = "{182, 1420}";
}
);
layerId = "84EC96F5-B4D5-4389-883B-FBB110B3398F";
paths = (
{
closed = 1;
nodes = (
"639 0 LINE",
"889 1420 LINE",
"623 1420 LINE",
"373 0 LINE"
);
},
{
closed = 1;
nodes = (
"956 0 LINE",
"999 244 LINE",
"101 244 LINE",
"58 0 LINE"
);
},
{
closed = 1;
nodes = (
"1163 1176 LINE",
"1206 1420 LINE",
"308 1420 LINE",
"265 1176 LINE"
);
}
);
width = 1200;
},
{
anchors = (
{
name = bottom;
position = "{506, 1}";
},
{
name = ogonek;
position = "{508, 10}";
},
{
name = top;
position = "{757, 1421}";
},
{
name = topleft;
position = "{182, 1420}";
}
);
layerId = "A4690C19-62E3-4552-AAB4-AF5F97C4421F";
paths = (
{
closed = 1;
nodes = (
"552 0 LINE",
"802 1420 LINE",
"708 1420 LINE",
"458 0 LINE"
);
},
{
closed = 1;
nodes = (
"914 0 LINE",
"929 90 LINE",
"114 90 LINE",
"99 0 LINE"
);
},
{
closed = 1;
nodes = (
"1149 1330 LINE",
"1164 1420 LINE",
"349 1420 LINE",
"334 1330 LINE"
);
}
);
width = 1200;
}
);
unicode = 0049;
},
{
glyphname = IJ;
layers = (
{
anchors = (
{
name = bottom;
position = "{506, 0}";
},
{
name = top;
position = "{757, 1420}";
}
);
layerId = "7062B15D-7097-4448-A185-D08BD1167FB1";
paths = (
{
closed = 1;
nodes = (
"842 -20 OFFCURVE",
"1009 119 OFFCURVE",
"1056 386 CURVE SMOOTH",
"1238 1420 LINE",
"1030 1420 LINE",
"848 386 LINE SMOOTH",
"822 240 OFFCURVE",
"732 164 OFFCURVE",
"584 164 CURVE SMOOTH",
"443 164 OFFCURVE",
"380 230 OFFCURVE",
"401 356 CURVE",
"193 356 LINE",
"141 109 OFFCURVE",
"270 -20 OFFCURVE",
"568 -20 CURVE SMOOTH"
);
},
{
closed = 1;
nodes = (
"593 497 LINE",
"627 687 LINE",
"83 687 LINE",
"49 497 LINE"
);
},
{
closed = 1;
nodes = (
"419 497 LINE",
"582 1420 LINE",
"384 1420 LINE",
"221 497 LINE"
);
},
{
closed = 1;
nodes = (
"702 1230 LINE",
"736 1420 LINE",
"212 1420 LINE",
"178 1230 LINE"
);
},
{
closed = 1;
nodes = (
"1099 1230 LINE",
"1132 1420 LINE",
"847 1420 LINE",
"813 1230 LINE"
);
}
);
width = 1200;
},
{
anchors = (
{
name = bottom;
position = "{506, 0}";
},
{
name = top;
position = "{757, 1420}";
}
);
guideLines = (
{
angle = 80;
position = "{1046, 226}";
}
);
layerId = "84EC96F5-B4D5-4389-883B-FBB110B3398F";
paths = (
{
closed = 1;
nodes = (
"864 -20 OFFCURVE",
"1022 123 OFFCURVE",
"1077 436 CURVE SMOOTH",
"1250 1420 LINE",
"984 1420 LINE",
"811 436 LINE SMOOTH",
"786 296 OFFCURVE",
"720 232 OFFCURVE",
"596 232 CURVE SMOOTH",
"471 232 OFFCURVE",
"421 293 OFFCURVE",
"436 426 CURVE",
"161 426 LINE",
"103 120 OFFCURVE",
"231 -20 OFFCURVE",
"570 -20 CURVE SMOOTH"
);
},
{
closed = 1;
nodes = (
"626 568 LINE",
"669 811 LINE",
"83 811 LINE",
"40 568 LINE"
);
},
{
closed = 1;
nodes = (
"456 568 LINE",
"606 1420 LINE",
"344 1420 LINE",
"194 568 LINE"
);
},
{
closed = 1;
nodes = (
"713 1177 LINE",
"756 1420 LINE",
"190 1420 LINE",
"147 1177 LINE"
);
},
{
closed = 1;
nodes = (
"1083 1177 LINE",
"1125 1420 LINE",
"843 1420 LINE",
"800 1177 LINE"
);
}
);
width = 1200;
},
{
anchors = (
{
name = bottom;
position = "{506, 0}";
},
{
name = top;
position = "{757, 1420}";
}
);
guideLines = (
{
angle = 80;
position = "{1046, 226}";
}
);
layerId = "A4690C19-62E3-4552-AAB4-AF5F97C4421F";
paths = (
{
closed = 1;
nodes = (
"822 -20 OFFCURVE",
"984 123 OFFCURVE",
"1033 396 CURVE SMOOTH",
"1214 1420 LINE",
"1118 1420 LINE",
"937 396 LINE SMOOTH",
"898 182 OFFCURVE",
"775 70 OFFCURVE",
"577 70 CURVE SMOOTH",
"396 70 OFFCURVE",
"317 175 OFFCURVE",
"346 376 CURVE",
"250 376 LINE",
"213 116 OFFCURVE",
"320 -20 OFFCURVE",
"561 -20 CURVE SMOOTH"
);
},
{
closed = 1;
nodes = (
"597 517 LINE",
"613 607 LINE",
"69 607 LINE",
"53 517 LINE"
);
},
{
closed = 1;
nodes = (
"372 517 LINE",
"531 1420 LINE",
"435 1420 LINE",
"276 517 LINE"
);
},
{
closed = 1;
nodes = (
"720 1330 LINE",
"736 1420 LINE",
"212 1420 LINE",
"196 1330 LINE"
);
},
{
closed = 1;
nodes = (
"1153 1330 LINE",
"1169 1420 LINE",
"847 1420 LINE",
"831 1330 LINE"
);
}
);
width = 1200;
}
);
unicode = 0132;
},
{
glyphname = Iogonek;
layers = (
{
anchors = (
{
name = bottom;
position = "{438, -388}";
}
);
components = (
{
name = I;
}
);
layerId = "7062B15D-7097-4448-A185-D08BD1167FB1";
paths = (
{
closed = 1;
nodes = (
"548 -424 OFFCURVE",
"609 -413 OFFCURVE",
"667 -391 CURVE",
"635 -232 LINE",
"594 -248 OFFCURVE",
"552 -256 OFFCURVE",
"513 -256 CURVE SMOOTH",
"450 -256 OFFCURVE",
"417 -227 OFFCURVE",
"417 -173 CURVE SMOOTH",
"417 -63 OFFCURVE",
"559 0 OFFCURVE",
"678 0 CURVE",
"640 30 LINE",
"410 27 LINE",
"410 -23 LINE",
"320 -64 OFFCURVE",
"267 -145 OFFCURVE",
"267 -242 CURVE SMOOTH",
"267 -364 OFFCURVE",
"342 -424 OFFCURVE",
"487 -424 CURVE SMOOTH"
);
}
);
width = 1200;
},
{
anchors = (
{
name = bottom;
position = "{438, -388}";
}
);
components = (
{
name = I;
}
);
layerId = "84EC96F5-B4D5-4389-883B-FBB110B3398F";
paths = (
{
closed = 1;
nodes = (
"541 -424 OFFCURVE",
"626 -405 OFFCURVE",
"685 -378 CURVE",
"643 -164 LINE",
"603 -177 OFFCURVE",
"561 -185 OFFCURVE",
"525 -185 CURVE SMOOTH",
"473 -185 OFFCURVE",
"446 -167 OFFCURVE",
"446 -132 CURVE SMOOTH",
"446 -72 OFFCURVE",
"547 0 OFFCURVE",
"659 0 CURVE",
"620 30 LINE",
"410 17 LINE",
"410 -33 LINE",
"290 -73 OFFCURVE",
"219 -151 OFFCURVE",
"219 -245 CURVE SMOOTH",
"219 -365 OFFCURVE",
"305 -424 OFFCURVE",
"468 -424 CURVE SMOOTH"
);
}
);
width = 1200;
},
{
anchors = (
{
name = bottom;
position = "{438, -388}";
}
);
components = (
{
name = I;
}
);
layerId = "A4690C19-62E3-4552-AAB4-AF5F97C4421F";
paths = (
{
closed = 1;
nodes = (
"519 -423 OFFCURVE",
"561 -417 OFFCURVE",
"590 -405 CURVE",
"577 -322 LINE",
"557 -329 OFFCURVE",
"526 -336 OFFCURVE",
"492 -336 CURVE SMOOTH",
"415 -336 OFFCURVE",
"373 -301 OFFCURVE",
"373 -234 CURVE SMOOTH",
"373 -94 OFFCURVE",
"526 0 OFFCURVE",
"661 0 CURVE",
"576 34 LINE",
"456 52 LINE",
"456 -6 LINE",
"346 -63 OFFCURVE",
"279 -155 OFFCURVE",
"279 -254 CURVE SMOOTH",
"279 -364 OFFCURVE",
"347 -423 OFFCURVE",
"476 -423 CURVE SMOOTH"
);
}
);
width = 1200;
}
);
unicode = 012E;
},
{
glyphname = J;
layers = (
{
anchors = (
{
name = bottom;
position = "{506, 0}";
},
{
name = top;
position = "{957, 1420}";
}
);
layerId = "7062B15D-7097-4448-A185-D08BD1167FB1";
paths = (
{
closed = 1;
nodes = (
"820 -20 OFFCURVE",
"992 136 OFFCURVE",
"1052 476 CURVE SMOOTH",
"1218 1420 LINE",
"1010 1420 LINE",
"844 476 LINE SMOOTH",
"806 262 OFFCURVE",
"701 164 OFFCURVE",
"514 164 CURVE SMOOTH",
"333 164 OFFCURVE",
"251 279 OFFCURVE",
"285 476 CURVE",
"77 476 LINE",
"12 162 OFFCURVE",
"173 -20 OFFCURVE",
"498 -20 CURVE SMOOTH"
);
},
{
closed = 1;
nodes = (
"1079 1230 LINE",
"1112 1420 LINE",
"651 1420 LINE",
"617 1230 LINE"
);
}
);
width = 1200;
},
{
anchors = (
{
name = bottom;
position = "{506, 0}";
},
{
name = top;
position = "{957, 1420}";
}
);
layerId = "84EC96F5-B4D5-4389-883B-FBB110B3398F";
paths = (
{
closed = 1;
nodes = (
"829 -20 OFFCURVE",
"1009 136 OFFCURVE",
"1069 476 CURVE SMOOTH",
"1235 1420 LINE",
"969 1420 LINE",
"803 476 LINE SMOOTH",
"773 308 OFFCURVE",
"682 232 OFFCURVE",
"521 232 CURVE SMOOTH",
"376 232 OFFCURVE",
"310 325 OFFCURVE",
"336 484 CURVE",
"61 484 LINE",
"-6 165 OFFCURVE",
"160 -20 OFFCURVE",
"495 -20 CURVE SMOOTH"
);
},
{
closed = 1;
nodes = (
"1068 1177 LINE",
"1110 1420 LINE",
"648 1420 LINE",
"605 1177 LINE"
);
}
);
width = 1200;
},
{
anchors = (
{
name = bottom;
position = "{506, 0}";
},
{
name = top;
position = "{957, 1420}";
}
);
layerId = "A4690C19-62E3-4552-AAB4-AF5F97C4421F";
paths = (
{
closed = 1;
nodes = (
"793 -20 OFFCURVE",
"970 144 OFFCURVE",
"1028 476 CURVE SMOOTH",
"1194 1420 LINE",
"1098 1420 LINE",
"932 476 LINE SMOOTH",
"885 205 OFFCURVE",
"744 70 OFFCURVE",
"507 70 CURVE SMOOTH",
"251 70 OFFCURVE",
"148 205 OFFCURVE",
"196 476 CURVE",
"100 476 LINE",
"44 143 OFFCURVE",
"170 -20 OFFCURVE",
"491 -20 CURVE SMOOTH"
);
},
{
closed = 1;
nodes = (
"1136 1330 LINE",
"1152 1420 LINE",
"646 1420 LINE",
"630 1330 LINE"
);
}
);
width = 1200;
}
);
unicode = 004A;
},
{
glyphname = K;
layers = (
{
anchors = (
{
name = bottom;
position = "{506, 0}";
},
{
name = top;
position = "{757, 1420}";
}
);
layerId = "7062B15D-7097-4448-A185-D08BD1167FB1";
paths = (
{
closed = 1;
nodes = (
"802 404 OFFCURVE",
"1158 852 OFFCURVE",
"1251 1420 CURVE",
"1037 1420 LINE",
"961 968 OFFCURVE",
"726 603 OFFCURVE",
"236 530 CURVE",
"223 332 LINE"
);
},
{
closed = 1;
nodes = (
"265 0 LINE",
"515 1420 LINE",
"307 1420 LINE",
"57 0 LINE"
);
},
{
closed = 1;
nodes = (
"1069 0 LINE",
"807 724 LINE",
"624 622 LINE",
"837 0 LINE"
);
}
);
width = 1200;
},
{
anchors = (
{
name = bottom;
position = "{535, 0}";
},
{
name = top;
position = "{757, 1420}";
}
);
layerId = "84EC96F5-B4D5-4389-883B-FBB110B3398F";
paths = (
{
closed = 1;
nodes = (
"819 404 OFFCURVE",
"1190 852 OFFCURVE",
"1288 1420 CURVE",
"1020 1420 LINE",
"945 998 OFFCURVE",
"712 658 OFFCURVE",
"226 590 CURVE",
"213 332 LINE"
);
},
{
closed = 1;
nodes = (
"306 0 LINE",
"556 1420 LINE",
"290 1420 LINE",
"40 0 LINE"
);
},
{
closed = 1;
nodes = (
"1086 0 LINE",
"847 724 LINE",
"594 622 LINE",
"784 0 LINE"
);
}
);
width = 1200;
},
{
anchors = (
{
name = bottom;
position = "{506, 0}";
},
{
name = top;
position = "{757, 1420}";
}
);
layerId = "A4690C19-62E3-4552-AAB4-AF5F97C4421F";
paths = (
{
closed = 1;
nodes = (
"798 461 OFFCURVE",
"1136 878 OFFCURVE",
"1227 1420 CURVE",
"1131 1420 LINE",
"1046 943 OFFCURVE",
"774 557 OFFCURVE",
"236 480 CURVE",
"223 382 LINE"
);
},
{
closed = 1;
nodes = (
"177 0 LINE",
"427 1420 LINE",
"331 1420 LINE",
"81 0 LINE"
);
},
{
closed = 1;
nodes = (
"1045 0 LINE",
"799 677 LINE",
"720 612 LINE",
"933 0 LINE"
);
}
);
width = 1200;
}
);
unicode = 004B;
},
{
glyphname = L;
layers = (
{
anchors = (
{
name = bottom;
position = "{506, 0}";
},
{
name = center;
position = "{721, 710}";
},
{
name = top;
position = "{417, 1420}";
},
{
name = topright;
position = "{1097, 1420}";
}
);
layerId = "7062B15D-7097-4448-A185-D08BD1167FB1";
paths = (
{
closed = 1;
nodes = (
"276 0 LINE",
"526 1420 LINE",
"317 1420 LINE",
"67 0 LINE"
);
},
{
closed = 1;
nodes = (
"1007 0 LINE",
"1040 190 LINE",
"101 190 LINE",
"67 0 LINE"
);
}
);
width = 1200;
},
{
anchors = (
{
name = bottom;
position = "{506, 0}";
},
{
name = center;
position = "{721, 710}";
},
{
name = top;
position = "{451, 1420}";
},
{
name = topright;
position = "{1097, 1420}";
}
);
layerId = "84EC96F5-B4D5-4389-883B-FBB110B3398F";
paths = (
{
closed = 1;
nodes = (
"316 0 LINE",
"566 1420 LINE",
"300 1420 LINE",
"50 0 LINE"
);
},
{
closed = 1;
nodes = (
"1024 0 LINE",
"1067 244 LINE",
"93 244 LINE",
"50 0 LINE"
);
}
);
width = 1200;
},
{
anchors = (
{
name = bottom;
position = "{506, 0}";
},
{
name = center;
position = "{721, 710}";
},
{
name = top;
position = "{389, 1420}";
},
{
name = topright;
position = "{1097, 1420}";
}
);
layerId = "A4690C19-62E3-4552-AAB4-AF5F97C4421F";
paths = (
{
closed = 1;
nodes = (
"187 0 LINE",
"437 1420 LINE",
"341 1420 LINE",
"91 0 LINE"
);
},
{
closed = 1;
nodes = (
"984 0 LINE",
"1000 90 LINE",
"107 90 LINE",
"91 0 LINE"
);
}
);
width = 1200;
}
);
unicode = 004C;
},
{
glyphname = Lbar;
layers = (
{
components = (
{
name = L;
}
);
layerId = "7062B15D-7097-4448-A185-D08BD1167FB1";
paths = (
{
closed = 1;
nodes = (
"837 647 LINE",
"871 837 LINE",
"35 837 LINE",
"1 647 LINE"
);
}
);
width = 1200;
},
{
components = (
{
name = L;
}
);
layerId = "84EC96F5-B4D5-4389-883B-FBB110B3398F";
paths = (
{
closed = 1;
nodes = (
"856 641 LINE",
"898 883 LINE",
"42 883 LINE",
"0 641 LINE"
);
}
);
width = 1200;
},
{
components = (
{
name = L;
}
);
layerId = "A4690C19-62E3-4552-AAB4-AF5F97C4421F";
paths = (
{
closed = 1;
nodes = (
"822 677 LINE",
"838 767 LINE",
"22 767 LINE",
"6 677 LINE"
);
}
);
width = 1200;
}
);
unicode = 023D;
},
{
glyphname = Lcaron;
layers = (
{
components = (
{
name = L;
}
);
layerId = "7062B15D-7097-4448-A185-D08BD1167FB1";
paths = (
{
closed = 1;
nodes = (
"1052 1188 LINE",
"1209 1568 LINE",
"987 1568 LINE",
"880 1188 LINE"
);
}
);
width = 1200;
},
{
components = (
{
name = L;
}
);
layerId = "84EC96F5-B4D5-4389-883B-FBB110B3398F";
paths = (
{
closed = 1;
nodes = (
"1057 1188 LINE",
"1214 1568 LINE",
"938 1568 LINE",
"831 1188 LINE"
);
}
);
width = 1200;
},
{
components = (
{
name = L;
}
);
layerId = "A4690C19-62E3-4552-AAB4-AF5F97C4421F";
paths = (
{
closed = 1;
nodes = (
"1002 1188 LINE",
"1154 1568 LINE",
"1049 1568 LINE",
"920 1188 LINE"
);
}
);
width = 1200;
}
);
unicode = 013D;
},
{
glyphname = Lmiddletilde;
layers = (
{
anchors = (
{
name = bottom;
position = "{643, 0}";
},
{
name = center;
position = "{752, 710}";
},
{
name = top;
position = "{591, 1420}";
},
{
name = topright;
position = "{1342, 1420}";
}
);
layerId = "7062B15D-7097-4448-A185-D08BD1167FB1";
paths = (
{
closed = 1;
nodes = (
"445 0 LINE",
"695 1420 LINE",
"487 1420 LINE",
"237 0 LINE"
);
},
{
closed = 1;
nodes = (
"1007 0 LINE",
"1040 190 LINE",
"270 190 LINE",
"237 0 LINE"
);
},
{
closed = 1;
nodes = (
"212 589 LINE",
"225 661 LINE SMOOTH",
"234 713 OFFCURVE",
"260 736 OFFCURVE",
"313 736 CURVE SMOOTH",
"372 736 OFFCURVE",
"414 719 OFFCURVE",
"470 687 CURVE SMOOTH",
"533 651 OFFCURVE",
"605 616 OFFCURVE",
"692 616 CURVE SMOOTH",
"833 616 OFFCURVE",
"906 689 OFFCURVE",
"937 860 CURVE SMOOTH",
"952 944 LINE",
"750 944 LINE",
"737 872 LINE SMOOTH",
"728 820 OFFCURVE",
"707 797 OFFCURVE",
"666 797 CURVE SMOOTH",
"612 797 OFFCURVE",
"574 815 OFFCURVE",
"519 846 CURVE SMOOTH",
"454 881 OFFCURVE",
"382 917 OFFCURVE",
"293 917 CURVE SMOOTH",
"135 917 OFFCURVE",
"53 844 OFFCURVE",
"24 673 CURVE SMOOTH",
"10 589 LINE"
);
}
);
width = 1200;
},
{
anchors = (
{
name = bottom;
position = "{643, 0}";
},
{
name = center;
position = "{752, 710}";
},
{
name = top;
position = "{608, 1420}";
},
{
name = topright;
position = "{1342, 1420}";
}
);
layerId = "84EC96F5-B4D5-4389-883B-FBB110B3398F";
paths = (
{
closed = 1;
nodes = (
"491 0 LINE",
"741 1420 LINE",
"475 1420 LINE",
"225 0 LINE"
);
},
{
closed = 1;
nodes = (
"1023 0 LINE",
"1066 243 LINE",
"268 243 LINE",
"225 0 LINE"
);
},
{
closed = 1;
nodes = (
"224 562 LINE",
"239 647 LINE SMOOTH",
"247 695 OFFCURVE",
"272 716 OFFCURVE",
"322 716 CURVE SMOOTH",
"378 716 OFFCURVE",
"420 695 OFFCURVE",
"476 661 CURVE SMOOTH",
"537 622 OFFCURVE",
"607 590 OFFCURVE",
"692 590 CURVE SMOOTH",
"854 590 OFFCURVE",
"937 669 OFFCURVE",
"970 854 CURVE SMOOTH",
"991 970 LINE",
"759 970 LINE",
"744 886 LINE SMOOTH",
"735 838 OFFCURVE",
"715 817 OFFCURVE",
"671 817 CURVE SMOOTH",
"621 817 OFFCURVE",
"579 842 OFFCURVE",
"534 872 CURVE SMOOTH",
"466 916 OFFCURVE",
"401 943 OFFCURVE",
"314 943 CURVE SMOOTH",
"136 943 OFFCURVE",
"45 864 OFFCURVE",
"12 679 CURVE SMOOTH",
"-9 562 LINE"
);
}
);
width = 1200;
},
{
anchors = (
{
name = bottom;
position = "{643, 0}";
},
{
name = center;
position = "{752, 710}";
},
{
name = top;
position = "{560, 1420}";
},
{
name = topright;
position = "{1342, 1420}";
}
);
layerId = "A4690C19-62E3-4552-AAB4-AF5F97C4421F";
paths = (
{
closed = 1;
nodes = (
"358 0 LINE",
"608 1420 LINE",
"512 1420 LINE",
"262 0 LINE"
);
},
{
closed = 1;
nodes = (
"982 0 LINE",
"998 90 LINE",
"278 90 LINE",
"262 0 LINE"
);
},
{
closed = 1;
nodes = (
"130 589 LINE",
"149 701 LINE SMOOTH",
"163 784 OFFCURVE",
"206 827 OFFCURVE",
"272 827 CURVE SMOOTH",
"314 827 OFFCURVE",
"372 791 OFFCURVE",
"443 721 CURVE SMOOTH",
"517 650 OFFCURVE",
"598 616 OFFCURVE",
"677 616 CURVE SMOOTH",
"799 616 OFFCURVE",
"875 693 OFFCURVE",
"900 840 CURVE SMOOTH",
"918 944 LINE",
"822 944 LINE",
"803 832 LINE SMOOTH",
"789 749 OFFCURVE",
"747 706 OFFCURVE",
"682 706 CURVE SMOOTH",
"629 706 OFFCURVE",
"563 741 OFFCURVE",
"491 808 CURVE SMOOTH",
"410 882 OFFCURVE",
"335 917 OFFCURVE",
"278 917 CURVE SMOOTH",
"154 917 OFFCURVE",
"77 840 OFFCURVE",
"52 693 CURVE SMOOTH",
"34 589 LINE"
);
}
);
width = 1200;
}
);
unicode = 2C62;
},
{
glyphname = Lslash;
layers = (
{
anchors = (
{
name = bottom;
position = "{554, 0}";
},
{
name = center;
position = "{659, 710}";
},
{
name = top;
position = "{521, 1420}";
},
{
name = topright;
position = "{1364, 1420}";
}
);
layerId = "7062B15D-7097-4448-A185-D08BD1167FB1";
paths = (
{
closed = 1;
nodes = (
"925 875 LINE",
"959 1062 LINE",
"81 656 LINE",
"48 469 LINE"
);
},
{
closed = 1;
nodes = (
"375 0 LINE",
"625 1420 LINE",
"417 1420 LINE",
"167 0 LINE"
);
},
{
closed = 1;
nodes = (
"1007 0 LINE",
"1040 190 LINE",
"200 190 LINE",
"167 0 LINE"
);
}
);
width = 1200;
},
{
anchors = (
{
name = bottom;
position = "{554, 0}";
},
{
name = center;
position = "{659, 710}";
},
{
name = top;
position = "{517, 1420}";
},
{
name = topright;
position = "{1364, 1420}";
}
);
layerId = "84EC96F5-B4D5-4389-883B-FBB110B3398F";
paths = (
{
closed = 1;
nodes = (
"966 855 LINE",
"1012 1115 LINE",
"46 670 LINE",
"1 410 LINE"
);
},
{
closed = 1;
nodes = (
"400 0 LINE",
"650 1420 LINE",
"384 1420 LINE",
"134 0 LINE"
);
},
{
closed = 1;
nodes = (
"1007 0 LINE",
"1050 244 LINE",
"177 244 LINE",
"134 0 LINE"
);
}
);
width = 1200;
},
{
anchors = (
{
name = bottom;
position = "{554, 0}";
},
{
name = center;
position = "{659, 710}";
},
{
name = top;
position = "{561, 1420}";
},
{
name = topright;
position = "{1364, 1420}";
}
);
layerId = "A4690C19-62E3-4552-AAB4-AF5F97C4421F";
paths = (
{
closed = 1;
nodes = (
"941 960 LINE",
"959 1062 LINE",
"66 571 LINE",
"48 469 LINE"
);
},
{
closed = 1;
nodes = (
"359 0 LINE",
"609 1420 LINE",
"513 1420 LINE",
"263 0 LINE"
);
},
{
closed = 1;
nodes = (
"982 0 LINE",
"998 90 LINE",
"279 90 LINE",
"263 0 LINE"
);
}
);
width = 1200;
}
);
unicode = 0141;
},
{
glyphname = M;
layers = (
{
anchors = (
{
name = bottom;
position = "{506, 0}";
},
{
name = top;
position = "{757, 1420}";
}
);
layerId = "7062B15D-7097-4448-A185-D08BD1167FB1";
paths = (
{
closed = 1;
nodes = (
"698 580 LINE",
"954 1168 LINE",
"1012 1168 LINE",
"1056 1420 LINE",
"914 1420 LINE",
"660 810 LINE",
"648 810 LINE",
"577 580 LINE"
);
},
{
closed = 1;
nodes = (
"245 0 LINE",
"495 1420 LINE",
"285 1420 LINE",
"40 0 LINE"
);
},
{
closed = 1;
nodes = (
"631 580 LINE",
"652 810 LINE",
"644 810 LINE",
"580 1420 LINE",
"463 1420 LINE",
"419 1168 LINE",
"477 1168 LINE",
"527 579 LINE"
);
},
{
closed = 1;
nodes = (
"979 0 LINE",
"1229 1420 LINE",
"1024 1420 LINE",
"774 0 LINE"
);
}
);
width = 1200;
},
{
anchors = (
{
name = bottom;
position = "{506, 0}";
},
{
name = top;
position = "{757, 1420}";
}
);
layerId = "84EC96F5-B4D5-4389-883B-FBB110B3398F";
paths = (
{
closed = 1;
nodes = (
"676 497 LINE",
"914 1168 LINE",
"982 1168 LINE",
"1026 1420 LINE",
"869 1420 LINE",
"645 775 LINE",
"633 775 LINE",
"545 497 LINE"
);
},
{
closed = 1;
nodes = (
"277 0 LINE",
"527 1420 LINE",
"268 1420 LINE",
"18 0 LINE"
);
},
{
closed = 1;
nodes = (
"599 497 LINE",
"637 775 LINE",
"629 775 LINE",
"640 1420 LINE",
"493 1420 LINE",
"449 1168 LINE",
"517 1168 LINE",
"505 496 LINE"
);
},
{
closed = 1;
nodes = (
"996 0 LINE",
"1246 1420 LINE",
"992 1420 LINE",
"742 0 LINE"
);
}
);
width = 1200;
},
{
anchors = (
{
name = bottom;
position = "{506, 0}";
},
{
name = top;
position = "{757, 1420}";
}
);
layerId = "A4690C19-62E3-4552-AAB4-AF5F97C4421F";
paths = (
{
closed = 1;
nodes = (
"688 660 LINE",
"1084 1332 LINE",
"1126 1332 LINE",
"1141 1420 LINE",
"1036 1420 LINE",
"641 748 LINE",
"639 748 LINE",
"615 660 LINE"
);
},
{
closed = 1;
nodes = (
"155 0 LINE",
"405 1420 LINE",
"309 1420 LINE",
"59 0 LINE"
);
},
{
closed = 1;
nodes = (
"642 660 LINE",
"640 748 LINE",
"637 748 LINE",
"468 1420 LINE",
"391 1420 LINE",
"376 1332 LINE",
"400 1332 LINE",
"568 660 LINE"
);
},
{
closed = 1;
nodes = (
"955 0 LINE",
"1205 1420 LINE",
"1109 1420 LINE",
"859 0 LINE"
);
}
);
width = 1200;
}
);
unicode = 004D;
},
{
glyphname = N;
layers = (
{
anchors = (
{
name = bottom;
position = "{506, 0}";
},
{
name = top;
position = "{757, 1420}";
}
);
layerId = "7062B15D-7097-4448-A185-D08BD1167FB1";
paths = (
{
closed = 1;
nodes = (
"781 0 LINE",
"843 340 LINE",
"793 340 LINE",
"548 1420 LINE",
"441 1420 LINE",
"379 1080 LINE",
"471 1080 LINE",
"716 0 LINE"
);
},
{
closed = 1;
nodes = (
"263 0 LINE",
"513 1420 LINE",
"305 1420 LINE",
"55 0 LINE"
);
},
{
closed = 1;
nodes = (
"959 0 LINE",
"1209 1420 LINE",
"1001 1420 LINE",
"751 0 LINE"
);
}
);
width = 1200;
},
{
anchors = (
{
name = bottom;
position = "{506, 0}";
},
{
name = top;
position = "{757, 1420}";
}
);
layerId = "84EC96F5-B4D5-4389-883B-FBB110B3398F";
paths = (
{
closed = 1;
nodes = (
"742 0 LINE",
"804 340 LINE",
"734 340 LINE",
"657 1420 LINE",
"472 1420 LINE",
"408 1080 LINE",
"520 1080 LINE",
"597 0 LINE"
);
},
{
closed = 1;
nodes = (
"304 0 LINE",
"554 1420 LINE",
"288 1420 LINE",
"38 0 LINE"
);
},
{
closed = 1;
nodes = (
"976 0 LINE",
"1226 1420 LINE",
"960 1420 LINE",
"710 0 LINE"
);
}
);
width = 1200;
},
{
anchors = (
{
name = bottom;
position = "{506, 0}";
},
{
name = top;
position = "{757, 1420}";
}
);
layerId = "A4690C19-62E3-4552-AAB4-AF5F97C4421F";
paths = (
{
closed = 1;
nodes = (
"874 0 LINE",
"889 88 LINE",
"847 88 LINE",
"487 1420 LINE",
"374 1420 LINE",
"359 1332 LINE",
"418 1332 LINE",
"778 0 LINE"
);
},
{
closed = 1;
nodes = (
"175 0 LINE",
"425 1420 LINE",
"329 1420 LINE",
"79 0 LINE"
);
},
{
closed = 1;
nodes = (
"935 0 LINE",
"1185 1420 LINE",
"1089 1420 LINE",
"839 0 LINE"
);
}
);
width = 1200;
}
);
unicode = 004E;
},
{
glyphname = Eng;
layers = (
{
anchors = (
{
name = bottom;
position = "{438, -388}";
}
);
components = (
{
name = N;
}
);
guideLines = (
{
angle = 90;
position = "{663, 123}";
}
);
layerId = "7062B15D-7097-4448-A185-D08BD1167FB1";
paths = (
{
closed = 1;
nodes = (
"744 -38 LINE SMOOTH",
"718 -187 OFFCURVE",
"634 -247 OFFCURVE",
"438 -279 CURVE SMOOTH",
"383 -288 LINE",
"395 -477 LINE",
"440 -472 LINE SMOOTH",
"766 -436 OFFCURVE",
"906 -310 OFFCURVE",
"958 -6 CURVE SMOOTH",
"985 151 LINE",
"777 151 LINE"
);
}
);
width = 1200;
},
{
anchors = (
{
name = bottom;
position = "{438, -388}";
}
);
components = (
{
name = N;
}
);
guideLines = (
{
angle = 90;
position = "{663, 123}";
}
);
layerId = "84EC96F5-B4D5-4389-883B-FBB110B3398F";
paths = (
{
closed = 1;
nodes = (
"715 -38 LINE SMOOTH",
"693 -163 OFFCURVE",
"628 -212 OFFCURVE",
"439 -239 CURVE SMOOTH",
"354 -251 LINE",
"366 -477 LINE",
"441 -472 LINE SMOOTH",
"789 -449 OFFCURVE",
"922 -311 OFFCURVE",
"974 -6 CURVE SMOOTH",
"1001 151 LINE",
"748 151 LINE"
);
}
);
width = 1200;
},
{
anchors = (
{
name = bottom;
position = "{438, -388}";
}
);
components = (
{
name = N;
}
);
guideLines = (
{
angle = 90;
position = "{663, 123}";
}
);
layerId = "A4690C19-62E3-4552-AAB4-AF5F97C4421F";
paths = (
{
closed = 1;
nodes = (
"833 -38 LINE SMOOTH",
"801 -224 OFFCURVE",
"676 -327 OFFCURVE",
"436 -367 CURVE SMOOTH",
"400 -373 LINE",
"405 -465 LINE",
"420 -463 LINE SMOOTH",
"725 -422 OFFCURVE",
"887 -279 OFFCURVE",
"934 -6 CURVE SMOOTH",
"961 151 LINE",
"866 151 LINE"
);
}
);
width = 1200;
}
);
unicode = 014A;
},
{
glyphname = Nhookleft;
production = uni019D;
layers = (
{
anchors = (
{
name = bottom;
position = "{438, -388}";
}
);
components = (
{
name = N;
}
);
layerId = "7062B15D-7097-4448-A185-D08BD1167FB1";
paths = (
{
closed = 1;
nodes = (
"49 -33 LINE SMOOTH",
"24 -174 OFFCURVE",
"-51 -234 OFFCURVE",
"-224 -266 CURVE SMOOTH",
"-267 -274 LINE",
"-251 -476 LINE",
"-220 -472 LINE SMOOTH",
"84 -433 OFFCURVE",
"210 -310 OFFCURVE",
"262 -6 CURVE SMOOTH",
"289 151 LINE",
"82 151 LINE"
);
}
);
width = 1200;
},
{
anchors = (
{
name = bottom;
position = "{438, -388}";
}
);
components = (
{
name = N;
}
);
layerId = "84EC96F5-B4D5-4389-883B-FBB110B3398F";
paths = (
{
closed = 1;
nodes = (
"32 -33 LINE SMOOTH",
"9 -162 OFFCURVE",
"-62 -216 OFFCURVE",
"-223 -246 CURVE SMOOTH",
"-266 -254 LINE",
"-250 -476 LINE",
"-219 -472 LINE SMOOTH",
"110 -430 OFFCURVE",
"251 -311 OFFCURVE",
"303 -6 CURVE SMOOTH",
"330 151 LINE",
"65 151 LINE"
);
}
);
width = 1200;
},
{
anchors = (
{
name = bottom;
position = "{438, -388}";
}
);
components = (
{
name = N;
}
);
layerId = "A4690C19-62E3-4552-AAB4-AF5F97C4421F";
paths = (
{
closed = 1;
nodes = (
"73 -33 LINE SMOOTH",
"36 -238 OFFCURVE",
"-31 -342 OFFCURVE",
"-214 -376 CURVE SMOOTH",
"-257 -384 LINE",
"-251 -476 LINE",
"-220 -472 LINE SMOOTH",
"29 -440 OFFCURVE",
"122 -308 OFFCURVE",
"174 -6 CURVE SMOOTH",
"201 151 LINE",
"106 151 LINE"
);
}
);
width = 1200;
}
);
unicode = 019D;
},
{
glyphname = O;
layers = (
{
anchors = (
{
name = bottom;
position = "{506, 0}";
},
{
name = center;
position = "{631, 710}";
},
{
name = ogonek;
position = "{528, 10}";
},
{
name = top;
position = "{757, 1420}";
},
{
name = topleft;
position = "{198, 1420}";
},
{
name = topright;
position = "{1338, 1420}";
}
);
guideLines = (
{
angle = 90;
position = "{927, 1269}";
}
);
layerId = "7062B15D-7097-4448-A185-D08BD1167FB1";
paths = (
{
closed = 1;
nodes = (
"922 -20 OFFCURVE",
"1164 346 OFFCURVE",
"1164 965 CURVE SMOOTH",
"1164 1264 OFFCURVE",
"1011 1440 OFFCURVE",
"752 1440 CURVE SMOOTH",
"342 1440 OFFCURVE",
"100 1078 OFFCURVE",
"100 466 CURVE SMOOTH",
"100 161 OFFCURVE",
"253 -20 OFFCURVE",
"513 -20 CURVE SMOOTH"
);
},
{
closed = 1;
nodes = (
"398 164 OFFCURVE",
"314 285 OFFCURVE",
"314 491 CURVE SMOOTH",
"314 972 OFFCURVE",
"469 1256 OFFCURVE",
"731 1256 CURVE SMOOTH",
"869 1256 OFFCURVE",
"950 1138 OFFCURVE",
"950 940 CURVE SMOOTH",
"950 452 OFFCURVE",
"797 164 OFFCURVE",
"539 164 CURVE SMOOTH"
);
}
);
width = 1200;
},
{
anchors = (
{
name = bottom;
position = "{506, 0}";
},
{
name = center;
position = "{631, 710}";
},
{
name = ogonek;
position = "{528, 10}";
},
{
name = top;
position = "{757, 1420}";
},
{
name = topleft;
position = "{198, 1420}";
},
{
name = topright;
position = "{1328, 1420}";
}
);
guideLines = (
{
angle = 90;
position = "{927, 1269}";
}
);
layerId = "84EC96F5-B4D5-4389-883B-FBB110B3398F";
paths = (
{
closed = 1;
nodes = (
"942 -20 OFFCURVE",
"1195 331 OFFCURVE",
"1195 925 CURVE SMOOTH",
"1195 1249 OFFCURVE",
"1030 1440 OFFCURVE",
"752 1440 CURVE SMOOTH",
"319 1440 OFFCURVE",
"63 1093 OFFCURVE",
"63 506 CURVE SMOOTH",
"63 175 OFFCURVE",
"230 -20 OFFCURVE",
"513 -20 CURVE SMOOTH"
);
},
{
closed = 1;
nodes = (
"418 232 OFFCURVE",
"340 343 OFFCURVE",
"340 531 CURVE SMOOTH",
"340 944 OFFCURVE",
"480 1188 OFFCURVE",
"717 1188 CURVE SMOOTH",
"843 1188 OFFCURVE",
"918 1081 OFFCURVE",
"918 900 CURVE SMOOTH",
"918 480 OFFCURVE",
"781 232 OFFCURVE",
"549 232 CURVE SMOOTH"
);
}
);
width = 1200;
},
{
anchors = (
{
name = bottom;
position = "{506, 0}";
},
{
name = center;
position = "{631, 710}";
},
{
name = ogonek;
position = "{528, 10}";
},
{
name = top;
position = "{757, 1420}";
},
{
name = topleft;
position = "{198, 1420}";
},
{
name = topright;
position = "{1328, 1420}";
}
);
guideLines = (
{
angle = 90;
position = "{927, 1269}";
}
);
layerId = "A4690C19-62E3-4552-AAB4-AF5F97C4421F";
paths = (
{
closed = 1;
nodes = (
"918 -20 OFFCURVE",
"1157 361 OFFCURVE",
"1157 1005 CURVE SMOOTH",
"1157 1278 OFFCURVE",
"1007 1440 OFFCURVE",
"752 1440 CURVE SMOOTH",
"347 1440 OFFCURVE",
"107 1063 OFFCURVE",
"107 426 CURVE SMOOTH",
"107 146 OFFCURVE",
"258 -20 OFFCURVE",
"513 -20 CURVE SMOOTH"
);
},
{
closed = 1;
nodes = (
"320 70 OFFCURVE",
"201 208 OFFCURVE",
"201 441 CURVE SMOOTH",
"201 1012 OFFCURVE",
"404 1350 OFFCURVE",
"748 1350 CURVE SMOOTH",
"940 1350 OFFCURVE",
"1053 1216 OFFCURVE",
"1053 990 CURVE SMOOTH",
"1053 412 OFFCURVE",
"856 70 OFFCURVE",
"522 70 CURVE SMOOTH"
);
}
);
width = 1200;
}
);
unicode = 004F;
},
{
glyphname = Oogonek;
production = uni01EA;
layers = (
{
anchors = (
{
name = bottom;
position = "{438, -388}";
}
);
components = (
{
name = O;
}
);
layerId = "7062B15D-7097-4448-A185-D08BD1167FB1";
paths = (
{
closed = 1;
nodes = (
"562 -424 OFFCURVE",
"623 -413 OFFCURVE",
"681 -391 CURVE",
"649 -232 LINE",
"608 -248 OFFCURVE",
"566 -256 OFFCURVE",
"527 -256 CURVE SMOOTH",
"464 -256 OFFCURVE",
"431 -227 OFFCURVE",
"431 -173 CURVE SMOOTH",
"431 -64 OFFCURVE",
"557 -32 OFFCURVE",
"662 -2 CURVE",
"654 28 LINE",
"424 21 LINE",
"424 -29 LINE",
"339 -67 OFFCURVE",
"281 -138 OFFCURVE",
"281 -242 CURVE SMOOTH",
"281 -364 OFFCURVE",
"356 -424 OFFCURVE",
"501 -424 CURVE SMOOTH"
);
}
);
width = 1200;
},
{
anchors = (
{
name = bottom;
position = "{438, -388}";
}
);
components = (
{
name = O;
}
);
layerId = "84EC96F5-B4D5-4389-883B-FBB110B3398F";
paths = (
{
closed = 1;
nodes = (
"544 -424 OFFCURVE",
"633 -405 OFFCURVE",
"695 -378 CURVE",
"653 -164 LINE",
"610 -177 OFFCURVE",
"565 -185 OFFCURVE",
"525 -185 CURVE SMOOTH",
"473 -185 OFFCURVE",
"446 -167 OFFCURVE",
"446 -132 CURVE SMOOTH",
"446 -74 OFFCURVE",
"547 -31 OFFCURVE",
"659 -5 CURVE",
"620 25 LINE",
"390 12 LINE",
"390 -38 LINE",
"283 -89 OFFCURVE",
"219 -159 OFFCURVE",
"219 -255 CURVE SMOOTH",
"219 -368 OFFCURVE",
"305 -424 OFFCURVE",
"468 -424 CURVE SMOOTH"
);
}
);
width = 1200;
},
{
anchors = (
{
name = bottom;
position = "{438, -388}";
}
);
components = (
{
name = O;
}
);
layerId = "A4690C19-62E3-4552-AAB4-AF5F97C4421F";
paths = (
{
closed = 1;
nodes = (
"551 -423 OFFCURVE",
"593 -417 OFFCURVE",
"622 -405 CURVE",
"609 -322 LINE",
"589 -329 OFFCURVE",
"558 -336 OFFCURVE",
"524 -336 CURVE SMOOTH",
"445 -336 OFFCURVE",
"402 -301 OFFCURVE",
"402 -234 CURVE SMOOTH",
"402 -94 OFFCURVE",
"542 -33 OFFCURVE",
"666 0 CURVE",
"581 34 LINE",
"471 52 LINE",
"471 -24 LINE",
"360 -77 OFFCURVE",
"308 -162 OFFCURVE",
"308 -254 CURVE SMOOTH",
"308 -364 OFFCURVE",
"377 -423 OFFCURVE",
"508 -423 CURVE SMOOTH"
);
}
);
width = 1200;
}
);
unicode = 01EA;
},
{
glyphname = Oopen;
production = uni0186;
layers = (
{
anchors = (
{
name = bottom;
position = "{506, 0}";
},
{
name = top;
position = "{757, 1420}";
}
);
layerId = "7062B15D-7097-4448-A185-D08BD1167FB1";
paths = (
{
closed = 1;
nodes = (
"514 1440 OFFCURVE",
"389 1418 OFFCURVE",
"264 1372 CURVE",
"278 1196 LINE",
"391 1236 OFFCURVE",
"502 1256 OFFCURVE",
"611 1256 CURVE SMOOTH",
"846 1256 OFFCURVE",
"965 1134 OFFCURVE",
"965 890 CURVE SMOOTH",
"965 472 OFFCURVE",
"727 164 OFFCURVE",
"404 164 CURVE SMOOTH",
"293 164 OFFCURVE",
"206 202 OFFCURVE",
"124 286 CURVE",
"-19 139 LINE",
"78 29 OFFCURVE",
"201 -20 OFFCURVE",
"375 -20 CURVE SMOOTH",
"850 -20 OFFCURVE",
"1179 357 OFFCURVE",
"1179 897 CURVE SMOOTH",
"1179 1259 OFFCURVE",
"998 1440 OFFCURVE",
"638 1440 CURVE SMOOTH"
);
}
);
width = 1200;
},
{
anchors = (
{
name = bottom;
position = "{506, 0}";
},
{
name = top;
position = "{757, 1420}";
}
);
layerId = "84EC96F5-B4D5-4389-883B-FBB110B3398F";
paths = (
{
closed = 1;
nodes = (
"514 1440 OFFCURVE",
"376 1418 OFFCURVE",
"240 1372 CURVE",
"254 1128 LINE",
"365 1168 OFFCURVE",
"475 1188 OFFCURVE",
"582 1188 CURVE SMOOTH",
"799 1188 OFFCURVE",
"909 1089 OFFCURVE",
"909 890 CURVE SMOOTH",
"909 511 OFFCURVE",
"691 232 OFFCURVE",
"395 232 CURVE SMOOTH",
"292 232 OFFCURVE",
"210 267 OFFCURVE",
"134 344 CURVE",
"-39 139 LINE",
"61 29 OFFCURVE",
"187 -20 OFFCURVE",
"366 -20 CURVE SMOOTH",
"851 -20 OFFCURVE",
"1187 357 OFFCURVE",
"1187 897 CURVE SMOOTH",
"1187 1259 OFFCURVE",
"1007 1440 OFFCURVE",
"649 1440 CURVE SMOOTH"
);
}
);
width = 1200;
},
{
anchors = (
{
name = bottom;
position = "{506, 0}";
},
{
name = top;
position = "{757, 1420}";
}
);
layerId = "A4690C19-62E3-4552-AAB4-AF5F97C4421F";
paths = (
{
closed = 1;
nodes = (
"520 1440 OFFCURVE",
"395 1420 OFFCURVE",
"269 1378 CURVE",
"281 1290 LINE",
"396 1330 OFFCURVE",
"507 1350 OFFCURVE",
"618 1350 CURVE SMOOTH",
"878 1350 OFFCURVE",
"1052 1166 OFFCURVE",
"1052 890 CURVE SMOOTH",
"1052 398 OFFCURVE",
"796 70 OFFCURVE",
"411 70 CURVE SMOOTH",
"276 70 OFFCURVE",
"170 114 OFFCURVE",
"71 210 CURVE",
"-2 139 LINE",
"109 29 OFFCURVE",
"234 -20 OFFCURVE",
"402 -20 CURVE SMOOTH",
"848 -20 OFFCURVE",
"1146 347 OFFCURVE",
"1146 897 CURVE SMOOTH",
"1146 1223 OFFCURVE",
"946 1440 OFFCURVE",
"645 1440 CURVE SMOOTH"
);
}
);
width = 1200;
}
);
unicode = 0186;
},
{
glyphname = Oslash;
layers = (
{
components = (
{
name = O;
}
);
layerId = "7062B15D-7097-4448-A185-D08BD1167FB1";
paths = (
{
closed = 1;
nodes = (
"1283 1449 LINE",
"1154 1540 LINE",
"-43 -41 LINE",
"86 -142 LINE"
);
}
);
width = 1200;
},
{
components = (
{
name = O;
}
);
layerId = "84EC96F5-B4D5-4389-883B-FBB110B3398F";
paths = (
{
closed = 1;
nodes = (
"1303 1419 LINE",
"1134 1540 LINE",
"-43 -11 LINE",
"116 -142 LINE"
);
}
);
width = 1200;
},
{
components = (
{
name = O;
}
);
layerId = "A4690C19-62E3-4552-AAB4-AF5F97C4421F";
paths = (
{
closed = 1;
nodes = (
"1241 1477 LINE",
"1166 1532 LINE",
"-1 -79 LINE",
"74 -134 LINE"
);
}
);
width = 1200;
}
);
unicode = 00D8;
},
{
glyphname = OE;
layers = (
{
anchors = (
{
name = bottom;
position = "{506, 0}";
},
{
name = top;
position = "{757, 1420}";
}
);
layerId = "7062B15D-7097-4448-A185-D08BD1167FB1";
paths = (
{
closed = 1;
nodes = (
"498 -20 OFFCURVE",
"560 0 OFFCURVE",
"607 0 CURVE SMOOTH",
"696 0 LINE",
"946 1420 LINE",
"847 1420 LINE SMOOTH",
"785 1420 OFFCURVE",
"749 1440 OFFCURVE",
"681 1440 CURVE SMOOTH",
"290 1440 OFFCURVE",
"81 896 OFFCURVE",
"81 439 CURVE SMOOTH",
"81 144 OFFCURVE",
"200 -20 OFFCURVE",
"423 -20 CURVE SMOOTH"
);
},
{
closed = 1;
nodes = (
"1005 0 LINE",
"1038 190 LINE",
"535 190 LINE",
"501 0 LINE"
);
},
{
closed = 1;
nodes = (
"354 164 OFFCURVE",
"295 269 OFFCURVE",
"295 460 CURVE SMOOTH",
"295 759 OFFCURVE",
"421 1256 OFFCURVE",
"648 1256 CURVE SMOOTH",
"670 1256 OFFCURVE",
"691 1248 OFFCURVE",
"705 1234 CURVE",
"518 170 LINE",
"503 166 OFFCURVE",
"484 164 OFFCURVE",
"466 164 CURVE SMOOTH"
);
},
{
closed = 1;
nodes = (
"1054 616 LINE",
"1087 806 LINE",
"643 806 LINE",
"610 616 LINE"
);
},
{
closed = 1;
nodes = (
"1222 1230 LINE",
"1257 1420 LINE",
"751 1420 LINE",
"718 1230 LINE"
);
}
);
width = 1200;
},
{
anchors = (
{
name = bottom;
position = "{506, 0}";
},
{
name = top;
position = "{757, 1420}";
}
);
layerId = "84EC96F5-B4D5-4389-883B-FBB110B3398F";
paths = (
{
closed = 1;
nodes = (
"519 -20 OFFCURVE",
"610 0 OFFCURVE",
"681 0 CURVE SMOOTH",
"729 0 LINE",
"979 1420 LINE",
"931 1420 LINE SMOOTH",
"837 1420 OFFCURVE",
"772 1440 OFFCURVE",
"663 1440 CURVE SMOOTH",
"272 1440 OFFCURVE",
"63 896 OFFCURVE",
"63 439 CURVE SMOOTH",
"63 144 OFFCURVE",
"182 -20 OFFCURVE",
"405 -20 CURVE SMOOTH"
);
},
{
closed = 1;
nodes = (
"1023 0 LINE",
"1065 242 LINE",
"565 242 LINE",
"523 0 LINE"
);
},
{
closed = 1;
nodes = (
"382 226 OFFCURVE",
"342 311 OFFCURVE",
"342 463 CURVE SMOOTH",
"342 707 OFFCURVE",
"446 1194 OFFCURVE",
"619 1194 CURVE SMOOTH",
"640 1194 OFFCURVE",
"659 1190 OFFCURVE",
"671 1181 CURVE",
"504 232 LINE",
"491 228 OFFCURVE",
"475 226 OFFCURVE",
"459 226 CURVE SMOOTH"
);
},
{
closed = 1;
nodes = (
"1067 590 LINE",
"1110 832 LINE",
"690 832 LINE",
"647 590 LINE"
);
},
{
closed = 1;
nodes = (
"1231 1178 LINE",
"1273 1420 LINE",
"763 1420 LINE",
"721 1178 LINE"
);
}
);
width = 1200;
},
{
anchors = (
{
name = bottom;
position = "{506, 0}";
},
{
name = top;
position = "{757, 1420}";
}
);
layerId = "A4690C19-62E3-4552-AAB4-AF5F97C4421F";
paths = (
{
closed = 1;
nodes = (
"497 -20 OFFCURVE",
"559 0 OFFCURVE",
"606 0 CURVE SMOOTH",
"639 0 LINE",
"889 1420 LINE",
"856 1420 LINE SMOOTH",
"794 1420 OFFCURVE",
"752 1440 OFFCURVE",
"680 1440 CURVE SMOOTH",
"305 1440 OFFCURVE",
"105 882 OFFCURVE",
"105 438 CURVE SMOOTH",
"105 143 OFFCURVE",
"215 -20 OFFCURVE",
"422 -20 CURVE SMOOTH"
);
},
{
closed = 1;
nodes = (
"980 0 LINE",
"996 90 LINE",
"571 90 LINE",
"554 0 LINE"
);
},
{
closed = 1;
nodes = (
"287 70 OFFCURVE",
"201 203 OFFCURVE",
"201 445 CURVE SMOOTH",
"201 816 OFFCURVE",
"362 1350 OFFCURVE",
"664 1350 CURVE SMOOTH",
"708 1350 OFFCURVE",
"747 1342 OFFCURVE",
"777 1328 CURVE",
"556 76 LINE",
"526 72 OFFCURVE",
"486 70 OFFCURVE",
"448 70 CURVE SMOOTH"
);
},
{
closed = 1;
nodes = (
"1037 666 LINE",
"1053 756 LINE",
"715 756 LINE",
"699 666 LINE"
);
},
{
closed = 1;
nodes = (
"1215 1330 LINE",
"1230 1420 LINE",
"804 1420 LINE",
"789 1330 LINE"
);
}
);
width = 1200;
}
);
unicode = 0152;
},
{
glyphname = P;
layers = (
{
anchors = (
{
name = bottom;
position = "{506, 0}";
},
{
name = top;
position = "{707, 1420}";
}
);
layerId = "7062B15D-7097-4448-A185-D08BD1167FB1";
paths = (
{
closed = 1;
nodes = (
"275 0 LINE",
"525 1420 LINE",
"317 1420 LINE",
"67 0 LINE"
);
},
{
closed = 1;
nodes = (
"293 360 LINE SMOOTH",
"883 360 OFFCURVE",
"1190 576 OFFCURVE",
"1190 991 CURVE SMOOTH",
"1190 1286 OFFCURVE",
"1003 1440 OFFCURVE",
"645 1440 CURVE SMOOTH",
"513 1440 OFFCURVE",
"400 1433 OFFCURVE",
"317 1420 CURVE",
"284 1230 LINE",
"367 1243 OFFCURVE",
"480 1250 OFFCURVE",
"612 1250 CURVE SMOOTH",
"851 1250 OFFCURVE",
"976 1156 OFFCURVE",
"976 978 CURVE SMOOTH",
"976 697 OFFCURVE",
"753 550 OFFCURVE",
"326 550 CURVE SMOOTH",
"214 550 LINE",
"181 360 LINE"
);
}
);
width = 1200;
},
{
anchors = (
{
name = bottom;
position = "{506, 0}";
},
{
name = top;
position = "{707, 1420}";
}
);
layerId = "84EC96F5-B4D5-4389-883B-FBB110B3398F";
paths = (
{
closed = 1;
nodes = (
"316 0 LINE",
"566 1420 LINE",
"300 1420 LINE",
"50 0 LINE"
);
},
{
closed = 1;
nodes = (
"293 330 LINE SMOOTH",
"903 330 OFFCURVE",
"1221 557 OFFCURVE",
"1221 991 CURVE SMOOTH",
"1221 1286 OFFCURVE",
"1010 1440 OFFCURVE",
"605 1440 CURVE SMOOTH",
"479 1440 OFFCURVE",
"375 1433 OFFCURVE",
"300 1420 CURVE",
"267 1168 LINE",
"352 1181 OFFCURVE",
"470 1188 OFFCURVE",
"612 1188 CURVE SMOOTH",
"831 1188 OFFCURVE",
"944 1109 OFFCURVE",
"944 958 CURVE SMOOTH",
"944 710 OFFCURVE",
"733 582 OFFCURVE",
"326 582 CURVE SMOOTH",
"214 582 LINE",
"181 330 LINE"
);
}
);
width = 1200;
},
{
anchors = (
{
name = bottom;
position = "{506, 0}";
},
{
name = top;
position = "{707, 1420}";
}
);
layerId = "A4690C19-62E3-4552-AAB4-AF5F97C4421F";
paths = (
{
closed = 1;
nodes = (
"187 0 LINE",
"437 1420 LINE",
"341 1420 LINE",
"91 0 LINE"
);
},
{
closed = 1;
nodes = (
"243 410 LINE SMOOTH",
"856 410 OFFCURVE",
"1175 619 OFFCURVE",
"1175 1021 CURVE SMOOTH",
"1175 1296 OFFCURVE",
"990 1440 OFFCURVE",
"635 1440 CURVE SMOOTH",
"517 1440 OFFCURVE",
"415 1433 OFFCURVE",
"341 1420 CURVE",
"348 1330 LINE",
"415 1343 OFFCURVE",
"506 1350 OFFCURVE",
"612 1350 CURVE SMOOTH",
"919 1350 OFFCURVE",
"1079 1235 OFFCURVE",
"1079 1018 CURVE SMOOTH",
"1079 678 OFFCURVE",
"804 500 OFFCURVE",
"276 500 CURVE SMOOTH",
"214 500 LINE",
"201 410 LINE"
);
}
);
width = 1200;
}
);
unicode = 0050;
},
{
glyphname = Thorn;
layers = (
{
anchors = (
{
name = bottom;
position = "{506, 0}";
},
{
name = top;
position = "{757, 1420}";
}
);
layerId = "7062B15D-7097-4448-A185-D08BD1167FB1";
paths = (
{
closed = 1;
nodes = (
"275 0 LINE",
"525 1420 LINE",
"317 1420 LINE",
"67 0 LINE"
);
},
{
closed = 1;
nodes = (
"255 165 LINE SMOOTH",
"845 165 OFFCURVE",
"1152 381 OFFCURVE",
"1152 796 CURVE SMOOTH",
"1152 1091 OFFCURVE",
"965 1245 OFFCURVE",
"607 1245 CURVE SMOOTH",
"487 1245 OFFCURVE",
"384 1238 OFFCURVE",
"309 1225 CURVE",
"276 1035 LINE",
"351 1048 OFFCURVE",
"454 1055 OFFCURVE",
"574 1055 CURVE SMOOTH",
"813 1055 OFFCURVE",
"938 961 OFFCURVE",
"938 783 CURVE SMOOTH",
"938 502 OFFCURVE",
"715 355 OFFCURVE",
"288 355 CURVE SMOOTH",
"176 355 LINE",
"143 165 LINE"
);
}
);
width = 1200;
},
{
anchors = (
{
name = bottom;
position = "{506, 0}";
},
{
name = top;
position = "{757, 1420}";
}
);
layerId = "84EC96F5-B4D5-4389-883B-FBB110B3398F";
paths = (
{
closed = 1;
nodes = (
"316 0 LINE",
"566 1420 LINE",
"300 1420 LINE",
"50 0 LINE"
);
},
{
closed = 1;
nodes = (
"246 147 LINE SMOOTH",
"856 147 OFFCURVE",
"1174 374 OFFCURVE",
"1174 808 CURVE SMOOTH",
"1174 1103 OFFCURVE",
"963 1257 OFFCURVE",
"558 1257 CURVE SMOOTH",
"453 1257 OFFCURVE",
"366 1250 OFFCURVE",
"303 1237 CURVE",
"270 985 LINE",
"343 998 OFFCURVE",
"444 1005 OFFCURVE",
"565 1005 CURVE SMOOTH",
"784 1005 OFFCURVE",
"897 926 OFFCURVE",
"897 775 CURVE SMOOTH",
"897 527 OFFCURVE",
"686 399 OFFCURVE",
"279 399 CURVE SMOOTH",
"167 399 LINE",
"134 147 LINE"
);
}
);
width = 1200;
},
{
anchors = (
{
name = bottom;
position = "{506, 0}";
},
{
name = top;
position = "{757, 1420}";
}
);
layerId = "A4690C19-62E3-4552-AAB4-AF5F97C4421F";
paths = (
{
closed = 1;
nodes = (
"187 0 LINE",
"437 1420 LINE",
"341 1420 LINE",
"91 0 LINE"
);
},
{
closed = 1;
nodes = (
"197 187 LINE SMOOTH",
"810 187 OFFCURVE",
"1129 396 OFFCURVE",
"1129 798 CURVE SMOOTH",
"1129 1073 OFFCURVE",
"944 1217 OFFCURVE",
"589 1217 CURVE SMOOTH",
"479 1217 OFFCURVE",
"384 1210 OFFCURVE",
"315 1197 CURVE",
"302 1107 LINE",
"369 1120 OFFCURVE",
"460 1127 OFFCURVE",
"566 1127 CURVE SMOOTH",
"873 1127 OFFCURVE",
"1033 1012 OFFCURVE",
"1033 795 CURVE SMOOTH",
"1033 455 OFFCURVE",
"758 277 OFFCURVE",
"230 277 CURVE SMOOTH",
"168 277 LINE",
"155 187 LINE"
);
}
);
width = 1200;
}
);
unicode = 00DE;
},
{
glyphname = Q;
layers = (
{
anchors = (
{
name = bottom;
position = "{438, -388}";
},
{
name = top;
position = "{757, 1420}";
}
);
components = (
{
name = O;
}
);
layerId = "7062B15D-7097-4448-A185-D08BD1167FB1";
paths = (
{
closed = 1;
nodes = (
"865 -460 LINE",
"899 -270 LINE",
"847 -270 LINE SMOOTH",
"674 -270 OFFCURVE",
"602 -188 OFFCURVE",
"632 -22 CURVE SMOOTH",
"647 62 LINE",
"438 62 LINE",
"424 -20 LINE SMOOTH",
"374 -314 OFFCURVE",
"502 -460 OFFCURVE",
"815 -460 CURVE SMOOTH"
);
}
);
width = 1200;
},
{
anchors = (
{
name = bottom;
position = "{438, -388}";
},
{
name = top;
position = "{757, 1420}";
}
);
components = (
{
name = O;
}
);
layerId = "84EC96F5-B4D5-4389-883B-FBB110B3398F";
paths = (
{
closed = 1;
nodes = (
"889 -460 LINE",
"933 -210 LINE",
"868 -210 LINE SMOOTH",
"698 -210 OFFCURVE",
"628 -147 OFFCURVE",
"651 -22 CURVE SMOOTH",
"666 62 LINE",
"418 62 LINE",
"404 -20 LINE SMOOTH",
"353 -314 OFFCURVE",
"492 -460 OFFCURVE",
"825 -460 CURVE SMOOTH"
);
}
);
width = 1200;
},
{
anchors = (
{
name = bottom;
position = "{438, -388}";
},
{
name = top;
position = "{757, 1420}";
}
);
components = (
{
name = O;
}
);
layerId = "A4690C19-62E3-4552-AAB4-AF5F97C4421F";
paths = (
{
closed = 1;
nodes = (
"839 -460 LINE",
"856 -372 LINE",
"821 -372 LINE SMOOTH",
"629 -372 OFFCURVE",
"537 -244 OFFCURVE",
"576 -22 CURVE SMOOTH",
"587 42 LINE",
"497 42 LINE",
"486 -20 LINE SMOOTH",
"437 -299 OFFCURVE",
"561 -460 OFFCURVE",
"816 -460 CURVE SMOOTH"
);
}
);
width = 1200;
}
);
unicode = 0051;
},
{
glyphname = R;
layers = (
{
anchors = (
{
name = bottom;
position = "{506, 0}";
},
{
name = top;
position = "{707, 1420}";
}
);
layerId = "7062B15D-7097-4448-A185-D08BD1167FB1";
paths = (
{
closed = 1;
nodes = (
"273 450 LINE SMOOTH",
"870 450 OFFCURVE",
"1181 649 OFFCURVE",
"1181 1031 CURVE SMOOTH",
"1181 1300 OFFCURVE",
"990 1440 OFFCURVE",
"625 1440 CURVE SMOOTH",
"493 1440 OFFCURVE",
"380 1433 OFFCURVE",
"297 1420 CURVE",
"264 1230 LINE",
"352 1243 OFFCURVE",
"472 1250 OFFCURVE",
"612 1250 CURVE SMOOTH",
"845 1250 OFFCURVE",
"967 1170 OFFCURVE",
"967 1018 CURVE SMOOTH",
"967 770 OFFCURVE",
"740 640 OFFCURVE",
"306 640 CURVE SMOOTH",
"194 640 LINE",
"161 450 LINE"
);
},
{
closed = 1;
nodes = (
"255 0 LINE",
"505 1420 LINE",
"297 1420 LINE",
"47 0 LINE"
);
},
{
closed = 1;
nodes = (
"1049 0 LINE",
"839 630 LINE",
"624 630 LINE",
"820 0 LINE"
);
}
);
width = 1200;
},
{
anchors = (
{
name = bottom;
position = "{506, 0}";
},
{
name = top;
position = "{707, 1420}";
}
);
layerId = "84EC96F5-B4D5-4389-883B-FBB110B3398F";
paths = (
{
closed = 1;
nodes = (
"273 420 LINE SMOOTH",
"883 420 OFFCURVE",
"1201 623 OFFCURVE",
"1201 1011 CURVE SMOOTH",
"1201 1293 OFFCURVE",
"1004 1440 OFFCURVE",
"625 1440 CURVE SMOOTH",
"486 1440 OFFCURVE",
"368 1433 OFFCURVE",
"280 1420 CURVE",
"247 1168 LINE",
"340 1181 OFFCURVE",
"465 1188 OFFCURVE",
"612 1188 CURVE SMOOTH",
"817 1188 OFFCURVE",
"924 1123 OFFCURVE",
"924 998 CURVE SMOOTH",
"924 782 OFFCURVE",
"713 670 OFFCURVE",
"306 670 CURVE SMOOTH",
"194 670 LINE",
"161 420 LINE"
);
},
{
closed = 1;
nodes = (
"296 0 LINE",
"546 1420 LINE",
"280 1420 LINE",
"30 0 LINE"
);
},
{
closed = 1;
nodes = (
"1069 0 LINE",
"859 630 LINE",
"574 630 LINE",
"770 0 LINE"
);
}
);
width = 1200;
},
{
anchors = (
{
name = bottom;
position = "{506, 0}";
},
{
name = top;
position = "{707, 1420}";
}
);
layerId = "A4690C19-62E3-4552-AAB4-AF5F97C4421F";
paths = (
{
closed = 1;
nodes = (
"253 500 LINE SMOOTH",
"846 500 OFFCURVE",
"1155 686 OFFCURVE",
"1155 1041 CURVE SMOOTH",
"1155 1304 OFFCURVE",
"970 1440 OFFCURVE",
"615 1440 CURVE SMOOTH",
"497 1440 OFFCURVE",
"395 1433 OFFCURVE",
"321 1420 CURVE",
"328 1330 LINE",
"395 1343 OFFCURVE",
"486 1350 OFFCURVE",
"592 1350 CURVE SMOOTH",
"899 1350 OFFCURVE",
"1059 1242 OFFCURVE",
"1059 1038 CURVE SMOOTH",
"1059 744 OFFCURVE",
"794 590 OFFCURVE",
"286 590 CURVE SMOOTH",
"224 590 LINE",
"211 500 LINE"
);
},
{
closed = 1;
nodes = (
"167 0 LINE",
"417 1420 LINE",
"321 1420 LINE",
"71 0 LINE"
);
},
{
closed = 1;
nodes = (
"1029 0 LINE",
"809 610 LINE",
"704 610 LINE",
"920 0 LINE"
);
}
);
width = 1200;
}
);
unicode = 0052;
},
{
glyphname = S;
layers = (
{
anchors = (
{
name = bottom;
position = "{506, 0}";
},
{
name = top;
position = "{757, 1420}";
}
);
layerId = "7062B15D-7097-4448-A185-D08BD1167FB1";
paths = (
{
closed = 1;
nodes = (
"840 -20 OFFCURVE",
"1026 114 OFFCURVE",
"1026 372 CURVE SMOOTH",
"1026 500 OFFCURVE",
"972 589 OFFCURVE",
"845 692 CURVE SMOOTH",
"599 890 LINE SMOOTH",
"528 947 OFFCURVE",
"498 1024 OFFCURVE",
"498 1084 CURVE SMOOTH",
"498 1197 OFFCURVE",
"580 1256 OFFCURVE",
"727 1256 CURVE SMOOTH",
"831 1256 OFFCURVE",
"935 1209 OFFCURVE",
"1032 1119 CURVE",
"1177 1271 LINE",
"1071 1382 OFFCURVE",
"921 1440 OFFCURVE",
"739 1440 CURVE SMOOTH",
"443 1440 OFFCURVE",
"284 1312 OFFCURVE",
"284 1067 CURVE SMOOTH",
"284 962 OFFCURVE",
"329 844 OFFCURVE",
"432 760 CURVE SMOOTH",
"718 528 LINE SMOOTH",
"785 474 OFFCURVE",
"812 424 OFFCURVE",
"812 349 CURVE SMOOTH",
"812 227 OFFCURVE",
"706 164 OFFCURVE",
"505 164 CURVE SMOOTH",
"381 164 OFFCURVE",
"246 193 OFFCURVE",
"110 250 CURVE",
"48 68 LINE",
"166 10 OFFCURVE",
"316 -20 OFFCURVE",
"486 -20 CURVE SMOOTH"
);
}
);
width = 1200;
},
{
anchors = (
{
name = bottom;
position = "{506, 0}";
},
{
name = top;
position = "{757, 1420}";
}
);
layerId = "84EC96F5-B4D5-4389-883B-FBB110B3398F";
paths = (
{
closed = 1;
nodes = (
"850 -20 OFFCURVE",
"1050 131 OFFCURVE",
"1050 422 CURVE SMOOTH",
"1050 542 OFFCURVE",
"1007 644 OFFCURVE",
"873 726 CURVE SMOOTH",
"605 890 LINE SMOOTH",
"539 931 OFFCURVE",
"504 984 OFFCURVE",
"504 1044 CURVE SMOOTH",
"504 1137 OFFCURVE",
"575 1186 OFFCURVE",
"710 1186 CURVE SMOOTH",
"817 1186 OFFCURVE",
"926 1142 OFFCURVE",
"1026 1059 CURVE",
"1171 1281 LINE",
"1063 1385 OFFCURVE",
"908 1440 OFFCURVE",
"722 1440 CURVE SMOOTH",
"400 1440 OFFCURVE",
"227 1288 OFFCURVE",
"227 997 CURVE SMOOTH",
"227 888 OFFCURVE",
"270 762 OFFCURVE",
"396 685 CURVE SMOOTH",
"686 508 LINE SMOOTH",
"748 470 OFFCURVE",
"773 439 OFFCURVE",
"773 389 CURVE SMOOTH",
"773 287 OFFCURVE",
"676 234 OFFCURVE",
"488 234 CURVE SMOOTH",
"364 234 OFFCURVE",
"229 263 OFFCURVE",
"93 320 CURVE",
"31 68 LINE",
"149 10 OFFCURVE",
"299 -20 OFFCURVE",
"469 -20 CURVE SMOOTH"
);
}
);
width = 1200;
},
{
anchors = (
{
name = bottom;
position = "{506, 0}";
},
{
name = top;
position = "{757, 1420}";
}
);
layerId = "A4690C19-62E3-4552-AAB4-AF5F97C4421F";
paths = (
{
closed = 1;
nodes = (
"813 -20 OFFCURVE",
"1007 114 OFFCURVE",
"1007 342 CURVE SMOOTH",
"1007 459 OFFCURVE",
"923 543 OFFCURVE",
"823 630 CURVE SMOOTH",
"549 864 LINE SMOOTH",
"466 936 OFFCURVE",
"400 1013 OFFCURVE",
"400 1114 CURVE SMOOTH",
"400 1262 OFFCURVE",
"521 1350 OFFCURVE",
"727 1350 CURVE SMOOTH",
"859 1350 OFFCURVE",
"982 1309 OFFCURVE",
"1086 1201 CURVE",
"1157 1271 LINE",
"1056 1382 OFFCURVE",
"913 1440 OFFCURVE",
"739 1440 CURVE SMOOTH",
"466 1440 OFFCURVE",
"304 1313 OFFCURVE",
"304 1097 CURVE SMOOTH",
"304 981 OFFCURVE",
"373 891 OFFCURVE",
"462 814 CURVE SMOOTH",
"776 546 LINE SMOOTH",
"850 482 OFFCURVE",
"911 412 OFFCURVE",
"911 319 CURVE SMOOTH",
"911 162 OFFCURVE",
"760 70 OFFCURVE",
"505 70 CURVE SMOOTH",
"377 70 OFFCURVE",
"242 101 OFFCURVE",
"108 160 CURVE",
"71 64 LINE",
"183 9 OFFCURVE",
"325 -20 OFFCURVE",
"486 -20 CURVE SMOOTH"
);
}
);
width = 1200;
}
);
unicode = 0053;
},
{
glyphname = Germandbls;
production = uni1E9E;
layers = (
{
anchors = (
{
name = bottom;
position = "{506, 0}";
},
{
name = top;
position = "{757, 1420}";
}
);
layerId = "7062B15D-7097-4448-A185-D08BD1167FB1";
paths = (
{
closed = 1;
nodes = (
"255 0 LINE",
"419 930 LINE SMOOTH",
"458 1154 OFFCURVE",
"573 1256 OFFCURVE",
"785 1256 CURVE SMOOTH",
"898 1256 OFFCURVE",
"987 1209 OFFCURVE",
"1043 1120 CURVE",
"1242 1270 LINE",
"1143 1382 OFFCURVE",
"998 1440 OFFCURVE",
"817 1440 CURVE SMOOTH",
"463 1440 OFFCURVE",
"273 1280 OFFCURVE",
"211 930 CURVE SMOOTH",
"47 0 LINE"
);
},
{
closed = 1;
nodes = (
"963 -20 OFFCURVE",
"1151 143 OFFCURVE",
"1151 455 CURVE SMOOTH",
"1151 633 OFFCURVE",
"1078 752 OFFCURVE",
"874 846 CURVE",
"885 817 LINE",
"1243 1270 LINE",
"1023 1300 LINE",
"587 755 LINE",
"655 727 LINE SMOOTH",
"837 652 OFFCURVE",
"937 578 OFFCURVE",
"937 438 CURVE SMOOTH",
"937 266 OFFCURVE",
"820 164 OFFCURVE",
"623 164 CURVE SMOOTH",
"557 164 OFFCURVE",
"484 172 OFFCURVE",
"423 185 CURVE",
"366 3 LINE",
"424 -11 OFFCURVE",
"510 -20 OFFCURVE",
"604 -20 CURVE SMOOTH"
);
}
);
width = 1200;
},
{
anchors = (
{
name = bottom;
position = "{506, 0}";
},
{
name = top;
position = "{757, 1420}";
}
);
layerId = "84EC96F5-B4D5-4389-883B-FBB110B3398F";
paths = (
{
closed = 1;
nodes = (
"296 0 LINE",
"460 930 LINE SMOOTH",
"492 1107 OFFCURVE",
"590 1188 OFFCURVE",
"773 1188 CURVE SMOOTH",
"883 1188 OFFCURVE",
"969 1141 OFFCURVE",
"1025 1052 CURVE",
"1252 1270 LINE",
"1151 1382 OFFCURVE",
"1002 1440 OFFCURVE",
"817 1440 CURVE SMOOTH",
"451 1440 OFFCURVE",
"255 1280 OFFCURVE",
"194 930 CURVE SMOOTH",
"30 0 LINE"
);
},
{
closed = 1;
nodes = (
"975 -20 OFFCURVE",
"1169 140 OFFCURVE",
"1169 445 CURVE SMOOTH",
"1169 625 OFFCURVE",
"1099 745 OFFCURVE",
"904 840 CURVE",
"925 801 LINE",
"1253 1270 LINE",
"974 1300 LINE",
"576 689 LINE",
"659 663 LINE SMOOTH",
"811 616 OFFCURVE",
"891 541 OFFCURVE",
"891 428 CURVE SMOOTH",
"891 305 OFFCURVE",
"795 232 OFFCURVE",
"633 232 CURVE SMOOTH",
"567 232 OFFCURVE",
"494 240 OFFCURVE",
"433 253 CURVE",
"366 3 LINE",
"424 -11 OFFCURVE",
"510 -20 OFFCURVE",
"604 -20 CURVE SMOOTH"
);
}
);
width = 1200;
},
{
anchors = (
{
name = bottom;
position = "{506, 0}";
},
{
name = top;
position = "{757, 1420}";
}
);
layerId = "A4690C19-62E3-4552-AAB4-AF5F97C4421F";
paths = (
{
closed = 1;
nodes = (
"169 0 LINE",
"333 930 LINE SMOOTH",
"384 1218 OFFCURVE",
"531 1350 OFFCURVE",
"800 1350 CURVE SMOOTH",
"942 1350 OFFCURVE",
"1052 1302 OFFCURVE",
"1123 1210 CURVE",
"1209 1270 LINE",
"1118 1382 OFFCURVE",
"984 1440 OFFCURVE",
"817 1440 CURVE SMOOTH",
"481 1440 OFFCURVE",
"299 1280 OFFCURVE",
"237 930 CURVE SMOOTH",
"73 0 LINE"
);
},
{
closed = 1;
nodes = (
"912 -20 OFFCURVE",
"1118 168 OFFCURVE",
"1118 485 CURVE SMOOTH",
"1118 649 OFFCURVE",
"1025 779 OFFCURVE",
"841 846 CURVE",
"842 817 LINE",
"1210 1270 LINE",
"1115 1300 LINE",
"705 794 LINE",
"793 764 LINE SMOOTH",
"940 714 OFFCURVE",
"1021 611 OFFCURVE",
"1021 478 CURVE SMOOTH",
"1021 222 OFFCURVE",
"863 70 OFFCURVE",
"596 70 CURVE SMOOTH",
"530 70 OFFCURVE",
"457 78 OFFCURVE",
"396 91 CURVE",
"366 3 LINE",
"414 -11 OFFCURVE",
"486 -20 OFFCURVE",
"564 -20 CURVE SMOOTH"
);
}
);
width = 1200;
}
);
unicode = 1E9E;
},
{
glyphname = Schwa;
production = uni018F;
layers = (
{
anchors = (
{
name = bottom;
position = "{506, 0}";
},
{
name = top;
position = "{757, 1420}";
}
);
layerId = "7062B15D-7097-4448-A185-D08BD1167FB1";
paths = (
{
closed = 1;
nodes = (
"811 1256 OFFCURVE",
"960 1101 OFFCURVE",
"962 839 CURVE SMOOTH",
"961 415 OFFCURVE",
"788 164 OFFCURVE",
"497 164 CURVE SMOOTH",
"368 164 OFFCURVE",
"293 230 OFFCURVE",
"293 343 CURVE SMOOTH",
"293 565 OFFCURVE",
"556 701 OFFCURVE",
"1003 709 CURVE",
"962 893 LINE",
"406 882 OFFCURVE",
"79 672 OFFCURVE",
"79 330 CURVE SMOOTH",
"79 110 OFFCURVE",
"223 -20 OFFCURVE",
"469 -20 CURVE SMOOTH",
"913 -20 OFFCURVE",
"1176 304 OFFCURVE",
"1176 851 CURVE SMOOTH",
"1176 1221 OFFCURVE",
"950 1440 OFFCURVE",
"569 1440 CURVE SMOOTH",
"460 1440 OFFCURVE",
"331 1416 OFFCURVE",
"225 1376 CURVE",
"279 1195 LINE",
"369 1233 OFFCURVE",
"474 1256 OFFCURVE",
"560 1256 CURVE SMOOTH"
);
}
);
width = 1200;
},
{
anchors = (
{
name = bottom;
position = "{506, 0}";
},
{
name = top;
position = "{757, 1420}";
}
);
layerId = "84EC96F5-B4D5-4389-883B-FBB110B3398F";
paths = (
{
closed = 1;
nodes = (
"781 1189 OFFCURVE",
"909 1059 OFFCURVE",
"911 839 CURVE SMOOTH",
"910 458 OFFCURVE",
"751 232 OFFCURVE",
"483 232 CURVE SMOOTH",
"393 232 OFFCURVE",
"340 280 OFFCURVE",
"340 361 CURVE SMOOTH",
"340 547 OFFCURVE",
"588 660 OFFCURVE",
"1009 667 CURVE",
"968 919 LINE",
"398 906 OFFCURVE",
"62 676 OFFCURVE",
"62 300 CURVE SMOOTH",
"62 108 OFFCURVE",
"211 -20 OFFCURVE",
"435 -20 CURVE SMOOTH",
"912 -20 OFFCURVE",
"1194 304 OFFCURVE",
"1194 851 CURVE SMOOTH",
"1194 1221 OFFCURVE",
"964 1440 OFFCURVE",
"575 1440 CURVE SMOOTH",
"456 1440 OFFCURVE",
"316 1416 OFFCURVE",
"200 1376 CURVE",
"254 1128 LINE",
"354 1166 OFFCURVE",
"470 1189 OFFCURVE",
"566 1189 CURVE SMOOTH"
);
}
);
width = 1200;
},
{
anchors = (
{
name = bottom;
position = "{506, 0}";
},
{
name = top;
position = "{757, 1420}";
}
);
layerId = "A4690C19-62E3-4552-AAB4-AF5F97C4421F";
paths = (
{
closed = 1;
nodes = (
"879 1350 OFFCURVE",
"1066 1160 OFFCURVE",
"1068 839 CURVE SMOOTH",
"1067 356 OFFCURVE",
"838 70 OFFCURVE",
"451 70 CURVE SMOOTH",
"297 70 OFFCURVE",
"195 167 OFFCURVE",
"195 313 CURVE SMOOTH",
"195 584 OFFCURVE",
"538 749 OFFCURVE",
"1119 759 CURVE",
"1078 849 LINE",
"463 838 OFFCURVE",
"99 634 OFFCURVE",
"99 300 CURVE SMOOTH",
"99 108 OFFCURVE",
"233 -20 OFFCURVE",
"435 -20 CURVE SMOOTH",
"893 -20 OFFCURVE",
"1164 304 OFFCURVE",
"1164 851 CURVE SMOOTH",
"1164 1221 OFFCURVE",
"945 1440 OFFCURVE",
"575 1440 CURVE SMOOTH",
"469 1440 OFFCURVE",
"345 1416 OFFCURVE",
"242 1376 CURVE",
"272 1288 LINE",
"366 1327 OFFCURVE",
"476 1350 OFFCURVE",
"566 1350 CURVE SMOOTH"
);
}
);
width = 1200;
}
);
unicode = 018F;
},
{
glyphname = T;
layers = (
{
anchors = (
{
name = bottom;
position = "{506, 0}";
},
{
name = center;
position = "{631, 710}";
},
{
name = top;
position = "{757, 1420}";
}
);
layerId = "7062B15D-7097-4448-A185-D08BD1167FB1";
paths = (
{
closed = 1;
nodes = (
"610 0 LINE",
"861 1420 LINE",
"653 1420 LINE",
"402 0 LINE"
);
},
{
closed = 1;
nodes = (
"1243 1230 LINE",
"1276 1420 LINE",
"237 1420 LINE",
"204 1230 LINE"
);
}
);
width = 1200;
},
{
anchors = (
{
name = bottom;
position = "{506, 0}";
},
{
name = center;
position = "{631, 710}";
},
{
name = top;
position = "{757, 1420}";
}
);
layerId = "84EC96F5-B4D5-4389-883B-FBB110B3398F";
paths = (
{
closed = 1;
nodes = (
"638 0 LINE",
"888 1420 LINE",
"622 1420 LINE",
"372 0 LINE"
);
},
{
closed = 1;
nodes = (
"1232 1176 LINE",
"1275 1420 LINE",
"239 1420 LINE",
"196 1176 LINE"
);
}
);
width = 1200;
},
{
anchors = (
{
name = bottom;
position = "{506, 0}";
},
{
name = center;
position = "{631, 710}";
},
{
name = top;
position = "{757, 1420}";
}
);
layerId = "A4690C19-62E3-4552-AAB4-AF5F97C4421F";
paths = (
{
closed = 1;
nodes = (
"554 0 LINE",
"805 1420 LINE",
"709 1420 LINE",
"458 0 LINE"
);
},
{
closed = 1;
nodes = (
"1237 1330 LINE",
"1253 1420 LINE",
"261 1420 LINE",
"246 1330 LINE"
);
}
);
width = 1200;
}
);
unicode = 0054;
},
{
glyphname = Tbar;
layers = (
{
components = (
{
name = T;
}
);
layerId = "7062B15D-7097-4448-A185-D08BD1167FB1";
paths = (
{
closed = 1;
nodes = (
"1018 587 LINE",
"1052 777 LINE",
"236 777 LINE",
"202 587 LINE"
);
}
);
width = 1200;
},
{
components = (
{
name = T;
}
);
layerId = "84EC96F5-B4D5-4389-883B-FBB110B3398F";
paths = (
{
closed = 1;
nodes = (
"1032 561 LINE",
"1074 803 LINE",
"218 803 LINE",
"176 561 LINE"
);
}
);
width = 1200;
},
{
components = (
{
name = T;
}
);
layerId = "A4690C19-62E3-4552-AAB4-AF5F97C4421F";
paths = (
{
closed = 1;
nodes = (
"1027 637 LINE",
"1043 727 LINE",
"227 727 LINE",
"211 637 LINE"
);
}
);
width = 1200;
}
);
unicode = 0166;
},
{
glyphname = Tdiagonalstroke;
layers = (
{
anchors = (
{
name = bottom;
position = "{438, -388}";
},
{
name = top;
position = "{770, 1500}";
}
);
components = (
{
name = T;
}
);
layerId = "7062B15D-7097-4448-A185-D08BD1167FB1";
paths = (
{
closed = 1;
nodes = (
"1312 1667 LINE",
"1195 1728 LINE",
"95 -295 LINE",
"200 -352 LINE"
);
}
);
width = 1200;
},
{
anchors = (
{
name = bottom;
position = "{438, -388}";
},
{
name = top;
position = "{770, 1500}";
}
);
components = (
{
name = T;
}
);
layerId = "84EC96F5-B4D5-4389-883B-FBB110B3398F";
paths = (
{
closed = 1;
nodes = (
"1386 1658 LINE",
"1223 1739 LINE",
"23 -285 LINE",
"174 -362 LINE"
);
}
);
width = 1200;
},
{
anchors = (
{
name = bottom;
position = "{438, -388}";
},
{
name = top;
position = "{770, 1500}";
}
);
components = (
{
name = T;
}
);
layerId = "A4690C19-62E3-4552-AAB4-AF5F97C4421F";
paths = (
{
closed = 1;
nodes = (
"1295 1679 LINE",
"1211 1719 LINE",
"114 -304 LINE",
"186 -340 LINE"
);
}
);
width = 1200;
}
);
unicode = 023E;
},
{
glyphname = U;
layers = (
{
anchors = (
{
name = bottom;
position = "{506, 0}";
},
{
name = ogonek;
position = "{973, 10}";
},
{
name = top;
position = "{757, 1420}";
},
{
name = topright;
position = "{1372, 1420}";
}
);
layerId = "7062B15D-7097-4448-A185-D08BD1167FB1";
paths = (
{
closed = 1;
nodes = (
"819 -20 OFFCURVE",
"991 138 OFFCURVE",
"1047 456 CURVE SMOOTH",
"1217 1420 LINE",
"1009 1420 LINE",
"839 456 LINE SMOOTH",
"805 262 OFFCURVE",
"712 164 OFFCURVE",
"556 164 CURVE SMOOTH",
"377 164 OFFCURVE",
"301 264 OFFCURVE",
"335 456 CURVE SMOOTH",
"505 1420 LINE",
"297 1420 LINE",
"127 456 LINE SMOOTH",
"72 143 OFFCURVE",
"211 -20 OFFCURVE",
"539 -20 CURVE SMOOTH"
);
}
);
width = 1200;
},
{
anchors = (
{
name = bottom;
position = "{506, 0}";
},
{
name = ogonek;
position = "{973, 10}";
},
{
name = top;
position = "{757, 1420}";
},
{
name = topright;
position = "{1372, 1420}";
}
);
layerId = "84EC96F5-B4D5-4389-883B-FBB110B3398F";
paths = (
{
closed = 1;
nodes = (
"829 -20 OFFCURVE",
"1009 143 OFFCURVE",
"1064 456 CURVE SMOOTH",
"1234 1420 LINE",
"968 1420 LINE",
"798 456 LINE SMOOTH",
"772 310 OFFCURVE",
"689 234 OFFCURVE",
"556 234 CURVE SMOOTH",
"412 234 OFFCURVE",
"350 310 OFFCURVE",
"376 456 CURVE SMOOTH",
"546 1420 LINE",
"280 1420 LINE",
"110 456 LINE SMOOTH",
"55 143 OFFCURVE",
"202 -20 OFFCURVE",
"539 -20 CURVE SMOOTH"
);
}
);
width = 1200;
},
{
anchors = (
{
name = bottom;
position = "{506, 0}";
},
{
name = ogonek;
position = "{973, 10}";
},
{
name = top;
position = "{757, 1420}";
},
{
name = topright;
position = "{1372, 1420}";
}
);
layerId = "A4690C19-62E3-4552-AAB4-AF5F97C4421F";
paths = (
{
closed = 1;
nodes = (
"796 -20 OFFCURVE",
"968 143 OFFCURVE",
"1023 456 CURVE SMOOTH",
"1193 1420 LINE",
"1097 1420 LINE",
"927 456 LINE SMOOTH",
"882 202 OFFCURVE",
"746 70 OFFCURVE",
"536 70 CURVE SMOOTH",
"302 70 OFFCURVE",
"202 203 OFFCURVE",
"247 456 CURVE SMOOTH",
"417 1420 LINE",
"321 1420 LINE",
"151 456 LINE SMOOTH",
"96 143 OFFCURVE",
"225 -20 OFFCURVE",
"524 -20 CURVE SMOOTH"
);
}
);
width = 1200;
}
);
unicode = 0055;
},
{
glyphname = Uhorn;
layers = (
{
components = (
{
name = U;
}
);
layerId = "7062B15D-7097-4448-A185-D08BD1167FB1";
paths = (
{
closed = 1;
nodes = (
"1101 1265 LINE SMOOTH",
"1325 1301 OFFCURVE",
"1457 1428 OFFCURVE",
"1496 1653 CURVE",
"1282 1653 LINE",
"1262 1523 OFFCURVE",
"1196 1448 OFFCURVE",
"1080 1430 CURVE SMOOTH",
"1017 1420 LINE",
"1039 1255 LINE"
);
}
);
width = 1200;
},
{
components = (
{
name = U;
}
);
layerId = "84EC96F5-B4D5-4389-883B-FBB110B3398F";
paths = (
{
closed = 1;
nodes = (
"1092 1215 LINE SMOOTH",
"1318 1252 OFFCURVE",
"1452 1399 OFFCURVE",
"1496 1653 CURVE",
"1218 1653 LINE",
"1197 1518 OFFCURVE",
"1135 1425 OFFCURVE",
"1035 1422 CURVE SMOOTH",
"984 1420 LINE",
"1031 1205 LINE"
);
}
);
width = 1200;
},
{
components = (
{
name = U;
}
);
layerId = "A4690C19-62E3-4552-AAB4-AF5F97C4421F";
paths = (
{
closed = 1;
nodes = (
"1172 1345 LINE SMOOTH",
"1351 1375 OFFCURVE",
"1442 1460 OFFCURVE",
"1476 1653 CURVE",
"1380 1653 LINE",
"1356 1512 OFFCURVE",
"1293 1451 OFFCURVE",
"1167 1430 CURVE SMOOTH",
"1105 1420 LINE",
"1110 1335 LINE"
);
}
);
width = 1200;
}
);
unicode = 01AF;
},
{
glyphname = Uogonek;
layers = (
{
anchors = (
{
name = bottom;
position = "{438, -388}";
}
);
components = (
{
name = U;
}
);
layerId = "7062B15D-7097-4448-A185-D08BD1167FB1";
paths = (
{
closed = 1;
nodes = (
"572 -424 OFFCURVE",
"633 -413 OFFCURVE",
"691 -391 CURVE",
"659 -232 LINE",
"618 -248 OFFCURVE",
"576 -256 OFFCURVE",
"537 -256 CURVE SMOOTH",
"474 -256 OFFCURVE",
"441 -227 OFFCURVE",
"441 -173 CURVE SMOOTH",
"441 -67 OFFCURVE",
"567 -35 OFFCURVE",
"672 -6 CURVE",
"664 24 LINE",
"434 21 LINE",
"434 -29 LINE",
"349 -65 OFFCURVE",
"291 -133 OFFCURVE",
"291 -232 CURVE SMOOTH",
"291 -361 OFFCURVE",
"366 -424 OFFCURVE",
"511 -424 CURVE SMOOTH"
);
}
);
width = 1200;
},
{
anchors = (
{
name = bottom;
position = "{438, -388}";
}
);
components = (
{
name = U;
}
);
layerId = "84EC96F5-B4D5-4389-883B-FBB110B3398F";
paths = (
{
closed = 1;
nodes = (
"551 -424 OFFCURVE",
"640 -405 OFFCURVE",
"702 -378 CURVE",
"660 -164 LINE",
"617 -177 OFFCURVE",
"572 -185 OFFCURVE",
"532 -185 CURVE SMOOTH",
"480 -185 OFFCURVE",
"453 -167 OFFCURVE",
"453 -132 CURVE SMOOTH",
"453 -75 OFFCURVE",
"554 -33 OFFCURVE",
"666 -8 CURVE",
"627 22 LINE",
"397 12 LINE",
"397 -38 LINE",
"290 -89 OFFCURVE",
"226 -159 OFFCURVE",
"226 -255 CURVE SMOOTH",
"226 -368 OFFCURVE",
"312 -424 OFFCURVE",
"475 -424 CURVE SMOOTH"
);
}
);
width = 1200;
},
{
anchors = (
{
name = bottom;
position = "{438, -388}";
}
);
components = (
{
name = U;
}
);
layerId = "A4690C19-62E3-4552-AAB4-AF5F97C4421F";
paths = (
{
closed = 1;
nodes = (
"556 -423 OFFCURVE",
"598 -417 OFFCURVE",
"627 -405 CURVE",
"614 -322 LINE",
"594 -329 OFFCURVE",
"563 -336 OFFCURVE",
"529 -336 CURVE SMOOTH",
"450 -336 OFFCURVE",
"407 -301 OFFCURVE",
"407 -234 CURVE SMOOTH",
"407 -95 OFFCURVE",
"547 -34 OFFCURVE",
"671 -1 CURVE",
"586 34 LINE",
"476 52 LINE",
"476 -24 LINE",
"365 -77 OFFCURVE",
"313 -162 OFFCURVE",
"313 -254 CURVE SMOOTH",
"313 -364 OFFCURVE",
"382 -423 OFFCURVE",
"513 -423 CURVE SMOOTH"
);
}
);
width = 1200;
}
);
unicode = 0172;
},
{
glyphname = Upsilonafrican;
layers = (
{
anchors = (
{
name = bottom;
position = "{506, 0}";
},
{
name = top;
position = "{757, 1420}";
}
);
layerId = "7062B15D-7097-4448-A185-D08BD1167FB1";
paths = (
{
closed = 1;
nodes = (
"471 1212 LINE",
"222 1089 OFFCURVE",
"76 808 OFFCURVE",
"76 458 CURVE SMOOTH",
"76 158 OFFCURVE",
"235 -20 OFFCURVE",
"504 -20 CURVE SMOOTH",
"921 -20 OFFCURVE",
"1167 302 OFFCURVE",
"1167 847 CURVE SMOOTH",
"1167 1027 OFFCURVE",
"1105 1162 OFFCURVE",
"1000 1212 CURVE",
"1000 1285 LINE",
"793 1234 LINE",
"893 1193 OFFCURVE",
"953 1055 OFFCURVE",
"953 864 CURVE SMOOTH",
"953 424 OFFCURVE",
"798 164 OFFCURVE",
"535 164 CURVE SMOOTH",
"381 164 OFFCURVE",
"290 278 OFFCURVE",
"290 470 CURVE SMOOTH",
"290 824 OFFCURVE",
"425 1108 OFFCURVE",
"654 1234 CURVE",
"471 1293 LINE"
);
},
{
closed = 1;
nodes = (
"227 1234 LINE",
"654 1234 LINE",
"687 1420 LINE",
"260 1420 LINE"
);
},
{
closed = 1;
nodes = (
"793 1234 LINE",
"1214 1234 LINE",
"1247 1420 LINE",
"826 1420 LINE"
);
}
);
width = 1200;
},
{
anchors = (
{
name = bottom;
position = "{506, 0}";
},
{
name = top;
position = "{757, 1420}";
}
);
layerId = "84EC96F5-B4D5-4389-883B-FBB110B3398F";
paths = (
{
closed = 1;
nodes = (
"454 1150 LINE",
"208 1080 OFFCURVE",
"62 831 OFFCURVE",
"62 478 CURVE SMOOTH",
"62 165 OFFCURVE",
"226 -20 OFFCURVE",
"504 -20 CURVE SMOOTH",
"930 -20 OFFCURVE",
"1181 283 OFFCURVE",
"1181 797 CURVE SMOOTH",
"1181 971 OFFCURVE",
"1108 1102 OFFCURVE",
"983 1150 CURVE",
"983 1228 LINE",
"763 1177 LINE",
"851 1143 OFFCURVE",
"903 1026 OFFCURVE",
"903 864 CURVE SMOOTH",
"903 467 OFFCURVE",
"771 232 OFFCURVE",
"547 232 CURVE SMOOTH",
"417 232 OFFCURVE",
"340 332 OFFCURVE",
"340 500 CURVE SMOOTH",
"340 854 OFFCURVE",
"461 1105 OFFCURVE",
"664 1177 CURVE",
"454 1236 LINE"
);
},
{
closed = 1;
nodes = (
"197 1177 LINE",
"664 1177 LINE",
"707 1420 LINE",
"240 1420 LINE"
);
},
{
closed = 1;
nodes = (
"763 1177 LINE",
"1224 1177 LINE",
"1267 1420 LINE",
"806 1420 LINE"
);
}
);
width = 1200;
},
{
anchors = (
{
name = bottom;
position = "{506, 0}";
},
{
name = top;
position = "{757, 1420}";
}
);
layerId = "A4690C19-62E3-4552-AAB4-AF5F97C4421F";
paths = (
{
closed = 1;
nodes = (
"508 1318 LINE",
"231 1168 OFFCURVE",
"86 888 OFFCURVE",
"86 468 CURVE SMOOTH",
"86 162 OFFCURVE",
"241 -20 OFFCURVE",
"504 -20 CURVE SMOOTH",
"914 -20 OFFCURVE",
"1157 317 OFFCURVE",
"1157 887 CURVE SMOOTH",
"1157 1098 OFFCURVE",
"1091 1259 OFFCURVE",
"977 1318 CURVE",
"977 1381 LINE",
"835 1330 LINE",
"978 1281 OFFCURVE",
"1061 1119 OFFCURVE",
"1061 894 CURVE SMOOTH",
"1061 376 OFFCURVE",
"859 70 OFFCURVE",
"518 70 CURVE SMOOTH",
"307 70 OFFCURVE",
"182 218 OFFCURVE",
"182 470 CURVE SMOOTH",
"182 891 OFFCURVE",
"341 1164 OFFCURVE",
"646 1330 CURVE",
"508 1389 LINE"
);
},
{
closed = 1;
nodes = (
"264 1330 LINE",
"646 1330 LINE",
"662 1420 LINE",
"280 1420 LINE"
);
},
{
closed = 1;
nodes = (
"835 1330 LINE",
"1211 1330 LINE",
"1227 1420 LINE",
"851 1420 LINE"
);
}
);
width = 1200;
}
);
unicode = 01B1;
},
{
glyphname = V;
layers = (
{
anchors = (
{
name = bottom;
position = "{506, 0}";
},
{
name = top;
position = "{757, 1420}";
}
);
layerId = "7062B15D-7097-4448-A185-D08BD1167FB1";
paths = (
{
closed = 1;
nodes = (
"599 0 LINE",
"928 368 OFFCURVE",
"1155 856 OFFCURVE",
"1312 1420 CURVE",
"1098 1420 LINE",
"950 924 OFFCURVE",
"763 503 OFFCURVE",
"512 172 CURVE",
"494 172 LINE",
"414 1432 LINE",
"202 1420 LINE",
"307 0 LINE"
);
}
);
width = 1200;
},
{
anchors = (
{
name = bottom;
position = "{506, 0}";
},
{
name = top;
position = "{757, 1420}";
}
);
layerId = "84EC96F5-B4D5-4389-883B-FBB110B3398F";
paths = (
{
closed = 1;
nodes = (
"630 0 LINE",
"957 368 OFFCURVE",
"1172 856 OFFCURVE",
"1329 1420 CURVE",
"1065 1420 LINE",
"929 951 OFFCURVE",
"765 552 OFFCURVE",
"534 239 CURVE",
"516 239 LINE",
"447 1432 LINE",
"185 1420 LINE",
"288 0 LINE"
);
}
);
width = 1200;
},
{
anchors = (
{
name = bottom;
position = "{506, 0}";
},
{
name = top;
position = "{757, 1420}";
}
);
layerId = "A4690C19-62E3-4552-AAB4-AF5F97C4421F";
paths = (
{
closed = 1;
nodes = (
"549 0 LINE",
"887 388 OFFCURVE",
"1127 866 OFFCURVE",
"1288 1420 CURVE",
"1192 1420 LINE",
"1020 876 OFFCURVE",
"795 433 OFFCURVE",
"502 77 CURVE",
"484 77 LINE",
"328 1432 LINE",
"226 1420 LINE",
"397 0 LINE"
);
}
);
width = 1200;
}
);
unicode = 0056;
},
{
glyphname = Gammaafrican;
layers = (
{
anchors = (
{
name = bottom;
position = "{438, -388}";
},
{
name = top;
position = "{757, 1420}";
}
);
layerId = "7062B15D-7097-4448-A185-D08BD1167FB1";
paths = (
{
closed = 1;
nodes = (
"599 -462 OFFCURVE",
"744 -348 OFFCURVE",
"744 -177 CURVE SMOOTH",
"744 -89 OFFCURVE",
"707 1 OFFCURVE",
"597 106 CURVE",
"453 61 LINE",
"518 -44 OFFCURVE",
"541 -97 OFFCURVE",
"541 -142 CURVE SMOOTH",
"541 -224 OFFCURVE",
"490 -278 OFFCURVE",
"414 -278 CURVE",
"381 -462 LINE"
);
},
{
closed = 1;
nodes = (
"414 -278 LINE",
"349 -278 OFFCURVE",
"305 -243 OFFCURVE",
"305 -189 CURVE SMOOTH",
"305 -125 OFFCURVE",
"349 -73 OFFCURVE",
"521 61 CURVE",
"375 106 LINE",
"216 14 OFFCURVE",
"102 -91 OFFCURVE",
"102 -232 CURVE SMOOTH",
"102 -370 OFFCURVE",
"213 -462 OFFCURVE",
"381 -462 CURVE"
);
},
{
closed = 1;
nodes = (
"470 56 LINE",
"599 0 LINE",
"928 368 OFFCURVE",
"1155 856 OFFCURVE",
"1312 1420 CURVE",
"1098 1420 LINE",
"950 924 OFFCURVE",
"763 503 OFFCURVE",
"512 172 CURVE",
"494 172 LINE",
"414 1432 LINE",
"202 1420 LINE",
"307 0 LINE"
);
}
);
width = 1200;
},
{
anchors = (
{
name = bottom;
position = "{438, -388}";
},
{
name = top;
position = "{757, 1420}";
}
);
layerId = "84EC96F5-B4D5-4389-883B-FBB110B3398F";
paths = (
{
closed = 1;
nodes = (
"617 -462 OFFCURVE",
"781 -340 OFFCURVE",
"781 -157 CURVE SMOOTH",
"781 -75 OFFCURVE",
"740 8 OFFCURVE",
"617 106 CURVE",
"433 61 LINE",
"498 -44 OFFCURVE",
"521 -97 OFFCURVE",
"521 -142 CURVE SMOOTH",
"521 -201 OFFCURVE",
"476 -241 OFFCURVE",
"408 -241 CURVE",
"371 -462 LINE"
);
},
{
closed = 1;
nodes = (
"408 -241 LINE",
"359 -241 OFFCURVE",
"325 -216 OFFCURVE",
"325 -179 CURVE SMOOTH",
"325 -118 OFFCURVE",
"365 -68 OFFCURVE",
"521 61 CURVE",
"335 106 LINE",
"175 14 OFFCURVE",
"60 -91 OFFCURVE",
"60 -232 CURVE SMOOTH",
"60 -370 OFFCURVE",
"184 -462 OFFCURVE",
"371 -462 CURVE"
);
},
{
closed = 1;
nodes = (
"484 51 LINE",
"630 0 LINE",
"957 368 OFFCURVE",
"1172 856 OFFCURVE",
"1329 1420 CURVE",
"1065 1420 LINE",
"929 951 OFFCURVE",
"765 552 OFFCURVE",
"534 239 CURVE",
"516 239 LINE",
"447 1432 LINE",
"185 1420 LINE",
"288 0 LINE"
);
}
);
width = 1200;
},
{
anchors = (
{
name = bottom;
position = "{438, -388}";
},
{
name = top;
position = "{757, 1420}";
}
);
layerId = "A4690C19-62E3-4552-AAB4-AF5F97C4421F";
paths = (
{
closed = 1;
nodes = (
"563 -462 OFFCURVE",
"684 -368 OFFCURVE",
"684 -227 CURVE SMOOTH",
"684 -147 OFFCURVE",
"641 -65 OFFCURVE",
"546 31 CURVE",
"452 26 LINE",
"551 -102 OFFCURVE",
"586 -167 OFFCURVE",
"586 -222 CURVE SMOOTH",
"586 -312 OFFCURVE",
"509 -372 OFFCURVE",
"394 -372 CURVE",
"382 -462 LINE"
);
},
{
closed = 1;
nodes = (
"394 -372 LINE",
"316 -372 OFFCURVE",
"264 -331 OFFCURVE",
"264 -270 CURVE SMOOTH",
"264 -197 OFFCURVE",
"310 -137 OFFCURVE",
"490 16 CURVE",
"399 31 LINE",
"263 -54 OFFCURVE",
"166 -151 OFFCURVE",
"166 -282 CURVE SMOOTH",
"166 -390 OFFCURVE",
"252 -462 OFFCURVE",
"382 -462 CURVE"
);
},
{
closed = 1;
nodes = (
"478 23 LINE",
"549 0 LINE",
"887 388 OFFCURVE",
"1127 866 OFFCURVE",
"1288 1420 CURVE",
"1192 1420 LINE",
"1020 876 OFFCURVE",
"795 433 OFFCURVE",
"502 77 CURVE",
"484 77 LINE",
"328 1432 LINE",
"226 1420 LINE",
"397 0 LINE"
);
}
);
width = 1200;
}
);
unicode = 0194;
},
{
glyphname = Vhook;
layers = (
{
anchors = (
{
name = bottom;
position = "{506, 0}";
},
{
name = ogonek;
position = "{1005, 10}";
},
{
name = top;
position = "{757, 1420}";
},
{
name = topright;
position = "{1354, 1420}";
}
);
layerId = "7062B15D-7097-4448-A185-D08BD1167FB1";
paths = (
{
closed = 1;
nodes = (
"751 1230 LINE",
"831 1230 LINE SMOOTH",
"937 1230 OFFCURVE",
"968 1188 OFFCURVE",
"947 1070 CURVE SMOOTH",
"839 456 LINE SMOOTH",
"805 266 OFFCURVE",
"704 170 OFFCURVE",
"537 170 CURVE SMOOTH",
"363 170 OFFCURVE",
"301 266 OFFCURVE",
"335 456 CURVE SMOOTH",
"505 1420 LINE",
"297 1420 LINE",
"127 456 LINE SMOOTH",
"71 138 OFFCURVE",
"195 -20 OFFCURVE",
"499 -20 CURVE SMOOTH",
"803 -20 OFFCURVE",
"991 138 OFFCURVE",
"1047 456 CURVE SMOOTH",
"1164 1120 LINE SMOOTH",
"1197 1309 OFFCURVE",
"1097 1420 OFFCURVE",
"893 1420 CURVE SMOOTH",
"785 1420 LINE"
);
}
);
width = 1200;
},
{
anchors = (
{
name = bottom;
position = "{506, 0}";
},
{
name = ogonek;
position = "{1005, 10}";
},
{
name = top;
position = "{757, 1420}";
},
{
name = topright;
position = "{1354, 1420}";
}
);
layerId = "84EC96F5-B4D5-4389-883B-FBB110B3398F";
paths = (
{
closed = 1;
nodes = (
"687 1175 LINE",
"768 1175 LINE SMOOTH",
"882 1175 OFFCURVE",
"916 1125 OFFCURVE",
"892 988 CURVE SMOOTH",
"798 456 LINE SMOOTH",
"772 308 OFFCURVE",
"688 233 OFFCURVE",
"548 233 CURVE SMOOTH",
"403 233 OFFCURVE",
"350 308 OFFCURVE",
"376 456 CURVE SMOOTH",
"546 1420 LINE",
"280 1420 LINE",
"110 456 LINE SMOOTH",
"54 138 OFFCURVE",
"184 -20 OFFCURVE",
"499 -20 CURVE SMOOTH",
"814 -20 OFFCURVE",
"1008 138 OFFCURVE",
"1064 456 CURVE SMOOTH",
"1165 1030 LINE SMOOTH",
"1212 1297 OFFCURVE",
"1117 1420 OFFCURVE",
"860 1420 CURVE SMOOTH",
"730 1420 LINE"
);
}
);
width = 1200;
},
{
anchors = (
{
name = bottom;
position = "{506, 0}";
},
{
name = ogonek;
position = "{1005, 10}";
},
{
name = top;
position = "{757, 1420}";
},
{
name = topright;
position = "{1354, 1420}";
}
);
layerId = "A4690C19-62E3-4552-AAB4-AF5F97C4421F";
paths = (
{
closed = 1;
nodes = (
"817 1330 LINE",
"949 1330 LINE SMOOTH",
"1036 1330 OFFCURVE",
"1072 1275 OFFCURVE",
"1053 1170 CURVE SMOOTH",
"927 456 LINE SMOOTH",
"882 200 OFFCURVE",
"744 70 OFFCURVE",
"519 70 CURVE SMOOTH",
"284 70 OFFCURVE",
"202 200 OFFCURVE",
"247 456 CURVE SMOOTH",
"417 1420 LINE",
"321 1420 LINE",
"151 456 LINE SMOOTH",
"95 138 OFFCURVE",
"211 -20 OFFCURVE",
"499 -20 CURVE SMOOTH",
"787 -20 OFFCURVE",
"967 138 OFFCURVE",
"1023 456 CURVE SMOOTH",
"1149 1170 LINE SMOOTH",
"1178 1334 OFFCURVE",
"1115 1420 OFFCURVE",
"967 1420 CURVE SMOOTH",
"833 1420 LINE"
);
}
);
width = 1200;
}
);
unicode = 01B2;
},
{
glyphname = W;
layers = (
{
anchors = (
{
name = bottom;
position = "{506, 0}";
},
{
name = top;
position = "{717, 1420}";
}
);
layerId = "7062B15D-7097-4448-A185-D08BD1167FB1";
paths = (
{
closed = 1;
nodes = (
"824 0 LINE",
"1034 368 OFFCURVE",
"1233 856 OFFCURVE",
"1302 1420 CURVE",
"1088 1420 LINE",
"1028 924 OFFCURVE",
"861 503 OFFCURVE",
"717 172 CURVE",
"699 172 LINE",
"755 1072 LINE",
"563 1060 LINE",
"511 505 LINE",
"602 505 LINE",
"572 0 LINE"
);
},
{
closed = 1;
nodes = (
"384 0 LINE",
"612 566 LINE",
"486 466 LINE",
"639 466 LINE",
"569 737 LINE",
"337 172 LINE",
"319 172 LINE",
"414 1432 LINE",
"207 1420 LINE",
"117 0 LINE"
);
}
);
width = 1200;
},
{
anchors = (
{
name = bottom;
position = "{506, 0}";
},
{
name = top;
position = "{717, 1420}";
}
);
layerId = "84EC96F5-B4D5-4389-883B-FBB110B3398F";
paths = (
{
closed = 1;
nodes = (
"828 0 LINE",
"1042 348 OFFCURVE",
"1276 916 OFFCURVE",
"1347 1420 CURVE",
"1073 1420 LINE",
"1001 1010 OFFCURVE",
"877 531 OFFCURVE",
"717 237 CURVE",
"699 237 LINE",
"766 1072 LINE",
"554 1060 LINE",
"496 445 LINE",
"592 445 LINE",
"551 0 LINE"
);
},
{
closed = 1;
nodes = (
"414 0 LINE",
"627 526 LINE",
"476 416 LINE",
"659 416 LINE",
"574 677 LINE",
"382 237 LINE",
"364 237 LINE",
"412 1432 LINE",
"160 1420 LINE",
"107 0 LINE"
);
}
);
width = 1200;
},
{
anchors = (
{
name = bottom;
position = "{506, 0}";
},
{
name = top;
position = "{717, 1420}";
}
);
layerId = "A4690C19-62E3-4552-AAB4-AF5F97C4421F";
paths = (
{
closed = 1;
nodes = (
"754 0 LINE",
"991 383 OFFCURVE",
"1233 871 OFFCURVE",
"1311 1420 CURVE",
"1215 1420 LINE",
"1134 886 OFFCURVE",
"890 433 OFFCURVE",
"694 77 CURVE",
"676 77 LINE",
"715 1067 LINE",
"613 1060 LINE",
"601 505 LINE",
"602 505 LINE",
"579 0 LINE"
);
},
{
closed = 1;
nodes = (
"359 0 LINE",
"652 596 LINE",
"516 466 LINE",
"669 466 LINE",
"624 737 LINE",
"292 77 LINE",
"274 77 LINE",
"303 1429 LINE",
"201 1420 LINE",
"177 0 LINE"
);
}
);
width = 1200;
}
);
unicode = 0057;
},
{
glyphname = X;
layers = (
{
anchors = (
{
name = bottom;
position = "{506, 0}";
},
{
name = top;
position = "{757, 1420}";
}
);
layerId = "7062B15D-7097-4448-A185-D08BD1167FB1";
paths = (
{
closed = 1;
nodes = (
"639 598 LINE",
"1218 1300 LINE",
"1052 1440 LINE",
"594 780 LINE",
"5 100 LINE",
"161 -40 LINE"
);
},
{
closed = 1;
nodes = (
"901 -20 OFFCURVE",
"972 0 OFFCURVE",
"1049 44 CURVE",
"990 215 LINE",
"943 184 OFFCURVE",
"900 170 OFFCURVE",
"853 170 CURVE SMOOTH",
"784 170 OFFCURVE",
"722 218 OFFCURVE",
"720 328 CURVE SMOOTH",
"706 1131 LINE SMOOTH",
"702 1348 OFFCURVE",
"578 1440 OFFCURVE",
"441 1440 CURVE SMOOTH",
"376 1440 OFFCURVE",
"306 1423 OFFCURVE",
"216 1386 CURVE",
"275 1215 LINE",
"321 1239 OFFCURVE",
"364 1250 OFFCURVE",
"412 1250 CURVE SMOOTH",
"467 1250 OFFCURVE",
"523 1202 OFFCURVE",
"525 1092 CURVE SMOOTH",
"539 289 LINE SMOOTH",
"543 72 OFFCURVE",
"673 -20 OFFCURVE",
"824 -20 CURVE SMOOTH"
);
}
);
width = 1200;
},
{
anchors = (
{
name = bottom;
position = "{506, 0}";
},
{
name = top;
position = "{757, 1420}";
}
);
layerId = "84EC96F5-B4D5-4389-883B-FBB110B3398F";
paths = (
{
closed = 1;
nodes = (
"659 598 LINE",
"1248 1280 LINE",
"1042 1460 LINE",
"574 770 LINE",
"-15 140 LINE",
"181 -40 LINE"
);
},
{
closed = 1;
nodes = (
"929 -20 OFFCURVE",
"1003 0 OFFCURVE",
"1083 44 CURVE",
"1024 277 LINE",
"977 246 OFFCURVE",
"934 232 OFFCURVE",
"887 232 CURVE SMOOTH",
"810 232 OFFCURVE",
"757 269 OFFCURVE",
"754 350 CURVE SMOOTH",
"728 1131 LINE SMOOTH",
"721 1344 OFFCURVE",
"594 1440 OFFCURVE",
"418 1440 CURVE SMOOTH",
"351 1440 OFFCURVE",
"277 1423 OFFCURVE",
"183 1386 CURVE",
"242 1153 LINE",
"288 1177 OFFCURVE",
"331 1188 OFFCURVE",
"379 1188 CURVE SMOOTH",
"443 1188 OFFCURVE",
"489 1151 OFFCURVE",
"492 1070 CURVE SMOOTH",
"518 289 LINE SMOOTH",
"525 76 OFFCURVE",
"658 -20 OFFCURVE",
"848 -20 CURVE SMOOTH"
);
}
);
width = 1200;
},
{
anchors = (
{
name = bottom;
position = "{506, 0}";
},
{
name = top;
position = "{757, 1420}";
}
);
layerId = "A4690C19-62E3-4552-AAB4-AF5F97C4421F";
paths = (
{
closed = 1;
nodes = (
"639 643 LINE",
"1174 1370 LINE",
"1103 1430 LINE",
"604 746 LINE",
"44 50 LINE",
"115 -20 LINE"
);
},
{
closed = 1;
nodes = (
"881 -20 OFFCURVE",
"954 -4 OFFCURVE",
"1025 44 CURVE",
"988 128 LINE",
"935 91 OFFCURVE",
"880 72 OFFCURVE",
"829 72 CURVE SMOOTH",
"734 72 OFFCURVE",
"684 139 OFFCURVE",
"682 268 CURVE SMOOTH",
"664 1191 LINE SMOOTH",
"661 1354 OFFCURVE",
"589 1440 OFFCURVE",
"455 1440 CURVE SMOOTH",
"397 1440 OFFCURVE",
"323 1427 OFFCURVE",
"240 1386 CURVE",
"272 1304 LINE",
"325 1333 OFFCURVE",
"381 1348 OFFCURVE",
"436 1348 CURVE SMOOTH",
"521 1348 OFFCURVE",
"566 1288 OFFCURVE",
"568 1172 CURVE SMOOTH",
"586 249 LINE SMOOTH",
"589 72 OFFCURVE",
"666 -20 OFFCURVE",
"810 -20 CURVE SMOOTH"
);
}
);
width = 1200;
}
);
unicode = 0058;
},
{
glyphname = Y;
layers = (
{
anchors = (
{
name = bottom;
position = "{506, 0}";
},
{
name = top;
position = "{757, 1420}";
},
{
name = topleft;
position = "{158, 1420}";
}
);
layerId = "7062B15D-7097-4448-A185-D08BD1167FB1";
paths = (
{
closed = 1;
nodes = (
"610 0 LINE",
"715 594 LINE",
"507 594 LINE",
"402 0 LINE"
);
},
{
closed = 1;
nodes = (
"644 384 LINE",
"944 717 OFFCURVE",
"1166 1011 OFFCURVE",
"1332 1420 CURVE",
"1118 1420 LINE",
"990 1112 OFFCURVE",
"843 899 OFFCURVE",
"632 626 CURVE",
"614 626 LINE",
"390 1430 LINE",
"178 1398 LINE",
"495 424 LINE"
);
}
);
width = 1200;
},
{
anchors = (
{
name = bottom;
position = "{506, 0}";
},
{
name = top;
position = "{757, 1420}";
},
{
name = topleft;
position = "{158, 1420}";
}
);
layerId = "84EC96F5-B4D5-4389-883B-FBB110B3398F";
paths = (
{
closed = 1;
nodes = (
"640 0 LINE",
"743 594 LINE",
"475 594 LINE",
"372 0 LINE"
);
},
{
closed = 1;
nodes = (
"672 434 LINE",
"1020 703 OFFCURVE",
"1238 983 OFFCURVE",
"1349 1420 CURVE",
"1065 1420 LINE",
"983 1096 OFFCURVE",
"858 910 OFFCURVE",
"649 722 CURVE",
"631 722 LINE",
"433 1430 LINE",
"161 1398 LINE",
"467 444 LINE"
);
}
);
width = 1200;
},
{
anchors = (
{
name = bottom;
position = "{506, 0}";
},
{
name = top;
position = "{757, 1420}";
},
{
name = topleft;
position = "{158, 1420}";
}
);
layerId = "A4690C19-62E3-4552-AAB4-AF5F97C4421F";
paths = (
{
closed = 1;
nodes = (
"554 0 LINE",
"659 594 LINE",
"563 594 LINE",
"458 0 LINE"
);
},
{
closed = 1;
nodes = (
"596 458 LINE",
"906 771 OFFCURVE",
"1137 1036 OFFCURVE",
"1308 1420 CURVE",
"1212 1420 LINE",
"1049 1091 OFFCURVE",
"871 873 OFFCURVE",
"626 606 CURVE",
"608 606 LINE",
"306 1435 LINE",
"206 1418 LINE",
"563 475 LINE"
);
}
);
width = 1200;
}
);
unicode = 0059;
},
{
glyphname = Z;
layers = (
{
anchors = (
{
name = bottom;
position = "{506, 0}";
},
{
name = center;
position = "{632, 710}";
},
{
name = top;
position = "{737, 1420}";
}
);
layerId = "7062B15D-7097-4448-A185-D08BD1167FB1";
paths = (
{
closed = 1;
nodes = (
"1199 1260 LINE",
"1005 1322 LINE",
"85 160 LINE",
"280 108 LINE"
);
},
{
closed = 1;
nodes = (
"972 0 LINE",
"1005 190 LINE",
"280 190 LINE",
"85 160 LINE",
"145 0 LINE"
);
},
{
closed = 1;
nodes = (
"1032 1230 LINE",
"1199 1260 LINE",
"1139 1420 LINE",
"334 1420 LINE",
"301 1230 LINE"
);
}
);
width = 1200;
},
{
anchors = (
{
name = bottom;
position = "{506, 0}";
},
{
name = center;
position = "{632, 710}";
},
{
name = top;
position = "{737, 1420}";
}
);
layerId = "84EC96F5-B4D5-4389-883B-FBB110B3398F";
paths = (
{
closed = 1;
nodes = (
"1201 1207 LINE",
"986 1342 LINE",
"72 213 LINE",
"287 101 LINE"
);
},
{
closed = 1;
nodes = (
"983 0 LINE",
"1026 243 LINE",
"267 243 LINE",
"72 213 LINE",
"143 0 LINE"
);
},
{
closed = 1;
nodes = (
"1034 1177 LINE",
"1201 1207 LINE",
"1130 1420 LINE",
"312 1420 LINE",
"270 1177 LINE"
);
}
);
width = 1200;
},
{
anchors = (
{
name = bottom;
position = "{506, 0}";
},
{
name = center;
position = "{632, 710}";
},
{
name = top;
position = "{737, 1420}";
}
);
layerId = "A4690C19-62E3-4552-AAB4-AF5F97C4421F";
paths = (
{
closed = 1;
nodes = (
"1187 1330 LINE",
"1093 1362 LINE",
"96 90 LINE",
"190 58 LINE"
);
},
{
closed = 1;
nodes = (
"942 0 LINE",
"958 90 LINE",
"191 90 LINE",
"96 90 LINE",
"138 0 LINE"
);
},
{
closed = 1;
nodes = (
"1120 1330 LINE",
"1187 1330 LINE",
"1144 1420 LINE",
"362 1420 LINE",
"347 1330 LINE"
);
}
);
width = 1200;
}
);
unicode = 005A;
},
{
export = 0;
glyphname = A.half;
layers = (
{
layerId = "7062B15D-7097-4448-A185-D08BD1167FB1";
paths = (
{
closed = 1;
nodes = (
"165 0 LINE",
"416 529 LINE",
"424 529 LINE",
"675 0 LINE",
"804 0 LINE",
"482 639 LINE",
"358 639 LINE",
"36 0 LINE"
);
},
{
closed = 1;
nodes = (
"669 113 LINE",
"669 222 LINE",
"165 222 LINE",
"165 113 LINE"
);
}
);
width = 840;
},
{
layerId = "84EC96F5-B4D5-4389-883B-FBB110B3398F";
paths = (
{
closed = 1;
nodes = (
"189 0 LINE",
"414 490 LINE",
"427 490 LINE",
"652 0 LINE",
"811 0 LINE",
"498 639 LINE",
"342 639 LINE",
"29 0 LINE"
);
},
{
closed = 1;
nodes = (
"669 107 LINE",
"669 238 LINE",
"165 238 LINE",
"165 107 LINE"
);
}
);
width = 840;
},
{
layerId = "A4690C19-62E3-4552-AAB4-AF5F97C4421F";
paths = (
{
closed = 1;
nodes = (
"144 0 LINE",
"416 564 LINE",
"425 564 LINE",
"697 0 LINE",
"799 0 LINE",
"486 639 LINE",
"355 639 LINE",
"42 0 LINE"
);
},
{
closed = 1;
nodes = (
"669 129 LINE",
"669 218 LINE",
"165 218 LINE",
"165 129 LINE"
);
}
);
width = 841;
}
);
},
{
export = 0;
glyphname = B.half;
layers = (
{
layerId = "7062B15D-7097-4448-A185-D08BD1167FB1";
paths = (
{
closed = 1;
nodes = (
"508 0 LINE SMOOTH",
"696 0 OFFCURVE",
"789 54 OFFCURVE",
"789 162 CURVE SMOOTH",
"789 266 OFFCURVE",
"717 318 OFFCURVE",
"573 318 CURVE SMOOTH",
"203 318 LINE",
"220 273 LINE",
"506 273 LINE SMOOTH",
"611 273 OFFCURVE",
"664 246 OFFCURVE",
"664 192 CURVE SMOOTH",
"664 136 OFFCURVE",
"611 108 OFFCURVE",
"504 108 CURVE SMOOTH",
"217 108 LINE",
"217 0 LINE"
);
},
{
closed = 1;
nodes = (
"237 0 LINE",
"237 639 LINE",
"116 639 LINE",
"116 0 LINE"
);
},
{
closed = 1;
nodes = (
"546 316 LINE",
"546 340 LINE",
"206 340 LINE",
"206 316 LINE"
);
},
{
closed = 1;
nodes = (
"555 339 LINE SMOOTH",
"678 339 OFFCURVE",
"739 384 OFFCURVE",
"739 476 CURVE SMOOTH",
"739 585 OFFCURVE",
"655 639 OFFCURVE",
"487 639 CURVE SMOOTH",
"203 639 LINE",
"220 531 LINE",
"492 531 LINE SMOOTH",
"573 531 OFFCURVE",
"614 507 OFFCURVE",
"614 458 CURVE SMOOTH",
"614 408 OFFCURVE",
"579 382 OFFCURVE",
"510 382 CURVE SMOOTH",
"217 382 LINE",
"217 339 LINE"
);
}
);
width = 840;
},
{
layerId = "84EC96F5-B4D5-4389-883B-FBB110B3398F";
paths = (
{
closed = 1;
nodes = (
"535 0 LINE SMOOTH",
"701 0 OFFCURVE",
"796 58 OFFCURVE",
"796 157 CURVE SMOOTH",
"796 253 OFFCURVE",
"697 308 OFFCURVE",
"522 308 CURVE SMOOTH",
"237 308 LINE",
"253 257 LINE",
"530 257 LINE SMOOTH",
"598 257 OFFCURVE",
"637 236 OFFCURVE",
"637 199 CURVE SMOOTH",
"637 158 OFFCURVE",
"602 135 OFFCURVE",
"541 135 CURVE SMOOTH",
"251 135 LINE",
"251 0 LINE"
);
},
{
closed = 1;
nodes = (
"260 0 LINE",
"260 639 LINE",
"109 639 LINE",
"109 0 LINE"
);
},
{
closed = 1;
nodes = (
"517 285 LINE",
"517 353 LINE",
"199 353 LINE",
"199 285 LINE"
);
},
{
closed = 1;
nodes = (
"504 334 LINE SMOOTH",
"652 334 OFFCURVE",
"737 386 OFFCURVE",
"737 477 CURVE SMOOTH",
"737 581 OFFCURVE",
"653 639 OFFCURVE",
"507 639 CURVE SMOOTH",
"237 639 LINE",
"253 504 LINE",
"499 504 LINE SMOOTH",
"542 504 OFFCURVE",
"567 485 OFFCURVE",
"567 448 CURVE SMOOTH",
"567 408 OFFCURVE",
"546 388 OFFCURVE",
"510 388 CURVE SMOOTH",
"251 388 LINE",
"251 334 LINE"
);
}
);
width = 840;
},
{
layerId = "A4690C19-62E3-4552-AAB4-AF5F97C4421F";
paths = (
{
closed = 1;
nodes = (
"536 0 LINE SMOOTH",
"694 0 OFFCURVE",
"784 62 OFFCURVE",
"784 170 CURVE SMOOTH",
"784 269 OFFCURVE",
"703 326 OFFCURVE",
"562 326 CURVE SMOOTH",
"192 326 LINE",
"209 283 LINE",
"539 283 LINE SMOOTH",
"632 283 OFFCURVE",
"686 246 OFFCURVE",
"686 181 CURVE SMOOTH",
"686 122 OFFCURVE",
"626 88 OFFCURVE",
"521 88 CURVE SMOOTH",
"206 88 LINE",
"206 0 LINE"
);
},
{
closed = 1;
nodes = (
"216 0 LINE",
"216 639 LINE",
"122 639 LINE",
"122 0 LINE"
);
},
{
closed = 1;
nodes = (
"570 307 LINE",
"570 346 LINE",
"184 346 LINE",
"184 307 LINE"
);
},
{
closed = 1;
nodes = (
"532 330 LINE SMOOTH",
"660 330 OFFCURVE",
"734 382 OFFCURVE",
"734 473 CURVE SMOOTH",
"734 579 OFFCURVE",
"651 639 OFFCURVE",
"507 639 CURVE SMOOTH",
"192 639 LINE",
"209 551 LINE",
"509 551 LINE SMOOTH",
"590 551 OFFCURVE",
"636 520 OFFCURVE",
"636 465 CURVE SMOOTH",
"636 406 OFFCURVE",
"597 372 OFFCURVE",
"530 372 CURVE SMOOTH",
"206 372 LINE",
"206 330 LINE"
);
}
);
width = 840;
}
);
},
{
export = 0;
glyphname = C.half;
layers = (
{
layerId = "7062B15D-7097-4448-A185-D08BD1167FB1";
paths = (
{
closed = 1;
nodes = (
"608 -9 OFFCURVE",
"689 1 OFFCURVE",
"766 22 CURVE",
"747 135 LINE",
"678 115 OFFCURVE",
"609 105 OFFCURVE",
"537 105 CURVE SMOOTH",
"307 105 OFFCURVE",
"190 178 OFFCURVE",
"190 325 CURVE SMOOTH",
"190 459 OFFCURVE",
"316 535 OFFCURVE",
"510 535 CURVE SMOOTH",
"603 535 OFFCURVE",
"689 520 OFFCURVE",
"741 494 CURVE",
"794 590 LINE",
"733 627 OFFCURVE",
"639 648 OFFCURVE",
"508 648 CURVE SMOOTH",
"227 648 OFFCURVE",
"66 528 OFFCURVE",
"66 320 CURVE SMOOTH",
"66 101 OFFCURVE",
"220 -9 OFFCURVE",
"525 -9 CURVE SMOOTH"
);
}
);
width = 840;
},
{
layerId = "84EC96F5-B4D5-4389-883B-FBB110B3398F";
paths = (
{
closed = 1;
nodes = (
"621 -9 OFFCURVE",
"706 1 OFFCURVE",
"789 22 CURVE",
"755 150 LINE",
"690 134 OFFCURVE",
"621 126 OFFCURVE",
"556 126 CURVE SMOOTH",
"339 126 OFFCURVE",
"227 192 OFFCURVE",
"227 325 CURVE SMOOTH",
"227 445 OFFCURVE",
"342 513 OFFCURVE",
"516 513 CURVE SMOOTH",
"603 513 OFFCURVE",
"679 496 OFFCURVE",
"727 467 CURVE",
"806 588 LINE",
"749 626 OFFCURVE",
"650 648 OFFCURVE",
"514 648 CURVE SMOOTH",
"228 648 OFFCURVE",
"65 528 OFFCURVE",
"65 320 CURVE SMOOTH",
"65 101 OFFCURVE",
"222 -9 OFFCURVE",
"531 -9 CURVE SMOOTH"
);
}
);
width = 840;
},
{
layerId = "A4690C19-62E3-4552-AAB4-AF5F97C4421F";
paths = (
{
closed = 1;
nodes = (
"612 -9 OFFCURVE",
"693 1 OFFCURVE",
"773 22 CURVE",
"749 109 LINE",
"681 90 OFFCURVE",
"608 81 OFFCURVE",
"542 81 CURVE SMOOTH",
"297 81 OFFCURVE",
"172 162 OFFCURVE",
"172 325 CURVE SMOOTH",
"172 473 OFFCURVE",
"306 558 OFFCURVE",
"511 558 CURVE SMOOTH",
"604 558 OFFCURVE",
"690 538 OFFCURVE",
"741 503 CURVE",
"790 587 LINE",
"735 626 OFFCURVE",
"641 648 OFFCURVE",
"510 648 CURVE SMOOTH",
"232 648 OFFCURVE",
"73 528 OFFCURVE",
"73 320 CURVE SMOOTH",
"73 101 OFFCURVE",
"225 -9 OFFCURVE",
"526 -9 CURVE SMOOTH"
);
}
);
width = 840;
}
);
},
{
export = 0;
glyphname = D.half;
layers = (
{
layerId = "7062B15D-7097-4448-A185-D08BD1167FB1";
paths = (
{
closed = 1;
nodes = (
"412 0 LINE SMOOTH",
"673 0 OFFCURVE",
"803 103 OFFCURVE",
"803 311 CURVE SMOOTH",
"803 530 OFFCURVE",
"673 639 OFFCURVE",
"412 639 CURVE SMOOTH",
"213 639 LINE",
"230 524 LINE",
"412 524 LINE SMOOTH",
"590 524 OFFCURVE",
"678 453 OFFCURVE",
"678 311 CURVE SMOOTH",
"678 181 OFFCURVE",
"590 115 OFFCURVE",
"412 115 CURVE SMOOTH",
"227 115 LINE",
"227 0 LINE"
);
},
{
closed = 1;
nodes = (
"237 0 LINE",
"237 639 LINE",
"116 639 LINE",
"116 0 LINE"
);
}
);
width = 840;
},
{
layerId = "84EC96F5-B4D5-4389-883B-FBB110B3398F";
paths = (
{
closed = 1;
nodes = (
"452 0 LINE SMOOTH",
"690 0 OFFCURVE",
"810 103 OFFCURVE",
"810 311 CURVE SMOOTH",
"810 531 OFFCURVE",
"690 639 OFFCURVE",
"452 639 CURVE SMOOTH",
"237 639 LINE",
"253 504 LINE",
"452 504 LINE SMOOTH",
"584 504 OFFCURVE",
"651 440 OFFCURVE",
"651 311 CURVE SMOOTH",
"651 194 OFFCURVE",
"584 135 OFFCURVE",
"452 135 CURVE SMOOTH",
"251 135 LINE",
"251 0 LINE"
);
},
{
closed = 1;
nodes = (
"260 0 LINE",
"260 639 LINE",
"109 639 LINE",
"109 0 LINE"
);
}
);
width = 840;
},
{
layerId = "A4690C19-62E3-4552-AAB4-AF5F97C4421F";
paths = (
{
closed = 1;
nodes = (
"403 0 LINE SMOOTH",
"654 0 OFFCURVE",
"798 113 OFFCURVE",
"798 311 CURVE SMOOTH",
"798 520 OFFCURVE",
"654 639 OFFCURVE",
"403 639 CURVE SMOOTH",
"192 639 LINE",
"209 551 LINE",
"403 551 LINE SMOOTH",
"592 551 OFFCURVE",
"700 464 OFFCURVE",
"700 311 CURVE SMOOTH",
"700 169 OFFCURVE",
"592 88 OFFCURVE",
"403 88 CURVE SMOOTH",
"206 88 LINE",
"206 0 LINE"
);
},
{
closed = 1;
nodes = (
"216 0 LINE",
"216 639 LINE",
"122 639 LINE",
"122 0 LINE"
);
}
);
width = 840;
}
);
},
{
export = 0;
glyphname = E.half;
layers = (
{
layerId = "7062B15D-7097-4448-A185-D08BD1167FB1";
paths = (
{
closed = 1;
nodes = (
"237 0 LINE",
"237 639 LINE",
"116 639 LINE",
"116 0 LINE"
);
},
{
closed = 1;
nodes = (
"765 0 LINE",
"765 108 LINE",
"116 108 LINE",
"116 0 LINE"
);
},
{
closed = 1;
nodes = (
"639 265 LINE",
"639 374 LINE",
"116 374 LINE",
"116 265 LINE"
);
},
{
closed = 1;
nodes = (
"765 531 LINE",
"765 639 LINE",
"116 639 LINE",
"116 531 LINE"
);
}
);
width = 839;
},
{
layerId = "84EC96F5-B4D5-4389-883B-FBB110B3398F";
paths = (
{
closed = 1;
nodes = (
"260 0 LINE",
"260 639 LINE",
"109 639 LINE",
"109 0 LINE"
);
},
{
closed = 1;
nodes = (
"772 0 LINE",
"772 135 LINE",
"109 135 LINE",
"109 0 LINE"
);
},
{
closed = 1;
nodes = (
"646 254 LINE",
"646 385 LINE",
"109 385 LINE",
"109 254 LINE"
);
},
{
closed = 1;
nodes = (
"772 504 LINE",
"772 639 LINE",
"109 639 LINE",
"109 504 LINE"
);
}
);
width = 839;
},
{
layerId = "A4690C19-62E3-4552-AAB4-AF5F97C4421F";
paths = (
{
closed = 1;
nodes = (
"216 0 LINE",
"216 639 LINE",
"122 639 LINE",
"122 0 LINE"
);
},
{
closed = 1;
nodes = (
"760 0 LINE",
"760 88 LINE",
"122 88 LINE",
"122 0 LINE"
);
},
{
closed = 1;
nodes = (
"634 276 LINE",
"634 364 LINE",
"122 364 LINE",
"122 276 LINE"
);
},
{
closed = 1;
nodes = (
"760 551 LINE",
"760 639 LINE",
"122 639 LINE",
"122 551 LINE"
);
}
);
width = 840;
}
);
},
{
export = 0;
glyphname = F.half;
layers = (
{
layerId = "7062B15D-7097-4448-A185-D08BD1167FB1";
paths = (
{
closed = 1;
nodes = (
"237 0 LINE",
"237 639 LINE",
"116 639 LINE",
"116 0 LINE"
);
},
{
closed = 1;
nodes = (
"653 233 LINE",
"653 343 LINE",
"116 343 LINE",
"116 233 LINE"
);
},
{
closed = 1;
nodes = (
"765 531 LINE",
"765 639 LINE",
"116 639 LINE",
"116 531 LINE"
);
}
);
width = 839;
},
{
layerId = "84EC96F5-B4D5-4389-883B-FBB110B3398F";
paths = (
{
closed = 1;
nodes = (
"260 0 LINE",
"260 639 LINE",
"109 639 LINE",
"109 0 LINE"
);
},
{
closed = 1;
nodes = (
"643 223 LINE",
"643 359 LINE",
"109 359 LINE",
"109 223 LINE"
);
},
{
closed = 1;
nodes = (
"772 504 LINE",
"772 639 LINE",
"109 639 LINE",
"109 504 LINE"
);
}
);
width = 839;
},
{
layerId = "A4690C19-62E3-4552-AAB4-AF5F97C4421F";
paths = (
{
closed = 1;
nodes = (
"216 0 LINE",
"216 639 LINE",
"122 639 LINE",
"122 0 LINE"
);
},
{
closed = 1;
nodes = (
"651 244 LINE",
"651 332 LINE",
"122 332 LINE",
"122 244 LINE"
);
},
{
closed = 1;
nodes = (
"760 551 LINE",
"760 639 LINE",
"122 639 LINE",
"122 551 LINE"
);
}
);
width = 840;
}
);
},
{
export = 0;
glyphname = G.half;
layers = (
{
layerId = "7062B15D-7097-4448-A185-D08BD1167FB1";
paths = (
{
closed = 1;
nodes = (
"631 -9 OFFCURVE",
"733 10 OFFCURVE",
"774 18 CURVE",
"721 123 LINE",
"676 114 OFFCURVE",
"609 100 OFFCURVE",
"524 100 CURVE SMOOTH",
"311 100 OFFCURVE",
"190 181 OFFCURVE",
"190 325 CURVE SMOOTH",
"190 458 OFFCURVE",
"305 535 OFFCURVE",
"510 535 CURVE SMOOTH",
"604 535 OFFCURVE",
"688 518 OFFCURVE",
"740 492 CURVE",
"797 590 LINE",
"743 626 OFFCURVE",
"635 648 OFFCURVE",
"501 648 CURVE SMOOTH",
"225 648 OFFCURVE",
"66 529 OFFCURVE",
"66 320 CURVE SMOOTH",
"66 109 OFFCURVE",
"225 -9 OFFCURVE",
"507 -9 CURVE SMOOTH"
);
},
{
closed = 1;
nodes = (
"774 18 LINE",
"774 330 LINE",
"649 330 LINE",
"649 18 LINE"
);
},
{
closed = 1;
nodes = (
"770 222 LINE",
"770 330 LINE",
"442 330 LINE",
"442 222 LINE"
);
}
);
width = 841;
},
{
layerId = "84EC96F5-B4D5-4389-883B-FBB110B3398F";
paths = (
{
closed = 1;
nodes = (
"640 -9 OFFCURVE",
"748 10 OFFCURVE",
"787 18 CURVE",
"730 144 LINE",
"684 135 OFFCURVE",
"617 121 OFFCURVE",
"530 120 CURVE SMOOTH",
"328 118 OFFCURVE",
"227 179 OFFCURVE",
"227 325 CURVE SMOOTH",
"227 445 OFFCURVE",
"334 513 OFFCURVE",
"516 513 CURVE SMOOTH",
"605 513 OFFCURVE",
"686 499 OFFCURVE",
"737 477 CURVE",
"808 588 LINE",
"761 624 OFFCURVE",
"655 648 OFFCURVE",
"507 648 CURVE SMOOTH",
"228 648 OFFCURVE",
"65 528 OFFCURVE",
"65 320 CURVE SMOOTH",
"65 92 OFFCURVE",
"213 -9 OFFCURVE",
"513 -9 CURVE SMOOTH"
);
},
{
closed = 1;
nodes = (
"787 18 LINE",
"787 348 LINE",
"643 348 LINE",
"643 18 LINE"
);
},
{
closed = 1;
nodes = (
"783 213 LINE",
"783 348 LINE",
"448 348 LINE",
"448 213 LINE"
);
}
);
width = 840;
},
{
layerId = "A4690C19-62E3-4552-AAB4-AF5F97C4421F";
paths = (
{
closed = 1;
nodes = (
"630 -9 OFFCURVE",
"731 10 OFFCURVE",
"770 18 CURVE",
"724 100 LINE",
"682 92 OFFCURVE",
"613 77 OFFCURVE",
"525 77 CURVE SMOOTH",
"297 77 OFFCURVE",
"172 162 OFFCURVE",
"172 325 CURVE SMOOTH",
"172 473 OFFCURVE",
"297 558 OFFCURVE",
"511 558 CURVE SMOOTH",
"604 558 OFFCURVE",
"687 537 OFFCURVE",
"741 503 CURVE",
"789 586 LINE",
"728 625 OFFCURVE",
"634 648 OFFCURVE",
"503 648 CURVE SMOOTH",
"230 648 OFFCURVE",
"73 528 OFFCURVE",
"73 320 CURVE SMOOTH",
"73 103 OFFCURVE",
"226 -9 OFFCURVE",
"508 -9 CURVE SMOOTH"
);
},
{
closed = 1;
nodes = (
"770 18 LINE",
"770 321 LINE",
"678 321 LINE",
"678 18 LINE"
);
},
{
closed = 1;
nodes = (
"766 233 LINE",
"766 321 LINE",
"444 321 LINE",
"444 233 LINE"
);
}
);
width = 840;
}
);
},
{
export = 0;
glyphname = H.half;
layers = (
{
layerId = "7062B15D-7097-4448-A185-D08BD1167FB1";
paths = (
{
closed = 1;
nodes = (
"737 0 LINE",
"737 639 LINE",
"616 639 LINE",
"616 0 LINE"
);
},
{
closed = 1;
nodes = (
"223 0 LINE",
"223 639 LINE",
"102 639 LINE",
"102 0 LINE"
);
},
{
closed = 1;
nodes = (
"711 264 LINE",
"711 373 LINE",
"131 373 LINE",
"131 264 LINE"
);
}
);
width = 839;
},
{
layerId = "84EC96F5-B4D5-4389-883B-FBB110B3398F";
paths = (
{
closed = 1;
nodes = (
"744 0 LINE",
"744 639 LINE",
"593 639 LINE",
"593 0 LINE"
);
},
{
closed = 1;
nodes = (
"246 0 LINE",
"246 639 LINE",
"95 639 LINE",
"95 0 LINE"
);
},
{
closed = 1;
nodes = (
"718 251 LINE",
"718 386 LINE",
"124 386 LINE",
"124 251 LINE"
);
}
);
width = 839;
},
{
layerId = "A4690C19-62E3-4552-AAB4-AF5F97C4421F";
paths = (
{
closed = 1;
nodes = (
"732 0 LINE",
"732 639 LINE",
"638 639 LINE",
"638 0 LINE"
);
},
{
closed = 1;
nodes = (
"202 0 LINE",
"202 639 LINE",
"108 639 LINE",
"108 0 LINE"
);
},
{
closed = 1;
nodes = (
"706 274 LINE",
"706 362 LINE",
"137 362 LINE",
"137 274 LINE"
);
}
);
width = 840;
}
);
},
{
export = 0;
glyphname = I.half;
layers = (
{
layerId = "7062B15D-7097-4448-A185-D08BD1167FB1";
paths = (
{
closed = 1;
nodes = (
"480 0 LINE",
"480 639 LINE",
"359 639 LINE",
"359 0 LINE"
);
},
{
closed = 1;
nodes = (
"718 0 LINE",
"718 105 LINE",
"122 105 LINE",
"122 0 LINE"
);
},
{
closed = 1;
nodes = (
"718 534 LINE",
"718 639 LINE",
"122 639 LINE",
"122 534 LINE"
);
}
);
width = 840;
},
{
layerId = "84EC96F5-B4D5-4389-883B-FBB110B3398F";
paths = (
{
closed = 1;
nodes = (
"495 0 LINE",
"495 639 LINE",
"344 639 LINE",
"344 0 LINE"
);
},
{
closed = 1;
nodes = (
"725 0 LINE",
"725 135 LINE",
"115 135 LINE",
"115 0 LINE"
);
},
{
closed = 1;
nodes = (
"725 505 LINE",
"725 639 LINE",
"115 639 LINE",
"115 505 LINE"
);
}
);
width = 840;
},
{
layerId = "A4690C19-62E3-4552-AAB4-AF5F97C4421F";
paths = (
{
closed = 1;
nodes = (
"467 0 LINE",
"467 639 LINE",
"373 639 LINE",
"373 0 LINE"
);
},
{
closed = 1;
nodes = (
"713 0 LINE",
"713 88 LINE",
"128 88 LINE",
"128 0 LINE"
);
},
{
closed = 1;
nodes = (
"713 551 LINE",
"713 639 LINE",
"128 639 LINE",
"128 551 LINE"
);
}
);
width = 841;
}
);
},
{
export = 0;
glyphname = K.half;
layers = (
{
layerId = "7062B15D-7097-4448-A185-D08BD1167FB1";
paths = (
{
closed = 1;
nodes = (
"552 189 OFFCURVE",
"768 365 OFFCURVE",
"768 639 CURVE",
"646 639 LINE",
"646 427 OFFCURVE",
"481 299 OFFCURVE",
"188 299 CURVE",
"175 189 LINE"
);
},
{
closed = 1;
nodes = (
"237 0 LINE",
"237 639 LINE",
"116 639 LINE",
"116 0 LINE"
);
},
{
closed = 1;
nodes = (
"815 0 LINE",
"597 344 LINE",
"483 313 LINE",
"673 0 LINE"
);
}
);
width = 839;
},
{
layerId = "84EC96F5-B4D5-4389-883B-FBB110B3398F";
paths = (
{
closed = 1;
nodes = (
"565 167 OFFCURVE",
"775 437 OFFCURVE",
"775 639 CURVE",
"619 639 LINE",
"619 516 OFFCURVE",
"497 305 OFFCURVE",
"215 305 CURVE",
"202 167 LINE"
);
},
{
closed = 1;
nodes = (
"260 0 LINE",
"260 639 LINE",
"109 639 LINE",
"109 0 LINE"
);
},
{
closed = 1;
nodes = (
"823 0 LINE",
"567 387 LINE",
"430 324 LINE",
"639 0 LINE"
);
}
);
width = 840;
},
{
layerId = "A4690C19-62E3-4552-AAB4-AF5F97C4421F";
paths = (
{
closed = 1;
nodes = (
"552 206 OFFCURVE",
"763 364 OFFCURVE",
"763 639 CURVE",
"666 639 LINE",
"666 419 OFFCURVE",
"495 293 OFFCURVE",
"196 293 CURVE",
"184 206 LINE"
);
},
{
closed = 1;
nodes = (
"216 0 LINE",
"216 639 LINE",
"122 639 LINE",
"122 0 LINE"
);
},
{
closed = 1;
nodes = (
"810 0 LINE",
"543 351 LINE",
"459 308 LINE",
"697 0 LINE"
);
}
);
width = 840;
}
);
},
{
export = 0;
glyphname = L.half;
layers = (
{
layerId = "7062B15D-7097-4448-A185-D08BD1167FB1";
paths = (
{
closed = 1;
nodes = (
"237 0 LINE",
"237 639 LINE",
"116 639 LINE",
"116 0 LINE"
);
},
{
closed = 1;
nodes = (
"765 0 LINE",
"765 108 LINE",
"116 108 LINE",
"116 0 LINE"
);
}
);
width = 839;
},
{
layerId = "84EC96F5-B4D5-4389-883B-FBB110B3398F";
paths = (
{
closed = 1;
nodes = (
"260 0 LINE",
"260 639 LINE",
"109 639 LINE",
"109 0 LINE"
);
},
{
closed = 1;
nodes = (
"772 0 LINE",
"772 135 LINE",
"109 135 LINE",
"109 0 LINE"
);
}
);
width = 839;
},
{
layerId = "A4690C19-62E3-4552-AAB4-AF5F97C4421F";
paths = (
{
closed = 1;
nodes = (
"216 0 LINE",
"216 639 LINE",
"122 639 LINE",
"122 0 LINE"
);
},
{
closed = 1;
nodes = (
"760 0 LINE",
"760 90 LINE",
"122 90 LINE",
"122 0 LINE"
);
}
);
width = 840;
}
);
},
{
export = 0;
glyphname = M.half;
layers = (
{
layerId = "7062B15D-7097-4448-A185-D08BD1167FB1";
paths = (
{
closed = 1;
nodes = (
"482 169 LINE",
"620 512 LINE",
"654 512 LINE",
"644 639 LINE",
"560 639 LINE",
"422 285 LINE",
"420 285 LINE",
"409 169 LINE"
);
},
{
closed = 1;
nodes = (
"208 0 LINE",
"208 639 LINE",
"94 639 LINE",
"94 0 LINE"
);
},
{
closed = 1;
nodes = (
"435 169 LINE",
"421 285 LINE",
"418 285 LINE",
"280 639 LINE",
"207 639 LINE",
"197 512 LINE",
"220 512 LINE",
"358 169 LINE"
);
},
{
closed = 1;
nodes = (
"746 0 LINE",
"746 639 LINE",
"631 639 LINE",
"631 0 LINE"
);
}
);
width = 840;
},
{
layerId = "84EC96F5-B4D5-4389-883B-FBB110B3398F";
paths = (
{
closed = 1;
nodes = (
"487 162 LINE",
"589 499 LINE",
"631 499 LINE",
"630 639 LINE",
"527 639 LINE",
"426 288 LINE",
"417 288 LINE",
"395 162 LINE"
);
},
{
closed = 1;
nodes = (
"232 0 LINE",
"232 639 LINE",
"87 639 LINE",
"87 0 LINE"
);
},
{
closed = 1;
nodes = (
"435 162 LINE",
"420 288 LINE",
"414 288 LINE",
"313 639 LINE",
"209 639 LINE",
"208 499 LINE",
"251 499 LINE",
"353 162 LINE"
);
},
{
closed = 1;
nodes = (
"753 0 LINE",
"753 639 LINE",
"609 639 LINE",
"609 0 LINE"
);
}
);
width = 840;
},
{
layerId = "A4690C19-62E3-4552-AAB4-AF5F97C4421F";
paths = (
{
closed = 1;
nodes = (
"470 207 LINE",
"637 527 LINE",
"671 527 LINE",
"671 639 LINE",
"591 639 LINE",
"424 310 LINE",
"419 310 LINE",
"405 207 LINE"
);
},
{
closed = 1;
nodes = (
"192 0 LINE",
"192 639 LINE",
"100 639 LINE",
"100 0 LINE"
);
},
{
closed = 1;
nodes = (
"432 207 LINE",
"421 310 LINE",
"417 310 LINE",
"250 639 LINE",
"177 639 LINE",
"177 527 LINE",
"203 527 LINE",
"371 207 LINE"
);
},
{
closed = 1;
nodes = (
"741 0 LINE",
"741 639 LINE",
"649 639 LINE",
"649 0 LINE"
);
}
);
width = 841;
}
);
},
{
export = 0;
glyphname = N.half;
layers = (
{
layerId = "7062B15D-7097-4448-A185-D08BD1167FB1";
paths = (
{
closed = 1;
nodes = (
"637 0 LINE",
"637 125 LINE",
"596 125 LINE",
"298 639 LINE",
"192 639 LINE",
"192 514 LINE",
"244 514 LINE",
"543 0 LINE"
);
},
{
closed = 1;
nodes = (
"227 0 LINE",
"227 639 LINE",
"108 639 LINE",
"108 0 LINE"
);
},
{
closed = 1;
nodes = (
"732 0 LINE",
"732 639 LINE",
"613 639 LINE",
"613 0 LINE"
);
}
);
width = 840;
},
{
layerId = "84EC96F5-B4D5-4389-883B-FBB110B3398F";
paths = (
{
closed = 1;
nodes = (
"615 0 LINE",
"615 193 LINE",
"558 193 LINE",
"294 639 LINE",
"194 639 LINE",
"194 446 LINE",
"282 446 LINE",
"546 0 LINE"
);
},
{
closed = 1;
nodes = (
"246 0 LINE",
"246 639 LINE",
"101 639 LINE",
"101 0 LINE"
);
},
{
closed = 1;
nodes = (
"739 0 LINE",
"739 639 LINE",
"594 639 LINE",
"594 0 LINE"
);
}
);
width = 840;
},
{
layerId = "A4690C19-62E3-4552-AAB4-AF5F97C4421F";
paths = (
{
closed = 1;
nodes = (
"658 0 LINE",
"658 111 LINE",
"626 111 LINE",
"247 639 LINE",
"166 639 LINE",
"166 529 LINE",
"215 529 LINE",
"594 0 LINE"
);
},
{
closed = 1;
nodes = (
"206 0 LINE",
"206 639 LINE",
"114 639 LINE",
"114 0 LINE"
);
},
{
closed = 1;
nodes = (
"727 0 LINE",
"727 639 LINE",
"635 639 LINE",
"635 0 LINE"
);
}
);
width = 841;
}
);
},
{
export = 0;
glyphname = O.half;
layers = (
{
guideLines = (
{
angle = 90;
position = "{1124, 1269}";
}
);
layerId = "7062B15D-7097-4448-A185-D08BD1167FB1";
paths = (
{
closed = 1;
nodes = (
"660 -9 OFFCURVE",
"783 98 OFFCURVE",
"783 315 CURVE SMOOTH",
"783 537 OFFCURVE",
"661 648 OFFCURVE",
"420 648 CURVE SMOOTH",
"180 648 OFFCURVE",
"58 537 OFFCURVE",
"58 315 CURVE SMOOTH",
"58 98 OFFCURVE",
"181 -9 OFFCURVE",
"420 -9 CURVE SMOOTH"
);
},
{
closed = 1;
nodes = (
"262 97 OFFCURVE",
"183 170 OFFCURVE",
"183 315 CURVE SMOOTH",
"183 465 OFFCURVE",
"263 540 OFFCURVE",
"420 540 CURVE SMOOTH",
"578 540 OFFCURVE",
"658 465 OFFCURVE",
"658 315 CURVE SMOOTH",
"658 169 OFFCURVE",
"577 97 OFFCURVE",
"420 97 CURVE SMOOTH"
);
}
);
width = 841;
},
{
layerId = "84EC96F5-B4D5-4389-883B-FBB110B3398F";
paths = (
{
closed = 1;
nodes = (
"665 -9 OFFCURVE",
"790 98 OFFCURVE",
"790 315 CURVE SMOOTH",
"790 537 OFFCURVE",
"666 648 OFFCURVE",
"420 648 CURVE SMOOTH",
"175 648 OFFCURVE",
"51 537 OFFCURVE",
"51 315 CURVE SMOOTH",
"51 98 OFFCURVE",
"176 -9 OFFCURVE",
"420 -9 CURVE SMOOTH"
);
},
{
closed = 1;
nodes = (
"281 130 OFFCURVE",
"210 191 OFFCURVE",
"210 315 CURVE SMOOTH",
"210 447 OFFCURVE",
"281 513 OFFCURVE",
"420 513 CURVE SMOOTH",
"560 513 OFFCURVE",
"631 447 OFFCURVE",
"631 315 CURVE SMOOTH",
"631 191 OFFCURVE",
"560 130 OFFCURVE",
"420 130 CURVE SMOOTH"
);
}
);
width = 841;
},
{
layerId = "A4690C19-62E3-4552-AAB4-AF5F97C4421F";
paths = (
{
closed = 1;
nodes = (
"656 -9 OFFCURVE",
"777 98 OFFCURVE",
"777 315 CURVE SMOOTH",
"777 537 OFFCURVE",
"657 648 OFFCURVE",
"420 648 CURVE SMOOTH",
"183 648 OFFCURVE",
"63 537 OFFCURVE",
"63 315 CURVE SMOOTH",
"63 98 OFFCURVE",
"183 -9 OFFCURVE",
"420 -9 CURVE SMOOTH"
);
},
{
closed = 1;
nodes = (
"248 77 OFFCURVE",
"161 156 OFFCURVE",
"161 315 CURVE SMOOTH",
"161 480 OFFCURVE",
"248 562 OFFCURVE",
"420 562 CURVE SMOOTH",
"592 562 OFFCURVE",
"679 480 OFFCURVE",
"679 315 CURVE SMOOTH",
"679 156 OFFCURVE",
"592 77 OFFCURVE",
"420 77 CURVE SMOOTH"
);
}
);
width = 840;
}
);
},
{
export = 0;
glyphname = P.half;
layers = (
{
layerId = "7062B15D-7097-4448-A185-D08BD1167FB1";
paths = (
{
closed = 1;
nodes = (
"486 187 LINE SMOOTH",
"682 187 OFFCURVE",
"779 267 OFFCURVE",
"779 427 CURVE SMOOTH",
"779 569 OFFCURVE",
"682 639 OFFCURVE",
"486 639 CURVE SMOOTH",
"223 639 LINE",
"223 531 LINE",
"486 531 LINE SMOOTH",
"595 531 OFFCURVE",
"649 492 OFFCURVE",
"649 415 CURVE SMOOTH",
"649 335 OFFCURVE",
"595 295 OFFCURVE",
"486 295 CURVE SMOOTH",
"220 295 LINE",
"220 187 LINE"
);
},
{
closed = 1;
nodes = (
"237 0 LINE",
"237 639 LINE",
"116 639 LINE",
"116 0 LINE"
);
}
);
width = 839;
},
{
layerId = "84EC96F5-B4D5-4389-883B-FBB110B3398F";
paths = (
{
closed = 1;
nodes = (
"503 175 LINE SMOOTH",
"692 175 OFFCURVE",
"786 252 OFFCURVE",
"786 408 CURVE SMOOTH",
"786 562 OFFCURVE",
"692 639 OFFCURVE",
"503 639 CURVE SMOOTH",
"246 639 LINE",
"246 503 LINE",
"503 503 LINE SMOOTH",
"586 503 OFFCURVE",
"627 472 OFFCURVE",
"627 407 CURVE SMOOTH",
"627 342 OFFCURVE",
"586 310 OFFCURVE",
"503 310 CURVE SMOOTH",
"244 310 LINE",
"244 175 LINE"
);
},
{
closed = 1;
nodes = (
"260 0 LINE",
"260 639 LINE",
"109 639 LINE",
"109 0 LINE"
);
}
);
width = 839;
},
{
layerId = "A4690C19-62E3-4552-AAB4-AF5F97C4421F";
paths = (
{
closed = 1;
nodes = (
"483 201 LINE SMOOTH",
"678 201 OFFCURVE",
"774 274 OFFCURVE",
"774 420 CURVE SMOOTH",
"774 566 OFFCURVE",
"678 639 OFFCURVE",
"483 639 CURVE SMOOTH",
"202 639 LINE",
"202 551 LINE",
"483 551 LINE SMOOTH",
"612 551 OFFCURVE",
"676 507 OFFCURVE",
"676 420 CURVE SMOOTH",
"676 333 OFFCURVE",
"612 290 OFFCURVE",
"483 290 CURVE SMOOTH",
"199 290 LINE",
"199 201 LINE"
);
},
{
closed = 1;
nodes = (
"216 0 LINE",
"216 639 LINE",
"122 639 LINE",
"122 0 LINE"
);
}
);
width = 840;
}
);
},
{
export = 0;
glyphname = Q.half;
layers = (
{
components = (
{
name = O.half;
}
);
layerId = "7062B15D-7097-4448-A185-D08BD1167FB1";
paths = (
{
closed = 1;
nodes = (
"719 -217 LINE",
"728 -107 LINE",
"632 -107 LINE SMOOTH",
"519 -107 OFFCURVE",
"478 -87 OFFCURVE",
"478 -30 CURVE SMOOTH",
"478 21 LINE",
"355 21 LINE",
"355 -29 LINE SMOOTH",
"355 -167 OFFCURVE",
"428 -217 OFFCURVE",
"632 -217 CURVE SMOOTH"
);
}
);
width = 841;
},
{
components = (
{
alignment = -1;
name = O.half;
}
);
layerId = "84EC96F5-B4D5-4389-883B-FBB110B3398F";
paths = (
{
closed = 1;
nodes = (
"709 -257 LINE",
"724 -123 LINE",
"609 -123 LINE SMOOTH",
"519 -123 OFFCURVE",
"491 -90 OFFCURVE",
"491 -30 CURVE SMOOTH",
"491 36 LINE",
"341 36 LINE",
"341 -29 LINE SMOOTH",
"341 -202 OFFCURVE",
"448 -257 OFFCURVE",
"609 -257 CURVE SMOOTH"
);
}
);
width = 841;
},
{
components = (
{
alignment = -1;
name = O.half;
}
);
layerId = "A4690C19-62E3-4552-AAB4-AF5F97C4421F";
paths = (
{
closed = 1;
nodes = (
"709 -217 LINE",
"719 -132 LINE",
"612 -132 LINE SMOOTH",
"513 -132 OFFCURVE",
"464 -98 OFFCURVE",
"464 -30 CURVE SMOOTH",
"464 27 LINE",
"370 27 LINE",
"370 -29 LINE SMOOTH",
"370 -155 OFFCURVE",
"450 -217 OFFCURVE",
"612 -217 CURVE SMOOTH"
);
}
);
width = 840;
}
);
},
{
export = 0;
glyphname = R.half;
layers = (
{
layerId = "7062B15D-7097-4448-A185-D08BD1167FB1";
paths = (
{
closed = 1;
nodes = (
"524 241 LINE SMOOTH",
"665 241 OFFCURVE",
"758 325 OFFCURVE",
"758 452 CURVE SMOOTH",
"758 565 OFFCURVE",
"665 639 OFFCURVE",
"524 639 CURVE SMOOTH",
"199 639 LINE",
"216 531 LINE",
"524 531 LINE SMOOTH",
"587 531 OFFCURVE",
"628 496 OFFCURVE",
"628 443 CURVE SMOOTH",
"628 387 OFFCURVE",
"587 350 OFFCURVE",
"524 350 CURVE SMOOTH",
"213 350 LINE",
"213 241 LINE"
);
},
{
closed = 1;
nodes = (
"223 0 LINE",
"223 639 LINE",
"102 639 LINE",
"102 0 LINE"
);
},
{
closed = 1;
nodes = (
"794 0 LINE",
"573 301 LINE",
"447 301 LINE",
"651 0 LINE"
);
}
);
width = 839;
},
{
layerId = "84EC96F5-B4D5-4389-883B-FBB110B3398F";
paths = (
{
closed = 1;
nodes = (
"517 201 LINE SMOOTH",
"675 201 OFFCURVE",
"765 284 OFFCURVE",
"765 427 CURVE SMOOTH",
"765 561 OFFCURVE",
"675 639 OFFCURVE",
"517 639 CURVE SMOOTH",
"223 639 LINE",
"239 504 LINE",
"517 504 LINE SMOOTH",
"574 504 OFFCURVE",
"606 473 OFFCURVE",
"606 418 CURVE SMOOTH",
"606 366 OFFCURVE",
"574 336 OFFCURVE",
"517 336 CURVE SMOOTH",
"237 336 LINE",
"237 201 LINE"
);
},
{
closed = 1;
nodes = (
"246 0 LINE",
"246 639 LINE",
"95 639 LINE",
"95 0 LINE"
);
},
{
closed = 1;
nodes = (
"802 0 LINE",
"568 301 LINE",
"403 301 LINE",
"620 0 LINE"
);
}
);
width = 840;
},
{
layerId = "A4690C19-62E3-4552-AAB4-AF5F97C4421F";
paths = (
{
closed = 1;
nodes = (
"516 247 LINE SMOOTH",
"667 247 OFFCURVE",
"753 320 OFFCURVE",
"753 447 CURVE SMOOTH",
"753 569 OFFCURVE",
"667 639 OFFCURVE",
"516 639 CURVE SMOOTH",
"178 639 LINE",
"195 551 LINE",
"516 551 LINE SMOOTH",
"604 551 OFFCURVE",
"655 510 OFFCURVE",
"655 438 CURVE SMOOTH",
"655 372 OFFCURVE",
"604 335 OFFCURVE",
"516 335 CURVE SMOOTH",
"192 335 LINE",
"192 247 LINE"
);
},
{
closed = 1;
nodes = (
"202 0 LINE",
"202 639 LINE",
"108 639 LINE",
"108 0 LINE"
);
},
{
closed = 1;
nodes = (
"789 0 LINE",
"546 301 LINE",
"442 301 LINE",
"676 0 LINE"
);
}
);
width = 840;
}
);
},
{
export = 0;
glyphname = S.half;
layers = (
{
layerId = "7062B15D-7097-4448-A185-D08BD1167FB1";
paths = (
{
closed = 1;
nodes = (
"620 -9 OFFCURVE",
"736 53 OFFCURVE",
"736 178 CURVE SMOOTH",
"736 257 OFFCURVE",
"688 327 OFFCURVE",
"580 347 CURVE SMOOTH",
"322 394 LINE SMOOTH",
"274 403 OFFCURVE",
"252 431 OFFCURVE",
"252 462 CURVE SMOOTH",
"252 511 OFFCURVE",
"318 535 OFFCURVE",
"450 535 CURVE SMOOTH",
"522 535 OFFCURVE",
"600 518 OFFCURVE",
"688 485 CURVE",
"740 587 LINE",
"658 628 OFFCURVE",
"562 648 OFFCURVE",
"450 648 CURVE SMOOTH",
"231 648 OFFCURVE",
"122 586 OFFCURVE",
"122 459 CURVE SMOOTH",
"122 377 OFFCURVE",
"166 310 OFFCURVE",
"263 293 CURVE SMOOTH",
"525 247 LINE SMOOTH",
"581 237 OFFCURVE",
"605 209 OFFCURVE",
"605 178 CURVE SMOOTH",
"605 129 OFFCURVE",
"536 105 OFFCURVE",
"397 105 CURVE SMOOTH",
"309 105 OFFCURVE",
"214 117 OFFCURVE",
"112 141 CURVE",
"95 23 LINE",
"185 2 OFFCURVE",
"282 -9 OFFCURVE",
"386 -9 CURVE SMOOTH"
);
}
);
width = 840;
},
{
layerId = "84EC96F5-B4D5-4389-883B-FBB110B3398F";
paths = (
{
closed = 1;
nodes = (
"625 -9 OFFCURVE",
"743 60 OFFCURVE",
"743 200 CURVE SMOOTH",
"743 313 OFFCURVE",
"669 372 OFFCURVE",
"520 378 CURVE SMOOTH",
"359 384 LINE SMOOTH",
"302 386 OFFCURVE",
"274 407 OFFCURVE",
"274 448 CURVE SMOOTH",
"274 491 OFFCURVE",
"329 513 OFFCURVE",
"439 513 CURVE SMOOTH",
"523 513 OFFCURVE",
"606 496 OFFCURVE",
"690 463 CURVE",
"746 593 LINE",
"662 630 OFFCURVE",
"560 648 OFFCURVE",
"439 648 CURVE SMOOTH",
"222 648 OFFCURVE",
"115 577 OFFCURVE",
"115 434 CURVE SMOOTH",
"115 319 OFFCURVE",
"181 259 OFFCURVE",
"315 254 CURVE SMOOTH",
"502 247 LINE SMOOTH",
"556 245 OFFCURVE",
"583 225 OFFCURVE",
"583 188 CURVE SMOOTH",
"583 147 OFFCURVE",
"521 126 OFFCURVE",
"397 126 CURVE SMOOTH",
"308 126 OFFCURVE",
"212 143 OFFCURVE",
"108 178 CURVE",
"88 30 LINE",
"172 4 OFFCURVE",
"271 -9 OFFCURVE",
"386 -9 CURVE SMOOTH"
);
}
);
width = 841;
},
{
layerId = "A4690C19-62E3-4552-AAB4-AF5F97C4421F";
paths = (
{
closed = 1;
nodes = (
"616 -9 OFFCURVE",
"730 51 OFFCURVE",
"730 172 CURVE SMOOTH",
"730 252 OFFCURVE",
"674 306 OFFCURVE",
"560 336 CURVE SMOOTH",
"306 392 LINE SMOOTH",
"251 406 OFFCURVE",
"224 431 OFFCURVE",
"224 468 CURVE SMOOTH",
"224 528 OFFCURVE",
"296 558 OFFCURVE",
"442 558 CURVE SMOOTH",
"520 558 OFFCURVE",
"596 543 OFFCURVE",
"671 513 CURVE",
"722 598 LINE",
"629 631 OFFCURVE",
"536 648 OFFCURVE",
"441 648 CURVE SMOOTH",
"231 648 OFFCURVE",
"127 587 OFFCURVE",
"127 464 CURVE SMOOTH",
"127 387 OFFCURVE",
"174 336 OFFCURVE",
"270 310 CURVE SMOOTH",
"546 248 LINE SMOOTH",
"603 233 OFFCURVE",
"632 207 OFFCURVE",
"632 170 CURVE SMOOTH",
"632 110 OFFCURVE",
"554 81 OFFCURVE",
"397 81 CURVE SMOOTH",
"310 81 OFFCURVE",
"216 95 OFFCURVE",
"113 123 CURVE",
"100 25 LINE",
"182 2 OFFCURVE",
"277 -9 OFFCURVE",
"385 -9 CURVE SMOOTH"
);
}
);
width = 840;
}
);
},
{
export = 0;
glyphname = T.half;
layers = (
{
layerId = "7062B15D-7097-4448-A185-D08BD1167FB1";
paths = (
{
closed = 1;
nodes = (
"480 0 LINE",
"480 639 LINE",
"359 639 LINE",
"359 0 LINE"
);
},
{
closed = 1;
nodes = (
"779 531 LINE",
"779 639 LINE",
"60 639 LINE",
"60 531 LINE"
);
}
);
width = 839;
},
{
layerId = "84EC96F5-B4D5-4389-883B-FBB110B3398F";
paths = (
{
closed = 1;
nodes = (
"495 0 LINE",
"495 639 LINE",
"344 639 LINE",
"344 0 LINE"
);
},
{
closed = 1;
nodes = (
"786 504 LINE",
"786 639 LINE",
"53 639 LINE",
"53 504 LINE"
);
}
);
width = 839;
},
{
layerId = "A4690C19-62E3-4552-AAB4-AF5F97C4421F";
paths = (
{
closed = 1;
nodes = (
"467 0 LINE",
"467 639 LINE",
"373 639 LINE",
"373 0 LINE"
);
},
{
closed = 1;
nodes = (
"774 551 LINE",
"774 639 LINE",
"66 639 LINE",
"66 551 LINE"
);
}
);
width = 840;
}
);
},
{
export = 0;
glyphname = U.half;
layers = (
{
layerId = "7062B15D-7097-4448-A185-D08BD1167FB1";
paths = (
{
closed = 1;
nodes = (
"631 -9 OFFCURVE",
"737 78 OFFCURVE",
"737 255 CURVE SMOOTH",
"737 639 LINE",
"616 639 LINE",
"616 255 LINE SMOOTH",
"616 152 OFFCURVE",
"551 101 OFFCURVE",
"420 101 CURVE SMOOTH",
"289 101 OFFCURVE",
"223 152 OFFCURVE",
"223 255 CURVE SMOOTH",
"223 639 LINE",
"102 639 LINE",
"102 255 LINE SMOOTH",
"102 78 OFFCURVE",
"206 -9 OFFCURVE",
"417 -9 CURVE SMOOTH"
);
}
);
width = 839;
},
{
layerId = "84EC96F5-B4D5-4389-883B-FBB110B3398F";
paths = (
{
closed = 1;
nodes = (
"636 -9 OFFCURVE",
"744 82 OFFCURVE",
"744 265 CURVE SMOOTH",
"744 639 LINE",
"593 639 LINE",
"593 265 LINE SMOOTH",
"593 172 OFFCURVE",
"536 126 OFFCURVE",
"420 126 CURVE SMOOTH",
"304 126 OFFCURVE",
"246 172 OFFCURVE",
"246 265 CURVE SMOOTH",
"246 639 LINE",
"95 639 LINE",
"95 265 LINE SMOOTH",
"95 82 OFFCURVE",
"202 -9 OFFCURVE",
"417 -9 CURVE SMOOTH"
);
}
);
width = 839;
},
{
layerId = "A4690C19-62E3-4552-AAB4-AF5F97C4421F";
paths = (
{
closed = 1;
nodes = (
"638 -9 OFFCURVE",
"732 70 OFFCURVE",
"732 255 CURVE SMOOTH",
"732 639 LINE",
"638 639 LINE",
"638 255 LINE SMOOTH",
"638 130 OFFCURVE",
"573 77 OFFCURVE",
"420 77 CURVE SMOOTH",
"267 77 OFFCURVE",
"202 130 OFFCURVE",
"202 255 CURVE SMOOTH",
"202 639 LINE",
"108 639 LINE",
"108 255 LINE SMOOTH",
"108 70 OFFCURVE",
"200 -9 OFFCURVE",
"417 -9 CURVE SMOOTH"
);
}
);
width = 840;
}
);
},
{
export = 0;
glyphname = V.half;
layers = (
{
layerId = "7062B15D-7097-4448-A185-D08BD1167FB1";
paths = (
{
closed = 1;
nodes = (
"503 0 LINE",
"804 639 LINE",
"674 639 LINE",
"424 102 LINE",
"416 102 LINE",
"166 639 LINE",
"36 639 LINE",
"337 0 LINE"
);
}
);
width = 840;
},
{
layerId = "84EC96F5-B4D5-4389-883B-FBB110B3398F";
paths = (
{
closed = 1;
nodes = (
"528 0 LINE",
"811 639 LINE",
"645 639 LINE",
"427 129 LINE",
"414 129 LINE",
"196 639 LINE",
"29 639 LINE",
"312 0 LINE"
);
}
);
width = 840;
},
{
layerId = "A4690C19-62E3-4552-AAB4-AF5F97C4421F";
paths = (
{
closed = 1;
nodes = (
"486 0 LINE",
"799 639 LINE",
"700 639 LINE",
"425 80 LINE",
"416 80 LINE",
"141 639 LINE",
"42 639 LINE",
"355 0 LINE"
);
}
);
width = 841;
}
);
},
{
export = 0;
glyphname = X.half;
layers = (
{
layerId = "7062B15D-7097-4448-A185-D08BD1167FB1";
paths = (
{
closed = 1;
nodes = (
"800 0 LINE",
"474 337 LINE",
"203 639 LINE",
"41 639 LINE",
"376 285 LINE",
"639 0 LINE"
);
},
{
closed = 1;
nodes = (
"203 0 LINE",
"465 285 LINE",
"800 639 LINE",
"639 639 LINE",
"366 337 LINE",
"41 0 LINE"
);
}
);
width = 840;
},
{
layerId = "84EC96F5-B4D5-4389-883B-FBB110B3398F";
paths = (
{
closed = 1;
nodes = (
"799 0 LINE",
"475 350 LINE",
"238 639 LINE",
"42 639 LINE",
"376 272 LINE",
"602 0 LINE"
);
},
{
closed = 1;
nodes = (
"238 0 LINE",
"465 272 LINE",
"799 639 LINE",
"602 639 LINE",
"366 350 LINE",
"42 0 LINE"
);
}
);
width = 840;
},
{
layerId = "A4690C19-62E3-4552-AAB4-AF5F97C4421F";
paths = (
{
closed = 1;
nodes = (
"785 0 LINE",
"461 336 LINE",
"178 639 LINE",
"56 639 LINE",
"389 286 LINE",
"663 0 LINE"
);
},
{
closed = 1;
nodes = (
"178 0 LINE",
"452 286 LINE",
"785 639 LINE",
"663 639 LINE",
"379 335 LINE",
"56 0 LINE"
);
}
);
width = 840;
}
);
},
{
export = 0;
glyphname = Y.half;
layers = (
{
layerId = "7062B15D-7097-4448-A185-D08BD1167FB1";
paths = (
{
closed = 1;
nodes = (
"462 162 LINE",
"818 639 LINE",
"683 639 LINE",
"423 289 LINE",
"417 289 LINE",
"157 639 LINE",
"22 639 LINE",
"378 162 LINE"
);
},
{
closed = 1;
nodes = (
"481 0 LINE",
"481 257 LINE",
"359 257 LINE",
"359 0 LINE"
);
}
);
width = 840;
},
{
layerId = "84EC96F5-B4D5-4389-883B-FBB110B3398F";
paths = (
{
closed = 1;
nodes = (
"486 160 LINE",
"825 639 LINE",
"659 639 LINE",
"427 311 LINE",
"414 311 LINE",
"182 639 LINE",
"15 639 LINE",
"355 160 LINE"
);
},
{
closed = 1;
nodes = (
"496 0 LINE",
"496 260 LINE",
"345 260 LINE",
"345 0 LINE"
);
}
);
width = 840;
},
{
layerId = "A4690C19-62E3-4552-AAB4-AF5F97C4421F";
paths = (
{
closed = 1;
nodes = (
"455 168 LINE",
"813 639 LINE",
"709 639 LINE",
"425 267 LINE",
"416 267 LINE",
"132 639 LINE",
"28 639 LINE",
"386 168 LINE"
);
},
{
closed = 1;
nodes = (
"468 0 LINE",
"468 257 LINE",
"373 257 LINE",
"373 0 LINE"
);
}
);
width = 841;
}
);
},
{
glyphname = Asmall;
layers = (
{
anchors = (
{
name = bottom;
position = "{506, 0}";
},
{
name = ogonek;
position = "{989, 8}";
},
{
name = top;
position = "{696, 1079}";
}
);
layerId = "7062B15D-7097-4448-A185-D08BD1167FB1";
paths = (
{
closed = 1;
nodes = (
"175 0 LINE",
"661 885 LINE",
"678 885 LINE",
"846 0 LINE",
"1060 0 LINE",
"829 1079 LINE",
"556 1079 LINE",
"-47 0 LINE"
);
},
{
closed = 1;
nodes = (
"902 229 LINE",
"931 393 LINE",
"211 393 LINE",
"182 229 LINE"
);
}
);
width = 1200;
},
{
anchors = (
{
name = bottom;
position = "{506, 0}";
},
{
name = ogonek;
position = "{989, 8}";
},
{
name = top;
position = "{696, 1079}";
}
);
layerId = "84EC96F5-B4D5-4389-883B-FBB110B3398F";
paths = (
{
closed = 1;
nodes = (
"207 0 LINE",
"649 831 LINE",
"667 831 LINE",
"812 0 LINE",
"1072 0 LINE",
"852 1079 LINE",
"537 1079 LINE",
"-58 0 LINE"
);
},
{
closed = 1;
nodes = (
"897 197 LINE",
"934 407 LINE",
"214 407 LINE",
"177 197 LINE"
);
}
);
width = 1200;
},
{
anchors = (
{
name = bottom;
position = "{506, 0}";
},
{
name = ogonek;
position = "{989, 8}";
},
{
name = top;
position = "{696, 1079}";
}
);
layerId = "A4690C19-62E3-4552-AAB4-AF5F97C4421F";
paths = (
{
closed = 1;
nodes = (
"78 0 LINE",
"682 1004 LINE",
"692 1004 LINE",
"939 0 LINE",
"1040 0 LINE",
"768 1079 LINE",
"623 1079 LINE",
"-26 0 LINE"
);
},
{
closed = 1;
nodes = (
"914 293 LINE",
"929 378 LINE",
"209 378 LINE",
"194 293 LINE"
);
}
);
width = 1200;
}
);
unicode = 1D00;
},
{
glyphname = Gsmall;
layers = (
{
anchors = (
{
name = bottom;
position = "{506, 0}";
},
{
name = top;
position = "{746, 1079}";
}
);
layerId = "7062B15D-7097-4448-A185-D08BD1167FB1";
paths = (
{
closed = 1;
nodes = (
"809 -15 OFFCURVE",
"967 17 OFFCURVE",
"1024 30 CURVE",
"976 213 LINE",
"903 199 OFFCURVE",
"789 175 OFFCURVE",
"644 175 CURVE SMOOTH",
"422 175 OFFCURVE",
"298 282 OFFCURVE",
"298 466 CURVE SMOOTH",
"298 742 OFFCURVE",
"500 904 OFFCURVE",
"792 904 CURVE SMOOTH",
"897 904 OFFCURVE",
"985 879 OFFCURVE",
"1073 825 CURVE",
"1204 995 LINE",
"1122 1053 OFFCURVE",
"1009 1094 OFFCURVE",
"814 1094 CURVE SMOOTH",
"382 1094 OFFCURVE",
"78 851 OFFCURVE",
"78 448 CURVE SMOOTH",
"78 154 OFFCURVE",
"273 -15 OFFCURVE",
"626 -15 CURVE SMOOTH"
);
},
{
closed = 1;
nodes = (
"1024 30 LINE",
"1119 570 LINE",
"904 570 LINE",
"809 30 LINE"
);
},
{
closed = 1;
nodes = (
"1080 380 LINE",
"1113 570 LINE",
"660 570 LINE",
"627 380 LINE"
);
}
);
width = 1200;
},
{
anchors = (
{
name = bottom;
position = "{506, 0}";
},
{
name = top;
position = "{746, 1079}";
}
);
layerId = "84EC96F5-B4D5-4389-883B-FBB110B3398F";
paths = (
{
closed = 1;
nodes = (
"818 -15 OFFCURVE",
"979 17 OFFCURVE",
"1039 30 CURVE",
"988 280 LINE",
"915 266 OFFCURVE",
"796 242 OFFCURVE",
"656 242 CURVE SMOOTH",
"450 242 OFFCURVE",
"344 314 OFFCURVE",
"344 471 CURVE SMOOTH",
"344 711 OFFCURVE",
"519 837 OFFCURVE",
"780 837 CURVE SMOOTH",
"893 837 OFFCURVE",
"995 817 OFFCURVE",
"1056 783 CURVE",
"1211 1004 LINE",
"1133 1061 OFFCURVE",
"989 1094 OFFCURVE",
"814 1094 CURVE SMOOTH",
"361 1094 OFFCURVE",
"57 854 OFFCURVE",
"57 446 CURVE SMOOTH",
"57 134 OFFCURVE",
"251 -15 OFFCURVE",
"636 -15 CURVE SMOOTH"
);
},
{
closed = 1;
nodes = (
"1039 30 LINE",
"1141 609 LINE",
"885 609 LINE",
"783 30 LINE"
);
},
{
closed = 1;
nodes = (
"1096 388 LINE",
"1135 609 LINE",
"674 609 LINE",
"635 388 LINE"
);
}
);
width = 1200;
},
{
anchors = (
{
name = bottom;
position = "{506, 0}";
},
{
name = top;
position = "{746, 1079}";
}
);
layerId = "A4690C19-62E3-4552-AAB4-AF5F97C4421F";
paths = (
{
closed = 1;
nodes = (
"784 -15 OFFCURVE",
"932 17 OFFCURVE",
"991 30 CURVE",
"946 115 LINE",
"876 101 OFFCURVE",
"765 77 OFFCURVE",
"627 77 CURVE SMOOTH",
"347 77 OFFCURVE",
"194 204 OFFCURVE",
"194 436 CURVE SMOOTH",
"194 776 OFFCURVE",
"411 1002 OFFCURVE",
"751 1002 CURVE SMOOTH",
"903 1002 OFFCURVE",
"1032 961 OFFCURVE",
"1110 890 CURVE",
"1190 973 LINE",
"1119 1050 OFFCURVE",
"966 1094 OFFCURVE",
"765 1094 CURVE SMOOTH",
"354 1094 OFFCURVE",
"88 826 OFFCURVE",
"88 435 CURVE SMOOTH",
"88 144 OFFCURVE",
"271 -15 OFFCURVE",
"607 -15 CURVE SMOOTH"
);
},
{
closed = 1;
nodes = (
"991 30 LINE",
"1076 510 LINE",
"980 510 LINE",
"895 30 LINE"
);
},
{
closed = 1;
nodes = (
"1054 420 LINE",
"1070 510 LINE",
"648 510 LINE",
"632 420 LINE"
);
}
);
width = 1200;
}
);
unicode = 0262;
},
{
glyphname = Ismall;
production = uni026A;
layers = (
{
anchors = (
{
name = bottom;
position = "{506, 0}";
},
{
name = top;
position = "{693, 1060}";
}
);
layerId = "7062B15D-7097-4448-A185-D08BD1167FB1";
paths = (
{
closed = 1;
nodes = (
"614 0 LINE",
"800 1060 LINE",
"586 1060 LINE",
"400 0 LINE"
);
},
{
closed = 1;
nodes = (
"939 0 LINE",
"969 174 LINE",
"105 174 LINE",
"75 0 LINE"
);
},
{
closed = 1;
nodes = (
"1095 886 LINE",
"1125 1060 LINE",
"261 1060 LINE",
"231 886 LINE"
);
}
);
width = 1200;
},
{
anchors = (
{
name = bottom;
position = "{506, 0}";
},
{
name = top;
position = "{693, 1060}";
}
);
layerId = "84EC96F5-B4D5-4389-883B-FBB110B3398F";
paths = (
{
closed = 1;
nodes = (
"643 0 LINE",
"829 1060 LINE",
"557 1060 LINE",
"371 0 LINE"
);
},
{
closed = 1;
nodes = (
"939 0 LINE",
"982 249 LINE",
"118 249 LINE",
"75 0 LINE"
);
},
{
closed = 1;
nodes = (
"1082 811 LINE",
"1125 1060 LINE",
"261 1060 LINE",
"218 811 LINE"
);
}
);
width = 1200;
},
{
anchors = (
{
name = bottom;
position = "{506, 0}";
},
{
name = top;
position = "{693, 1060}";
}
);
layerId = "A4690C19-62E3-4552-AAB4-AF5F97C4421F";
paths = (
{
closed = 1;
nodes = (
"555 0 LINE",
"741 1060 LINE",
"645 1060 LINE",
"459 0 LINE"
);
},
{
closed = 1;
nodes = (
"915 0 LINE",
"930 90 LINE",
"114 90 LINE",
"99 0 LINE"
);
},
{
closed = 1;
nodes = (
"1086 970 LINE",
"1101 1060 LINE",
"285 1060 LINE",
"270 970 LINE"
);
}
);
width = 1200;
}
);
unicode = 026A;
},
{
glyphname = Lsmall;
layers = (
{
anchors = (
{
name = bottom;
position = "{554, 0}";
},
{
name = center;
position = "{629, 540}";
},
{
name = top;
position = "{363, 1079}";
},
{
name = topright;
position = "{1304, 1079}";
}
);
layerId = "7062B15D-7097-4448-A185-D08BD1167FB1";
paths = (
{
closed = 1;
nodes = (
"279 0 LINE",
"469 1079 LINE",
"256 1079 LINE",
"66 0 LINE"
);
},
{
closed = 1;
nodes = (
"1009 0 LINE",
"1040 174 LINE",
"97 174 LINE",
"66 0 LINE"
);
}
);
width = 1200;
},
{
anchors = (
{
name = bottom;
position = "{506, 0}";
},
{
name = center;
position = "{629, 540}";
},
{
name = top;
position = "{374, 1079}";
},
{
name = topright;
position = "{1304, 1079}";
}
);
layerId = "84EC96F5-B4D5-4389-883B-FBB110B3398F";
paths = (
{
closed = 1;
nodes = (
"319 0 LINE",
"509 1079 LINE",
"239 1079 LINE",
"49 0 LINE"
);
},
{
closed = 1;
nodes = (
"1026 0 LINE",
"1070 250 LINE",
"93 250 LINE",
"49 0 LINE"
);
}
);
width = 1200;
},
{
anchors = (
{
name = bottom;
position = "{554, 0}";
},
{
name = center;
position = "{629, 540}";
},
{
name = top;
position = "{328, 1079}";
},
{
name = topright;
position = "{1304, 1079}";
}
);
layerId = "A4690C19-62E3-4552-AAB4-AF5F97C4421F";
paths = (
{
closed = 1;
nodes = (
"186 0 LINE",
"376 1079 LINE",
"280 1079 LINE",
"90 0 LINE"
);
},
{
closed = 1;
nodes = (
"985 0 LINE",
"1001 90 LINE",
"106 90 LINE",
"90 0 LINE"
);
}
);
width = 1200;
}
);
unicode = 029F;
},
{
glyphname = a;
layers = (
{
anchors = (
{
name = bottom;
position = "{506, 0}";
},
{
name = ogonek;
position = "{982, 10}";
},
{
name = top;
position = "{723, 1060}";
}
);
layerId = "7062B15D-7097-4448-A185-D08BD1167FB1";
paths = (
{
closed = 1;
nodes = (
"552 -21 OFFCURVE",
"712 99 OFFCURVE",
"786 309 CURVE",
"733 251 LINE",
"849 251 LINE",
"791 277 LINE",
"765 66 OFFCURVE",
"829 -10 OFFCURVE",
"1034 -10 CURVE SMOOTH",
"1105 -10 LINE",
"1135 165 LINE",
"1094 165 LINE SMOOTH",
"977 165 OFFCURVE",
"948 210 OFFCURVE",
"967 317 CURVE SMOOTH",
"1099 1070 LINE",
"1079 1070 LINE SMOOTH",
"501 1070 OFFCURVE",
"63 758 OFFCURVE",
"63 277 CURVE SMOOTH",
"63 88 OFFCURVE",
"166 -21 OFFCURVE",
"347 -21 CURVE SMOOTH"
);
},
{
closed = 1;
nodes = (
"327 169 OFFCURVE",
"277 217 OFFCURVE",
"277 302 CURVE SMOOTH",
"277 621 OFFCURVE",
"572 864 OFFCURVE",
"946 880 CURVE",
"865 957 LINE",
"813 667 LINE SMOOTH",
"756 349 OFFCURVE",
"604 169 OFFCURVE",
"412 169 CURVE SMOOTH"
);
}
);
width = 1200;
},
{
anchors = (
{
name = bottom;
position = "{506, 0}";
},
{
name = ogonek;
position = "{982, 10}";
},
{
name = top;
position = "{723, 1060}";
}
);
layerId = "84EC96F5-B4D5-4389-883B-FBB110B3398F";
paths = (
{
closed = 1;
nodes = (
"541 -21 OFFCURVE",
"694 117 OFFCURVE",
"764 359 CURVE",
"701 224 LINE",
"817 224 LINE",
"751 250 LINE",
"735 131 OFFCURVE",
"724 -10 OFFCURVE",
"1016 -10 CURVE SMOOTH",
"1125 -10 LINE",
"1165 219 LINE",
"1117 219 LINE SMOOTH",
"1007 219 OFFCURVE",
"979 247 OFFCURVE",
"995 341 CURVE SMOOTH",
"1122 1070 LINE",
"1097 1070 LINE SMOOTH",
"490 1070 OFFCURVE",
"32 758 OFFCURVE",
"32 277 CURVE SMOOTH",
"32 88 OFFCURVE",
"146 -21 OFFCURVE",
"346 -21 CURVE SMOOTH"
);
},
{
closed = 1;
nodes = (
"341 236 OFFCURVE",
"309 266 OFFCURVE",
"309 332 CURVE SMOOTH",
"309 597 OFFCURVE",
"579 799 OFFCURVE",
"924 813 CURVE",
"828 957 LINE",
"777 667 LINE SMOOTH",
"729 392 OFFCURVE",
"586 236 OFFCURVE",
"411 236 CURVE SMOOTH"
);
}
);
width = 1200;
},
{
anchors = (
{
name = bottom;
position = "{506, 0}";
},
{
name = ogonek;
position = "{982, 10}";
},
{
name = top;
position = "{723, 1060}";
}
);
layerId = "A4690C19-62E3-4552-AAB4-AF5F97C4421F";
paths = (
{
closed = 1;
nodes = (
"593 -21 OFFCURVE",
"767 125 OFFCURVE",
"847 382 CURVE",
"799 284 LINE",
"895 284 LINE",
"826 289 LINE",
"788 82 OFFCURVE",
"845 -10 OFFCURVE",
"1032 -10 CURVE SMOOTH",
"1079 -10 LINE",
"1095 82 LINE",
"1025 82 LINE SMOOTH",
"930 82 OFFCURVE",
"886 147 OFFCURVE",
"906 258 CURVE SMOOTH",
"1049 1070 LINE",
"1031 1070 LINE SMOOTH",
"478 1070 OFFCURVE",
"68 758 OFFCURVE",
"68 277 CURVE SMOOTH",
"68 88 OFFCURVE",
"178 -21 OFFCURVE",
"372 -21 CURVE SMOOTH"
);
},
{
closed = 1;
nodes = (
"247 71 OFFCURVE",
"164 148 OFFCURVE",
"164 282 CURVE SMOOTH",
"164 677 OFFCURVE",
"502 958 OFFCURVE",
"1023 978 CURVE",
"940 997 LINE",
"875 627 LINE SMOOTH",
"813 272 OFFCURVE",
"622 71 OFFCURVE",
"387 71 CURVE SMOOTH"
);
}
);
width = 1200;
}
);
unicode = 0061;
},
{
glyphname = aogonek;
layers = (
{
anchors = (
{
name = bottom;
position = "{438, -388}";
}
);
components = (
{
name = a;
}
);
layerId = "7062B15D-7097-4448-A185-D08BD1167FB1";
paths = (
{
closed = 1;
nodes = (
"903 -423 OFFCURVE",
"944 -417 OFFCURVE",
"973 -405 CURVE",
"947 -242 LINE",
"929 -249 OFFCURVE",
"903 -256 OFFCURVE",
"873 -256 CURVE SMOOTH",
"823 -256 OFFCURVE",
"795 -229 OFFCURVE",
"795 -176 CURVE SMOOTH",
"795 -77 OFFCURVE",
"938 -10 OFFCURVE",
"1065 -10 CURVE",
"960 34 LINE",
"868 72 LINE",
"868 -8 LINE",
"703 -64 OFFCURVE",
"645 -155 OFFCURVE",
"645 -253 CURVE SMOOTH",
"645 -364 OFFCURVE",
"719 -423 OFFCURVE",
"860 -423 CURVE SMOOTH"
);
}
);
width = 1200;
},
{
anchors = (
{
name = bottom;
position = "{438, -388}";
}
);
components = (
{
name = a;
}
);
layerId = "84EC96F5-B4D5-4389-883B-FBB110B3398F";
paths = (
{
closed = 1;
nodes = (
"899 -424 OFFCURVE",
"966 -408 OFFCURVE",
"1013 -386 CURVE",
"971 -172 LINE",
"946 -180 OFFCURVE",
"921 -185 OFFCURVE",
"898 -185 CURVE SMOOTH",
"859 -185 OFFCURVE",
"839 -170 OFFCURVE",
"839 -142 CURVE SMOOTH",
"839 -81 OFFCURVE",
"955 -9 OFFCURVE",
"1082 -9 CURVE",
"1043 21 LINE",
"843 37 LINE",
"843 -13 LINE",
"704 -59 OFFCURVE",
"622 -148 OFFCURVE",
"622 -255 CURVE SMOOTH",
"622 -368 OFFCURVE",
"697 -424 OFFCURVE",
"841 -424 CURVE SMOOTH"
);
}
);
width = 1200;
},
{
anchors = (
{
name = bottom;
position = "{438, -388}";
}
);
components = (
{
name = a;
}
);
layerId = "A4690C19-62E3-4552-AAB4-AF5F97C4421F";
paths = (
{
closed = 1;
nodes = (
"900 -423 OFFCURVE",
"941 -417 OFFCURVE",
"970 -405 CURVE",
"957 -322 LINE",
"937 -329 OFFCURVE",
"907 -336 OFFCURVE",
"873 -336 CURVE SMOOTH",
"796 -336 OFFCURVE",
"754 -301 OFFCURVE",
"754 -234 CURVE SMOOTH",
"754 -100 OFFCURVE",
"914 -10 OFFCURVE",
"1055 -10 CURVE",
"970 24 LINE",
"900 62 LINE",
"900 4 LINE",
"751 -34 OFFCURVE",
"660 -151 OFFCURVE",
"660 -254 CURVE SMOOTH",
"660 -364 OFFCURVE",
"728 -423 OFFCURVE",
"857 -423 CURVE SMOOTH"
);
}
);
width = 1200;
}
);
unicode = 0105;
},
{
glyphname = ae;
layers = (
{
anchors = (
{
name = bottom;
position = "{506, 0}";
},
{
name = top;
position = "{693, 1060}";
}
);
layerId = "7062B15D-7097-4448-A185-D08BD1167FB1";
paths = (
{
closed = 1;
nodes = (
"777 170 OFFCURVE",
"700 256 OFFCURVE",
"699 401 CURVE SMOOTH",
"700 694 OFFCURVE",
"783 890 OFFCURVE",
"906 890 CURVE SMOOTH",
"954 890 OFFCURVE",
"981 853 OFFCURVE",
"981 793 CURVE SMOOTH",
"981 638 OFFCURVE",
"859 546 OFFCURVE",
"652 541 CURVE",
"673 381 LINE",
"993 390 OFFCURVE",
"1183 554 OFFCURVE",
"1183 820 CURVE SMOOTH",
"1183 983 OFFCURVE",
"1102 1080 OFFCURVE",
"964 1080 CURVE SMOOTH",
"714 1080 OFFCURVE",
"547 804 OFFCURVE",
"547 389 CURVE SMOOTH",
"547 132 OFFCURVE",
"678 -20 OFFCURVE",
"899 -20 CURVE SMOOTH",
"958 -20 OFFCURVE",
"1027 -7 OFFCURVE",
"1084 14 CURVE",
"1043 190 LINE",
"999 177 OFFCURVE",
"949 170 OFFCURVE",
"908 170 CURVE SMOOTH"
);
},
{
closed = 1;
nodes = (
"409 -20 OFFCURVE",
"514 63 OFFCURVE",
"553 256 CURVE",
"465 234 LINE",
"634 234 LINE",
"508 556 LINE",
"477 380 LINE",
"456 246 OFFCURVE",
"381 170 OFFCURVE",
"293 170 CURVE SMOOTH",
"225 170 OFFCURVE",
"189 205 OFFCURVE",
"189 267 CURVE SMOOTH",
"189 380 OFFCURVE",
"275 454 OFFCURVE",
"408 454 CURVE SMOOTH",
"465 454 OFFCURVE",
"512 454 OFFCURVE",
"535 424 CURVE",
"610 598 LINE",
"574 621 OFFCURVE",
"507 634 OFFCURVE",
"444 634 CURVE SMOOTH",
"164 634 OFFCURVE",
"-25 473 OFFCURVE",
"-25 234 CURVE SMOOTH",
"-25 71 OFFCURVE",
"68 -20 OFFCURVE",
"237 -20 CURVE SMOOTH"
);
},
{
closed = 1;
nodes = (
"589 310 LINE",
"646 584 LINE SMOOTH",
"707 878 OFFCURVE",
"570 1061 OFFCURVE",
"323 1067 CURVE SMOOTH",
"191 1070 LINE",
"161 880 LINE",
"270 877 LINE SMOOTH",
"447 872 OFFCURVE",
"546 770 OFFCURVE",
"519 616 CURVE SMOOTH",
"480 392 LINE",
"472 310 LINE"
);
}
);
width = 1200;
},
{
anchors = (
{
name = bottom;
position = "{506, 0}";
},
{
name = top;
position = "{693, 1060}";
}
);
layerId = "84EC96F5-B4D5-4389-883B-FBB110B3398F";
paths = (
{
closed = 1;
nodes = (
"792 232 OFFCURVE",
"724 314 OFFCURVE",
"723 451 CURVE SMOOTH",
"724 674 OFFCURVE",
"797 824 OFFCURVE",
"906 824 CURVE SMOOTH",
"948 824 OFFCURVE",
"971 798 OFFCURVE",
"971 757 CURVE SMOOTH",
"971 643 OFFCURVE",
"853 575 OFFCURVE",
"652 571 CURVE",
"673 351 LINE",
"1018 360 OFFCURVE",
"1223 524 OFFCURVE",
"1223 790 CURVE SMOOTH",
"1223 972 OFFCURVE",
"1131 1080 OFFCURVE",
"974 1080 CURVE SMOOTH",
"720 1080 OFFCURVE",
"551 804 OFFCURVE",
"551 389 CURVE SMOOTH",
"551 132 OFFCURVE",
"681 -20 OFFCURVE",
"899 -20 CURVE SMOOTH",
"961 -20 OFFCURVE",
"1034 -7 OFFCURVE",
"1094 14 CURVE",
"1053 252 LINE",
"1006 239 OFFCURVE",
"952 232 OFFCURVE",
"908 232 CURVE SMOOTH"
);
},
{
closed = 1;
nodes = (
"390 -20 OFFCURVE",
"502 72 OFFCURVE",
"543 286 CURVE",
"465 254 LINE",
"634 254 LINE",
"483 556 LINE",
"452 380 LINE",
"434 270 OFFCURVE",
"369 208 OFFCURVE",
"293 208 CURVE SMOOTH",
"245 208 OFFCURVE",
"219 237 OFFCURVE",
"219 287 CURVE SMOOTH",
"219 379 OFFCURVE",
"293 439 OFFCURVE",
"408 439 CURVE SMOOTH",
"465 439 OFFCURVE",
"512 439 OFFCURVE",
"535 409 CURVE",
"610 598 LINE",
"574 621 OFFCURVE",
"507 634 OFFCURVE",
"444 634 CURVE SMOOTH",
"152 634 OFFCURVE",
"-45 469 OFFCURVE",
"-45 224 CURVE SMOOTH",
"-45 67 OFFCURVE",
"44 -20 OFFCURVE",
"207 -20 CURVE SMOOTH"
);
},
{
closed = 1;
nodes = (
"609 310 LINE",
"653 604 LINE SMOOTH",
"696 890 OFFCURVE",
"565 1061 OFFCURVE",
"293 1067 CURVE SMOOTH",
"171 1070 LINE",
"131 815 LINE",
"230 812 LINE SMOOTH",
"416 807 OFFCURVE",
"514 732 OFFCURVE",
"494 616 CURVE SMOOTH",
"455 392 LINE",
"447 310 LINE"
);
}
);
width = 1200;
},
{
anchors = (
{
name = bottom;
position = "{506, 0}";
},
{
name = top;
position = "{693, 1060}";
}
);
layerId = "A4690C19-62E3-4552-AAB4-AF5F97C4421F";
paths = (
{
closed = 1;
nodes = (
"718 70 OFFCURVE",
"624 193 OFFCURVE",
"623 401 CURVE SMOOTH",
"624 754 OFFCURVE",
"751 990 OFFCURVE",
"938 990 CURVE SMOOTH",
"1030 990 OFFCURVE",
"1082 924 OFFCURVE",
"1082 818 CURVE SMOOTH",
"1082 620 OFFCURVE",
"908 502 OFFCURVE",
"612 496 CURVE",
"613 406 LINE",
"968 414 OFFCURVE",
"1178 569 OFFCURVE",
"1178 820 CURVE SMOOTH",
"1178 983 OFFCURVE",
"1095 1080 OFFCURVE",
"954 1080 CURVE SMOOTH",
"713 1080 OFFCURVE",
"552 804 OFFCURVE",
"552 389 CURVE SMOOTH",
"552 132 OFFCURVE",
"670 -20 OFFCURVE",
"870 -20 CURVE SMOOTH",
"924 -20 OFFCURVE",
"987 -7 OFFCURVE",
"1039 14 CURVE",
"1018 100 LINE",
"972 81 OFFCURVE",
"921 70 OFFCURVE",
"878 70 CURVE SMOOTH"
);
},
{
closed = 1;
nodes = (
"411 -20 OFFCURVE",
"529 93 OFFCURVE",
"573 356 CURVE",
"533 264 LINE",
"614 264 LINE",
"546 556 LINE",
"513 380 LINE",
"481 182 OFFCURVE",
"366 70 OFFCURVE",
"232 70 CURVE SMOOTH",
"133 70 OFFCURVE",
"81 127 OFFCURVE",
"81 228 CURVE SMOOTH",
"81 399 OFFCURVE",
"209 511 OFFCURVE",
"408 511 CURVE SMOOTH",
"487 511 OFFCURVE",
"553 501 OFFCURVE",
"585 481 CURVE",
"610 565 LINE",
"569 588 OFFCURVE",
"491 601 OFFCURVE",
"419 601 CURVE SMOOTH",
"160 601 OFFCURVE",
"-15 448 OFFCURVE",
"-15 222 CURVE SMOOTH",
"-15 67 OFFCURVE",
"67 -20 OFFCURVE",
"217 -20 CURVE SMOOTH"
);
},
{
closed = 1;
nodes = (
"570 310 LINE",
"618 584 LINE SMOOTH",
"670 881 OFFCURVE",
"536 1070 OFFCURVE",
"283 1070 CURVE SMOOTH",
"241 1070 LINE",
"227 980 LINE",
"246 980 LINE SMOOTH",
"463 980 OFFCURVE",
"591 830 OFFCURVE",
"554 616 CURVE SMOOTH",
"515 392 LINE",
"500 310 LINE"
);
}
);
width = 1200;
}
);
unicode = 00E6;
},
{
glyphname = b;
layers = (
{
anchors = (
{
name = bottom;
position = "{506, 0}";
},
{
name = top;
position = "{425, 1420}";
}
);
layerId = "7062B15D-7097-4448-A185-D08BD1167FB1";
paths = (
{
closed = 1;
nodes = (
"797 -20 OFFCURVE",
"1126 315 OFFCURVE",
"1126 760 CURVE SMOOTH",
"1126 964 OFFCURVE",
"1025 1080 OFFCURVE",
"850 1080 CURVE SMOOTH",
"629 1080 OFFCURVE",
"474 957 OFFCURVE",
"427 743 CURVE",
"479 819 LINE",
"392 819 LINE",
"353 388 LINE",
"417 740 OFFCURVE",
"604 890 OFFCURVE",
"770 890 CURVE SMOOTH",
"860 890 OFFCURVE",
"912 828 OFFCURVE",
"912 720 CURVE SMOOTH",
"912 406 OFFCURVE",
"684 170 OFFCURVE",
"382 170 CURVE SMOOTH",
"288 170 OFFCURVE",
"209 180 OFFCURVE",
"170 195 CURVE",
"70 1 LINE",
"167 -12 OFFCURVE",
"263 -20 OFFCURVE",
"360 -20 CURVE SMOOTH"
);
},
{
closed = 1;
nodes = (
"169 1521 OFFCURVE",
"118 1517 OFFCURVE",
"68 1505 CURVE",
"89 1323 LINE",
"122 1331 OFFCURVE",
"155 1334 OFFCURVE",
"188 1334 CURVE SMOOTH",
"269 1334 OFFCURVE",
"297 1290 OFFCURVE",
"279 1187 CURVE SMOOTH",
"70 1 LINE",
"285 0 LINE",
"490 1167 LINE SMOOTH",
"535 1415 OFFCURVE",
"452 1521 OFFCURVE",
"220 1521 CURVE SMOOTH"
);
}
);
width = 1200;
},
{
anchors = (
{
name = bottom;
position = "{506, 0}";
},
{
name = top;
position = "{425, 1420}";
}
);
layerId = "84EC96F5-B4D5-4389-883B-FBB110B3398F";
paths = (
{
closed = 1;
nodes = (
"780 -20 OFFCURVE",
"1139 307 OFFCURVE",
"1139 740 CURVE SMOOTH",
"1139 957 OFFCURVE",
"1029 1080 OFFCURVE",
"838 1080 CURVE SMOOTH",
"658 1080 OFFCURVE",
"534 983 OFFCURVE",
"495 813 CURVE",
"526 869 LINE",
"439 869 LINE",
"399 388 LINE",
"457 693 OFFCURVE",
"602 823 OFFCURVE",
"736 823 CURVE SMOOTH",
"816 823 OFFCURVE",
"862 781 OFFCURVE",
"862 706 CURVE SMOOTH",
"862 439 OFFCURVE",
"645 237 OFFCURVE",
"357 237 CURVE SMOOTH",
"276 237 OFFCURVE",
"208 247 OFFCURVE",
"175 262 CURVE",
"56 0 LINE",
"140 -12 OFFCURVE",
"220 -20 OFFCURVE",
"304 -20 CURVE SMOOTH"
);
},
{
closed = 1;
nodes = (
"154 1521 OFFCURVE",
"103 1517 OFFCURVE",
"53 1505 CURVE",
"82 1253 LINE",
"108 1261 OFFCURVE",
"135 1264 OFFCURVE",
"161 1264 CURVE SMOOTH",
"237 1264 OFFCURVE",
"268 1210 OFFCURVE",
"246 1087 CURVE SMOOTH",
"55 1 LINE",
"330 0 LINE",
"527 1117 LINE SMOOTH",
"577 1400 OFFCURVE",
"481 1521 OFFCURVE",
"205 1521 CURVE SMOOTH"
);
}
);
width = 1200;
},
{
anchors = (
{
name = bottom;
position = "{506, 0}";
},
{
name = top;
position = "{385, 1420}";
}
);
layerId = "A4690C19-62E3-4552-AAB4-AF5F97C4421F";
paths = (
{
closed = 1;
nodes = (
"761 -20 OFFCURVE",
"1099 307 OFFCURVE",
"1099 740 CURVE SMOOTH",
"1099 957 OFFCURVE",
"984 1080 OFFCURVE",
"785 1080 CURVE SMOOTH",
"555 1080 OFFCURVE",
"379 931 OFFCURVE",
"317 673 CURVE",
"369 749 LINE",
"287 749 LINE",
"248 318 LINE",
"326 788 OFFCURVE",
"553 988 OFFCURVE",
"755 988 CURVE SMOOTH",
"912 988 OFFCURVE",
"1003 894 OFFCURVE",
"1003 730 CURVE SMOOTH",
"1003 355 OFFCURVE",
"715 72 OFFCURVE",
"334 72 CURVE SMOOTH",
"264 72 OFFCURVE",
"204 82 OFFCURVE",
"175 97 CURVE",
"96 1 LINE",
"168 -12 OFFCURVE",
"240 -20 OFFCURVE",
"312 -20 CURVE SMOOTH"
);
},
{
closed = 1;
nodes = (
"175 1521 OFFCURVE",
"134 1517 OFFCURVE",
"94 1505 CURVE",
"105 1418 LINE",
"141 1426 OFFCURVE",
"178 1429 OFFCURVE",
"214 1429 CURVE SMOOTH",
"313 1429 OFFCURVE",
"337 1367 OFFCURVE",
"314 1237 CURVE SMOOTH",
"96 1 LINE",
"192 0 LINE",
"413 1247 LINE SMOOTH",
"446 1431 OFFCURVE",
"389 1521 OFFCURVE",
"216 1521 CURVE SMOOTH"
);
}
);
width = 1200;
}
);
unicode = 0062;
},
{
glyphname = c;
layers = (
{
anchors = (
{
name = bottom;
position = "{576, 0}";
},
{
name = top;
position = "{683, 1060}";
}
);
layerId = "7062B15D-7097-4448-A185-D08BD1167FB1";
paths = (
{
closed = 1;
nodes = (
"412 170 OFFCURVE",
"329 251 OFFCURVE",
"328 391 CURVE SMOOTH",
"329 692 OFFCURVE",
"472 890 OFFCURVE",
"689 890 CURVE SMOOTH",
"815 890 OFFCURVE",
"900 844 OFFCURVE",
"970 737 CURVE",
"1125 860 LINE",
"1058 1014 OFFCURVE",
"936 1080 OFFCURVE",
"717 1080 CURVE SMOOTH",
"353 1080 OFFCURVE",
"114 798 OFFCURVE",
"114 369 CURVE SMOOTH",
"114 122 OFFCURVE",
"264 -20 OFFCURVE",
"527 -20 CURVE SMOOTH",
"702 -20 OFFCURVE",
"877 39 OFFCURVE",
"1008 129 CURVE",
"936 293 LINE",
"833 219 OFFCURVE",
"694 170 OFFCURVE",
"556 170 CURVE SMOOTH"
);
}
);
width = 1200;
},
{
anchors = (
{
name = bottom;
position = "{586, 0}";
},
{
name = top;
position = "{693, 1060}";
}
);
layerId = "84EC96F5-B4D5-4389-883B-FBB110B3398F";
paths = (
{
closed = 1;
nodes = (
"461 237 OFFCURVE",
"375 315 OFFCURVE",
"374 451 CURVE SMOOTH",
"375 675 OFFCURVE",
"504 823 OFFCURVE",
"702 823 CURVE SMOOTH",
"817 823 OFFCURVE",
"894 789 OFFCURVE",
"959 711 CURVE",
"1144 890 LINE",
"1053 1023 OFFCURVE",
"929 1080 OFFCURVE",
"730 1080 CURVE SMOOTH",
"348 1080 OFFCURVE",
"97 814 OFFCURVE",
"97 409 CURVE SMOOTH",
"97 137 OFFCURVE",
"273 -20 OFFCURVE",
"580 -20 CURVE SMOOTH",
"748 -20 OFFCURVE",
"915 35 OFFCURVE",
"1041 119 CURVE",
"939 339 LINE",
"849 278 OFFCURVE",
"729 237 OFFCURVE",
"609 237 CURVE SMOOTH"
);
}
);
width = 1200;
},
{
anchors = (
{
name = bottom;
position = "{576, 0}";
},
{
name = top;
position = "{693, 1060}";
}
);
layerId = "A4690C19-62E3-4552-AAB4-AF5F97C4421F";
paths = (
{
closed = 1;
nodes = (
"342 72 OFFCURVE",
"225 194 OFFCURVE",
"223 401 CURVE SMOOTH",
"224 755 OFFCURVE",
"418 988 OFFCURVE",
"712 988 CURVE SMOOTH",
"867 988 OFFCURVE",
"974 935 OFFCURVE",
"1027 802 CURVE",
"1104 860 LINE",
"1044 1005 OFFCURVE",
"913 1080 OFFCURVE",
"720 1080 CURVE SMOOTH",
"362 1080 OFFCURVE",
"127 806 OFFCURVE",
"127 389 CURVE SMOOTH",
"127 132 OFFCURVE",
"273 -20 OFFCURVE",
"520 -20 CURVE SMOOTH",
"692 -20 OFFCURVE",
"862 39 OFFCURVE",
"991 129 CURVE",
"953 209 LINE",
"830 126 OFFCURVE",
"679 72 OFFCURVE",
"539 72 CURVE SMOOTH"
);
}
);
width = 1200;
}
);
unicode = 0063;
},
{
glyphname = d;
layers = (
{
anchors = (
{
name = bottom;
position = "{506, 0}";
},
{
name = center;
position = "{568, 532}";
},
{
name = top;
position = "{1045, 1500}";
},
{
name = topright;
position = "{1219, 1062}";
}
);
layerId = "7062B15D-7097-4448-A185-D08BD1167FB1";
paths = (
{
closed = 1;
nodes = (
"560 -21 OFFCURVE",
"718 110 OFFCURVE",
"785 309 CURVE",
"685 252 LINE",
"801 252 LINE",
"813 667 LINE",
"750 350 OFFCURVE",
"604 169 OFFCURVE",
"417 169 CURVE SMOOTH",
"328 169 OFFCURVE",
"277 217 OFFCURVE",
"277 302 CURVE SMOOTH",
"277 627 OFFCURVE",
"571 873 OFFCURVE",
"946 890 CURVE",
"1097 1080 LINE",
"1079 1080 LINE SMOOTH",
"501 1080 OFFCURVE",
"63 765 OFFCURVE",
"63 277 CURVE SMOOTH",
"63 88 OFFCURVE",
"168 -21 OFFCURVE",
"352 -21 CURVE SMOOTH"
);
},
{
closed = 1;
nodes = (
"1105 -10 LINE",
"1136 165 LINE",
"1075 165 LINE SMOOTH",
"983 165 OFFCURVE",
"949 216 OFFCURVE",
"967 318 CURVE SMOOTH",
"1117 1167 LINE SMOOTH",
"1161 1415 OFFCURVE",
"1079 1521 OFFCURVE",
"847 1521 CURVE SMOOTH",
"796 1521 OFFCURVE",
"745 1517 OFFCURVE",
"695 1505 CURVE",
"718 1333 LINE",
"751 1341 OFFCURVE",
"784 1344 OFFCURVE",
"817 1344 CURVE SMOOTH",
"898 1344 OFFCURVE",
"926 1299 OFFCURVE",
"908 1197 CURVE SMOOTH",
"804 619 LINE",
"792 289 LINE",
"763 83 OFFCURVE",
"833 -10 OFFCURVE",
"1029 -10 CURVE SMOOTH"
);
}
);
width = 1200;
},
{
anchors = (
{
name = bottom;
position = "{486, 0}";
},
{
name = center;
position = "{548, 532}";
},
{
name = top;
position = "{1025, 1500}";
},
{
name = topright;
position = "{1199, 1062}";
}
);
layerId = "84EC96F5-B4D5-4389-883B-FBB110B3398F";
paths = (
{
closed = 1;
nodes = (
"542 -21 OFFCURVE",
"693 125 OFFCURVE",
"757 379 CURVE",
"653 224 LINE",
"769 224 LINE",
"774 667 LINE",
"720 393 OFFCURVE",
"599 236 OFFCURVE",
"436 236 CURVE SMOOTH",
"353 236 OFFCURVE",
"314 275 OFFCURVE",
"314 359 CURVE SMOOTH",
"314 615 OFFCURVE",
"593 809 OFFCURVE",
"947 823 CURVE",
"1108 1080 LINE",
"1090 1080 LINE SMOOTH",
"491 1080 OFFCURVE",
"37 765 OFFCURVE",
"37 277 CURVE SMOOTH",
"37 88 OFFCURVE",
"147 -21 OFFCURVE",
"341 -21 CURVE SMOOTH"
);
},
{
closed = 1;
nodes = (
"1120 -10 LINE",
"1160 219 LINE",
"1118 219 LINE SMOOTH",
"980 219 OFFCURVE",
"975 258 OFFCURVE",
"995 370 CURVE SMOOTH",
"1108 1017 LINE SMOOTH",
"1169 1367 OFFCURVE",
"1059 1521 OFFCURVE",
"785 1521 CURVE SMOOTH",
"724 1521 OFFCURVE",
"663 1510 OFFCURVE",
"603 1495 CURVE",
"636 1243 LINE",
"682 1258 OFFCURVE",
"720 1264 OFFCURVE",
"761 1264 CURVE SMOOTH",
"839 1264 OFFCURVE",
"870 1210 OFFCURVE",
"848 1087 CURVE SMOOTH",
"765 619 LINE",
"746 250 LINE",
"700 11 OFFCURVE",
"870 -10 OFFCURVE",
"1022 -10 CURVE SMOOTH"
);
}
);
width = 1200;
},
{
anchors = (
{
name = bottom;
position = "{506, 0}";
},
{
name = center;
position = "{568, 532}";
},
{
name = top;
position = "{1045, 1500}";
},
{
name = topright;
position = "{1219, 1062}";
}
);
layerId = "A4690C19-62E3-4552-AAB4-AF5F97C4421F";
paths = (
{
closed = 1;
nodes = (
"608 -21 OFFCURVE",
"783 114 OFFCURVE",
"864 352 CURVE",
"803 284 LINE",
"897 284 LINE",
"916 709 LINE",
"835 287 OFFCURVE",
"674 71 OFFCURVE",
"399 71 CURVE SMOOTH",
"252 71 OFFCURVE",
"166 148 OFFCURVE",
"166 282 CURVE SMOOTH",
"166 677 OFFCURVE",
"519 958 OFFCURVE",
"1051 978 CURVE",
"1067 1070 LINE",
"1059 1070 LINE SMOOTH",
"496 1070 OFFCURVE",
"70 758 OFFCURVE",
"70 277 CURVE SMOOTH",
"70 88 OFFCURVE",
"184 -21 OFFCURVE",
"384 -21 CURVE SMOOTH"
);
},
{
closed = 1;
nodes = (
"1105 -10 LINE",
"1121 82 LINE",
"1059 82 LINE SMOOTH",
"949 82 OFFCURVE",
"912 145 OFFCURVE",
"934 269 CURVE SMOOTH",
"1106 1247 LINE SMOOTH",
"1138 1431 OFFCURVE",
"1082 1521 OFFCURVE",
"909 1521 CURVE SMOOTH",
"868 1521 OFFCURVE",
"827 1517 OFFCURVE",
"787 1505 CURVE",
"798 1418 LINE",
"834 1426 OFFCURVE",
"871 1429 OFFCURVE",
"907 1429 CURVE SMOOTH",
"1006 1429 OFFCURVE",
"1030 1367 OFFCURVE",
"1007 1237 CURVE SMOOTH",
"912 689 LINE",
"853 290 LINE",
"819 111 OFFCURVE",
"849 -10 OFFCURVE",
"1054 -10 CURVE SMOOTH"
);
}
);
width = 1200;
}
);
unicode = 0064;
},
{
glyphname = eth;
layers = (
{
anchors = (
{
name = bottom;
position = "{506, 0}";
},
{
name = top;
position = "{771, 1500}";
}
);
layerId = "7062B15D-7097-4448-A185-D08BD1167FB1";
paths = (
{
closed = 1;
nodes = (
"850 1271 OFFCURVE",
"903 1038 OFFCURVE",
"870 666 CURVE SMOOTH",
"840 334 OFFCURVE",
"722 170 OFFCURVE",
"507 170 CURVE SMOOTH",
"377 170 OFFCURVE",
"300 243 OFFCURVE",
"300 366 CURVE SMOOTH",
"300 614 OFFCURVE",
"559 760 OFFCURVE",
"989 760 CURVE",
"943 950 LINE",
"434 950 OFFCURVE",
"86 697 OFFCURVE",
"86 329 CURVE SMOOTH",
"86 110 OFFCURVE",
"231 -20 OFFCURVE",
"475 -20 CURVE SMOOTH",
"830 -20 OFFCURVE",
"1030 177 OFFCURVE",
"1080 574 CURVE SMOOTH",
"1145 1087 OFFCURVE",
"1017 1366 OFFCURVE",
"550 1516 CURVE",
"502 1416 LINE"
);
},
{
closed = 1;
nodes = (
"1225 1247 LINE",
"1185 1422 LINE",
"325 1172 LINE",
"365 997 LINE"
);
}
);
width = 1200;
},
{
anchors = (
{
name = bottom;
position = "{506, 0}";
},
{
name = top;
position = "{771, 1500}";
}
);
layerId = "84EC96F5-B4D5-4389-883B-FBB110B3398F";
paths = (
{
closed = 1;
nodes = (
"805 1225 OFFCURVE",
"858 1010 OFFCURVE",
"828 666 CURVE SMOOTH",
"802 379 OFFCURVE",
"690 237 OFFCURVE",
"490 237 CURVE SMOOTH",
"400 237 OFFCURVE",
"353 285 OFFCURVE",
"353 376 CURVE SMOOTH",
"353 588 OFFCURVE",
"592 713 OFFCURVE",
"989 713 CURVE",
"943 970 LINE",
"422 970 OFFCURVE",
"66 713 OFFCURVE",
"66 339 CURVE SMOOTH",
"66 103 OFFCURVE",
"196 -20 OFFCURVE",
"445 -20 CURVE SMOOTH",
"833 -20 OFFCURVE",
"1057 176 OFFCURVE",
"1107 574 CURVE SMOOTH",
"1172 1087 OFFCURVE",
"1041 1366 OFFCURVE",
"550 1516 CURVE",
"467 1359 LINE"
);
},
{
closed = 1;
nodes = (
"1216 1214 LINE",
"1164 1439 LINE",
"337 1197 LINE",
"389 972 LINE"
);
}
);
width = 1200;
},
{
anchors = (
{
name = bottom;
position = "{506, 0}";
},
{
name = top;
position = "{771, 1500}";
}
);
layerId = "A4690C19-62E3-4552-AAB4-AF5F97C4421F";
paths = (
{
closed = 1;
nodes = (
"954 1284 OFFCURVE",
"1022 1043 OFFCURVE",
"988 656 CURVE SMOOTH",
"953 265 OFFCURVE",
"785 72 OFFCURVE",
"491 72 CURVE SMOOTH",
"315 72 OFFCURVE",
"210 168 OFFCURVE",
"210 329 CURVE SMOOTH",
"210 651 OFFCURVE",
"522 840 OFFCURVE",
"1039 840 CURVE",
"1000 932 LINE",
"472 932 OFFCURVE",
"111 686 OFFCURVE",
"111 329 CURVE SMOOTH",
"111 110 OFFCURVE",
"247 -20 OFFCURVE",
"475 -20 CURVE SMOOTH",
"823 -20 OFFCURVE",
"1018 177 OFFCURVE",
"1068 574 CURVE SMOOTH",
"1133 1087 OFFCURVE",
"993 1366 OFFCURVE",
"550 1516 CURVE",
"516 1435 LINE"
);
},
{
closed = 1;
nodes = (
"1230 1327 LINE",
"1208 1409 LINE",
"311 1109 LINE",
"335 1027 LINE"
);
}
);
width = 1200;
}
);
unicode = 00F0;
},
{
glyphname = dcaron;
layers = (
{
components = (
{
name = d;
}
);
layerId = "7062B15D-7097-4448-A185-D08BD1167FB1";
paths = (
{
closed = 1;
nodes = (
"1397 1188 LINE",
"1554 1568 LINE",
"1332 1568 LINE",
"1225 1188 LINE"
);
}
);
width = 1200;
},
{
components = (
{
name = d;
}
);
layerId = "84EC96F5-B4D5-4389-883B-FBB110B3398F";
paths = (
{
closed = 1;
nodes = (
"1427 1188 LINE",
"1584 1568 LINE",
"1338 1568 LINE",
"1231 1188 LINE"
);
}
);
width = 1200;
},
{
components = (
{
name = d;
}
);
layerId = "A4690C19-62E3-4552-AAB4-AF5F97C4421F";
paths = (
{
closed = 1;
nodes = (
"1362 1188 LINE",
"1509 1568 LINE",
"1414 1568 LINE",
"1285 1188 LINE"
);
}
);
width = 1200;
}
);
unicode = 010F;
},
{
glyphname = dcroat;
layers = (
{
anchors = (
{
name = bottom;
position = "{506, 0}";
},
{
name = center;
position = "{568, 532}";
},
{
name = top;
position = "{1068, 1500}";
},
{
name = topright;
position = "{1219, 1062}";
}
);
layerId = "7062B15D-7097-4448-A185-D08BD1167FB1";
paths = (
{
closed = 1;
nodes = (
"804 619 LINE",
"792 339 LINE",
"761 -10 LINE",
"1084 0 LINE",
"1113 165 LINE",
"872 165 LINE",
"930 116 LINE",
"1175 1500 LINE",
"960 1500 LINE"
);
},
{
closed = 1;
nodes = (
"813 667 LINE",
"750 350 OFFCURVE",
"604 169 OFFCURVE",
"417 169 CURVE SMOOTH",
"328 169 OFFCURVE",
"277 217 OFFCURVE",
"277 302 CURVE SMOOTH",
"277 627 OFFCURVE",
"571 873 OFFCURVE",
"946 890 CURVE",
"1097 1080 LINE",
"1079 1080 LINE SMOOTH",
"501 1080 OFFCURVE",
"63 765 OFFCURVE",
"63 277 CURVE SMOOTH",
"63 88 OFFCURVE",
"168 -21 OFFCURVE",
"352 -21 CURVE SMOOTH",
"560 -21 OFFCURVE",
"718 110 OFFCURVE",
"785 309 CURVE",
"685 252 LINE",
"801 252 LINE"
);
},
{
closed = 1;
nodes = (
"1231 1218 LINE",
"1262 1392 LINE",
"586 1392 LINE",
"555 1218 LINE"
);
}
);
width = 1200;
},
{
anchors = (
{
name = bottom;
position = "{486, 0}";
},
{
name = center;
position = "{548, 532}";
},
{
name = top;
position = "{1059, 1500}";
},
{
name = topright;
position = "{1199, 1062}";
}
);
layerId = "84EC96F5-B4D5-4389-883B-FBB110B3398F";
paths = (
{
closed = 1;
nodes = (
"765 619 LINE",
"734 289 LINE",
"717 -10 LINE",
"1084 0 LINE",
"1123 220 LINE",
"902 220 LINE",
"951 116 LINE",
"1196 1500 LINE",
"921 1500 LINE"
);
},
{
closed = 1;
nodes = (
"774 667 LINE",
"720 393 OFFCURVE",
"599 236 OFFCURVE",
"436 236 CURVE SMOOTH",
"353 236 OFFCURVE",
"314 275 OFFCURVE",
"314 359 CURVE SMOOTH",
"314 615 OFFCURVE",
"593 809 OFFCURVE",
"947 823 CURVE",
"1108 1080 LINE",
"1090 1080 LINE SMOOTH",
"491 1080 OFFCURVE",
"37 765 OFFCURVE",
"37 277 CURVE SMOOTH",
"37 88 OFFCURVE",
"147 -21 OFFCURVE",
"341 -21 CURVE SMOOTH",
"542 -21 OFFCURVE",
"693 125 OFFCURVE",
"757 379 CURVE",
"653 224 LINE",
"769 224 LINE"
);
},
{
closed = 1;
nodes = (
"1243 1168 LINE",
"1283 1392 LINE",
"590 1392 LINE",
"550 1168 LINE"
);
}
);
width = 1200;
},
{
anchors = (
{
name = bottom;
position = "{506, 0}";
},
{
name = center;
position = "{568, 532}";
},
{
name = top;
position = "{1103, 1500}";
},
{
name = topright;
position = "{1219, 1062}";
}
);
layerId = "A4690C19-62E3-4552-AAB4-AF5F97C4421F";
paths = (
{
closed = 1;
nodes = (
"911 689 LINE",
"860 339 LINE",
"808 -10 LINE",
"1068 0 LINE",
"1082 82 LINE",
"857 82 LINE",
"890 23 LINE",
"1150 1500 LINE",
"1055 1500 LINE"
);
},
{
closed = 1;
nodes = (
"916 709 LINE",
"835 287 OFFCURVE",
"674 71 OFFCURVE",
"399 71 CURVE SMOOTH",
"252 71 OFFCURVE",
"166 148 OFFCURVE",
"166 282 CURVE SMOOTH",
"166 677 OFFCURVE",
"519 958 OFFCURVE",
"1051 978 CURVE",
"1067 1070 LINE",
"1059 1070 LINE SMOOTH",
"496 1070 OFFCURVE",
"70 758 OFFCURVE",
"70 277 CURVE SMOOTH",
"70 88 OFFCURVE",
"184 -21 OFFCURVE",
"384 -21 CURVE SMOOTH",
"608 -21 OFFCURVE",
"783 114 OFFCURVE",
"864 352 CURVE",
"803 284 LINE",
"897 284 LINE"
);
},
{
closed = 1;
nodes = (
"1238 1260 LINE",
"1254 1350 LINE",
"578 1350 LINE",
"562 1260 LINE"
);
}
);
width = 1200;
}
);
unicode = 0111;
},
{
glyphname = dtail;
layers = (
{
anchors = (
{
name = bottom;
position = "{462, -251}";
},
{
name = center;
position = "{568, 532}";
},
{
name = top;
position = "{1045, 1500}";
},
{
name = topright;
position = "{1219, 1062}";
}
);
layerId = "A4690C19-62E3-4552-AAB4-AF5F97C4421F";
paths = (
{
closed = 1;
nodes = (
"603 -21 OFFCURVE",
"774 114 OFFCURVE",
"853 352 CURVE",
"803 284 LINE",
"897 284 LINE",
"916 709 LINE",
"835 287 OFFCURVE",
"674 71 OFFCURVE",
"399 71 CURVE SMOOTH",
"252 71 OFFCURVE",
"166 148 OFFCURVE",
"166 282 CURVE SMOOTH",
"166 677 OFFCURVE",
"519 958 OFFCURVE",
"1051 978 CURVE",
"1067 1070 LINE",
"1059 1070 LINE SMOOTH",
"496 1070 OFFCURVE",
"70 758 OFFCURVE",
"70 277 CURVE SMOOTH",
"70 88 OFFCURVE",
"184 -21 OFFCURVE",
"384 -21 CURVE SMOOTH"
);
},
{
closed = 1;
nodes = (
"1103 -381 LINE",
"1071 -376 LINE SMOOTH",
"923 -353 OFFCURVE",
"854 -219 OFFCURVE",
"902 62 CURVE SMOOTH",
"1021 764 LINE",
"925 764 LINE",
"807 94 LINE SMOOTH",
"743 -268 OFFCURVE",
"828 -453 OFFCURVE",
"1065 -468 CURVE SMOOTH",
"1081 -469 LINE"
);
},
{
closed = 1;
nodes = (
"1021 764 LINE",
"1106 1247 LINE SMOOTH",
"1138 1431 OFFCURVE",
"1082 1521 OFFCURVE",
"909 1521 CURVE SMOOTH",
"868 1521 OFFCURVE",
"827 1517 OFFCURVE",
"787 1505 CURVE",
"798 1418 LINE",
"834 1426 OFFCURVE",
"871 1429 OFFCURVE",
"907 1429 CURVE SMOOTH",
"1006 1429 OFFCURVE",
"1030 1367 OFFCURVE",
"1007 1237 CURVE SMOOTH",
"925 764 LINE"
);
}
);
width = 1200;
},
{
anchors = (
{
name = bottom;
position = "{462, -251}";
},
{
name = center;
position = "{568, 532}";
},
{
name = top;
position = "{1045, 1500}";
},
{
name = topright;
position = "{1219, 1062}";
}
);
layerId = "7062B15D-7097-4448-A185-D08BD1167FB1";
paths = (
{
closed = 1;
nodes = (
"511 -21 OFFCURVE",
"667 98 OFFCURVE",
"733 279 CURVE",
"680 222 LINE",
"796 222 LINE",
"813 667 LINE",
"750 350 OFFCURVE",
"604 169 OFFCURVE",
"417 169 CURVE SMOOTH",
"328 169 OFFCURVE",
"277 217 OFFCURVE",
"277 302 CURVE SMOOTH",
"277 627 OFFCURVE",
"571 873 OFFCURVE",
"946 890 CURVE",
"1097 1080 LINE",
"1079 1080 LINE SMOOTH",
"501 1080 OFFCURVE",
"63 765 OFFCURVE",
"63 277 CURVE SMOOTH",
"63 88 OFFCURVE",
"151 -21 OFFCURVE",
"305 -21 CURVE SMOOTH"
);
},
{
closed = 1;
nodes = (
"1145 -281 LINE",
"1099 -274 LINE SMOOTH",
"937 -249 OFFCURVE",
"883 -156 OFFCURVE",
"922 62 CURVE SMOOTH",
"1026 645 LINE",
"809 645 LINE",
"711 94 LINE SMOOTH",
"644 -284 OFFCURVE",
"756 -447 OFFCURVE",
"1085 -468 CURVE SMOOTH",
"1101 -469 LINE"
);
},
{
closed = 1;
nodes = (
"1026 645 LINE",
"1114 1156 LINE SMOOTH",
"1157 1399 OFFCURVE",
"1069 1520 OFFCURVE",
"843 1520 CURVE SMOOTH",
"783 1520 OFFCURVE",
"722 1516 OFFCURVE",
"663 1504 CURVE",
"684 1322 LINE",
"720 1330 OFFCURVE",
"757 1335 OFFCURVE",
"793 1333 CURVE SMOOTH",
"884 1330 OFFCURVE",
"921 1278 OFFCURVE",
"903 1176 CURVE SMOOTH",
"809 645 LINE"
);
}
);
width = 1200;
},
{
anchors = (
{
name = bottom;
position = "{462, -251}";
},
{
name = center;
position = "{548, 532}";
},
{
name = top;
position = "{1025, 1500}";
},
{
name = topright;
position = "{1199, 1062}";
}
);
layerId = "84EC96F5-B4D5-4389-883B-FBB110B3398F";
paths = (
{
closed = 1;
nodes = (
"523 -21 OFFCURVE",
"659 125 OFFCURVE",
"717 379 CURVE",
"653 224 LINE",
"769 224 LINE",
"774 667 LINE",
"720 393 OFFCURVE",
"599 236 OFFCURVE",
"436 236 CURVE SMOOTH",
"353 236 OFFCURVE",
"314 275 OFFCURVE",
"314 359 CURVE SMOOTH",
"314 615 OFFCURVE",
"593 809 OFFCURVE",
"947 823 CURVE",
"1108 1080 LINE",
"1090 1080 LINE SMOOTH",
"491 1080 OFFCURVE",
"37 765 OFFCURVE",
"37 277 CURVE SMOOTH",
"37 88 OFFCURVE",
"147 -21 OFFCURVE",
"341 -21 CURVE SMOOTH"
);
},
{
closed = 1;
nodes = (
"1176 -194 LINE",
"1129 -184 LINE SMOOTH",
"960 -148 OFFCURVE",
"912 -98 OFFCURVE",
"940 62 CURVE SMOOTH",
"1060 742 LINE",
"787 742 LINE",
"673 94 LINE SMOOTH",
"606 -286 OFFCURVE",
"723 -445 OFFCURVE",
"1095 -468 CURVE SMOOTH",
"1111 -469 LINE"
);
},
{
closed = 1;
nodes = (
"1060 742 LINE",
"1108 1017 LINE SMOOTH",
"1169 1367 OFFCURVE",
"1059 1521 OFFCURVE",
"785 1521 CURVE SMOOTH",
"724 1521 OFFCURVE",
"663 1510 OFFCURVE",
"603 1495 CURVE",
"636 1243 LINE",
"682 1258 OFFCURVE",
"720 1264 OFFCURVE",
"761 1264 CURVE SMOOTH",
"839 1264 OFFCURVE",
"870 1210 OFFCURVE",
"848 1087 CURVE SMOOTH",
"787 742 LINE"
);
}
);
width = 1200;
}
);
unicode = 0256;
},
{
glyphname = e;
layers = (
{
anchors = (
{
name = bottom;
position = "{521, 0}";
},
{
name = ogonek;
position = "{990, 10}";
},
{
name = top;
position = "{708, 1060}";
}
);
layerId = "7062B15D-7097-4448-A185-D08BD1167FB1";
paths = (
{
closed = 1;
nodes = (
"432 170 OFFCURVE",
"339 256 OFFCURVE",
"338 401 CURVE SMOOTH",
"339 694 OFFCURVE",
"501 890 OFFCURVE",
"740 890 CURVE SMOOTH",
"821 890 OFFCURVE",
"867 851 OFFCURVE",
"867 787 CURVE SMOOTH",
"867 630 OFFCURVE",
"657 536 OFFCURVE",
"300 531 CURVE",
"321 371 LINE",
"799 380 OFFCURVE",
"1081 539 OFFCURVE",
"1081 800 CURVE SMOOTH",
"1081 976 OFFCURVE",
"965 1080 OFFCURVE",
"768 1080 CURVE SMOOTH",
"392 1080 OFFCURVE",
"141 804 OFFCURVE",
"141 389 CURVE SMOOTH",
"141 132 OFFCURVE",
"303 -20 OFFCURVE",
"578 -20 CURVE SMOOTH",
"714 -20 OFFCURVE",
"871 22 OFFCURVE",
"1002 94 CURVE",
"933 265 LINE",
"821 205 OFFCURVE",
"693 170 OFFCURVE",
"587 170 CURVE SMOOTH"
);
}
);
width = 1200;
},
{
anchors = (
{
name = bottom;
position = "{521, 0}";
},
{
name = ogonek;
position = "{990, 10}";
},
{
name = top;
position = "{708, 1060}";
}
);
layerId = "84EC96F5-B4D5-4389-883B-FBB110B3398F";
paths = (
{
closed = 1;
nodes = (
"466 237 OFFCURVE",
"375 313 OFFCURVE",
"374 441 CURVE SMOOTH",
"375 675 OFFCURVE",
"514 832 OFFCURVE",
"721 832 CURVE SMOOTH",
"804 832 OFFCURVE",
"851 801 OFFCURVE",
"851 749 CURVE SMOOTH",
"851 646 OFFCURVE",
"647 584 OFFCURVE",
"301 581 CURVE",
"342 391 LINE",
"849 399 OFFCURVE",
"1118 513 OFFCURVE",
"1118 770 CURVE SMOOTH",
"1118 965 OFFCURVE",
"988 1080 OFFCURVE",
"769 1080 CURVE SMOOTH",
"381 1080 OFFCURVE",
"122 812 OFFCURVE",
"122 409 CURVE SMOOTH",
"122 139 OFFCURVE",
"296 -20 OFFCURVE",
"589 -20 CURVE SMOOTH",
"721 -20 OFFCURVE",
"872 9 OFFCURVE",
"999 84 CURVE",
"930 321 LINE",
"829 268 OFFCURVE",
"714 237 OFFCURVE",
"618 237 CURVE SMOOTH"
);
}
);
width = 1200;
},
{
anchors = (
{
name = bottom;
position = "{511, 0}";
},
{
name = ogonek;
position = "{980, 10}";
},
{
name = top;
position = "{698, 1060}";
}
);
layerId = "A4690C19-62E3-4552-AAB4-AF5F97C4421F";
paths = (
{
closed = 1;
nodes = (
"394 72 OFFCURVE",
"269 202 OFFCURVE",
"268 421 CURVE SMOOTH",
"269 777 OFFCURVE",
"444 988 OFFCURVE",
"737 988 CURVE SMOOTH",
"893 988 OFFCURVE",
"982 916 OFFCURVE",
"982 797 CURVE SMOOTH",
"982 596 OFFCURVE",
"719 498 OFFCURVE",
"240 491 CURVE",
"261 401 LINE",
"775 410 OFFCURVE",
"1078 538 OFFCURVE",
"1078 800 CURVE SMOOTH",
"1078 976 OFFCURVE",
"954 1080 OFFCURVE",
"745 1080 CURVE SMOOTH",
"385 1080 OFFCURVE",
"172 834 OFFCURVE",
"172 419 CURVE SMOOTH",
"172 143 OFFCURVE",
"329 -20 OFFCURVE",
"595 -20 CURVE SMOOTH",
"725 -20 OFFCURVE",
"874 24 OFFCURVE",
"999 98 CURVE",
"964 175 LINE",
"846 110 OFFCURVE",
"714 72 OFFCURVE",
"604 72 CURVE SMOOTH"
);
}
);
width = 1200;
}
);
unicode = 0065;
},
